%TF.GenerationSoftware,KiCad,Pcbnew,9.0.2*%
%TF.CreationDate,2025-08-28T15:12:57+09:00*%
%TF.ProjectId,BLDC_Contr,424c4443-5f43-46f6-9e74-722e6b696361,rev?*%
%TF.SameCoordinates,Original*%
%TF.FileFunction,Soldermask,Bot*%
%TF.FilePolarity,Negative*%
%FSLAX46Y46*%
G04 Gerber Fmt 4.6, Leading zero omitted, Abs format (unit mm)*
G04 Created by KiCad (PCBNEW 9.0.2) date 2025-08-28 15:12:57*
%MOMM*%
%LPD*%
G01*
G04 APERTURE LIST*
G04 Aperture macros list*
%AMRoundRect*
0 Rectangle with rounded corners*
0 $1 Rounding radius*
0 $2 $3 $4 $5 $6 $7 $8 $9 X,Y pos of 4 corners*
0 Add a 4 corners polygon primitive as box body*
4,1,4,$2,$3,$4,$5,$6,$7,$8,$9,$2,$3,0*
0 Add four circle primitives for the rounded corners*
1,1,$1+$1,$2,$3*
1,1,$1+$1,$4,$5*
1,1,$1+$1,$6,$7*
1,1,$1+$1,$8,$9*
0 Add four rect primitives between the rounded corners*
20,1,$1+$1,$2,$3,$4,$5,0*
20,1,$1+$1,$4,$5,$6,$7,0*
20,1,$1+$1,$6,$7,$8,$9,0*
20,1,$1+$1,$8,$9,$2,$3,0*%
G04 Aperture macros list end*
%ADD10C,2.500000*%
%ADD11C,2.600000*%
%ADD12R,1.000000X1.000000*%
%ADD13C,1.000000*%
%ADD14C,3.200000*%
%ADD15R,0.900000X2.000000*%
%ADD16RoundRect,1.025000X-1.025000X-1.025000X1.025000X-1.025000X1.025000X1.025000X-1.025000X1.025000X0*%
%ADD17C,4.100000*%
%ADD18RoundRect,0.250000X-0.350000X-0.625000X0.350000X-0.625000X0.350000X0.625000X-0.350000X0.625000X0*%
%ADD19O,1.200000X1.750000*%
%ADD20C,0.990600*%
G04 APERTURE END LIST*
D10*
%TO.C,H5*%
X157734344Y-30227904D03*
%TD*%
D11*
%TO.C,L1*%
X149636184Y-69343905D03*
X154636184Y-69343905D03*
%TD*%
D12*
%TO.C,J8*%
X115280788Y-74042904D03*
D13*
X116550784Y-74042904D03*
%TD*%
D14*
%TO.C,H2*%
X171059184Y-29592904D03*
%TD*%
D10*
%TO.C,H7*%
X127254183Y-30227904D03*
%TD*%
D15*
%TO.C,J1*%
X100945184Y-36772904D03*
X114445184Y-36772904D03*
D16*
X104095184Y-42772904D03*
D17*
X111295184Y-42772904D03*
%TD*%
D18*
%TO.C,J7*%
X112559183Y-78196904D03*
D19*
X114559184Y-78196904D03*
%TD*%
D14*
%TO.C,H3*%
X91059183Y-80000000D03*
%TD*%
D18*
%TO.C,J6*%
X120559183Y-78196904D03*
D19*
X122559184Y-78196904D03*
%TD*%
D20*
%TO.C,J2*%
X92753184Y-41248904D03*
X91737184Y-36168904D03*
X93769184Y-36168904D03*
%TD*%
D18*
%TO.C,J5*%
X128559183Y-78196904D03*
D19*
X130559184Y-78196904D03*
X132559183Y-78196904D03*
X134559183Y-78196904D03*
%TD*%
D14*
%TO.C,H4*%
X171059184Y-80000000D03*
%TD*%
D18*
%TO.C,J10*%
X98059183Y-78196904D03*
D19*
X100059184Y-78196904D03*
X102059183Y-78196904D03*
X104059183Y-78196904D03*
X106059183Y-78196904D03*
%TD*%
D14*
%TO.C,H1*%
X91059183Y-29592904D03*
%TD*%
D18*
%TO.C,J4*%
X140559183Y-78196904D03*
D19*
X142559184Y-78196904D03*
X144559183Y-78196904D03*
X146559183Y-78196904D03*
%TD*%
D18*
%TO.C,J3*%
X154059184Y-78196904D03*
D19*
X156059185Y-78196904D03*
X158059184Y-78196904D03*
X160059184Y-78196904D03*
X162059184Y-78196904D03*
X164059184Y-78196904D03*
%TD*%
D10*
%TO.C,H6*%
X142494344Y-30227904D03*
%TD*%
M02*
