%TF.GenerationSoftware,KiCad,Pcbnew,9.0.2*%
%TF.CreationDate,2025-08-28T15:12:57+09:00*%
%TF.ProjectId,BLDC_Contr,424c4443-5f43-46f6-9e74-722e6b696361,rev?*%
%TF.SameCoordinates,Original*%
%TF.FileFunction,Paste,Top*%
%TF.FilePolarity,Positive*%
%FSLAX46Y46*%
G04 Gerber Fmt 4.6, Leading zero omitted, Abs format (unit mm)*
G04 Created by KiCad (PCBNEW 9.0.2) date 2025-08-28 15:12:57*
%MOMM*%
%LPD*%
G01*
G04 APERTURE LIST*
G04 Aperture macros list*
%AMRoundRect*
0 Rectangle with rounded corners*
0 $1 Rounding radius*
0 $2 $3 $4 $5 $6 $7 $8 $9 X,Y pos of 4 corners*
0 Add a 4 corners polygon primitive as box body*
4,1,4,$2,$3,$4,$5,$6,$7,$8,$9,$2,$3,0*
0 Add four circle primitives for the rounded corners*
1,1,$1+$1,$2,$3*
1,1,$1+$1,$4,$5*
1,1,$1+$1,$6,$7*
1,1,$1+$1,$8,$9*
0 Add four rect primitives between the rounded corners*
20,1,$1+$1,$2,$3,$4,$5,0*
20,1,$1+$1,$4,$5,$6,$7,0*
20,1,$1+$1,$6,$7,$8,$9,0*
20,1,$1+$1,$8,$9,$2,$3,0*%
%AMRotRect*
0 Rectangle, with rotation*
0 The origin of the aperture is its center*
0 $1 length*
0 $2 width*
0 $3 Rotation angle, in degrees counterclockwise*
0 Add horizontal line*
21,1,$1,$2,0,0,$3*%
G04 Aperture macros list end*
%ADD10C,0.000000*%
%ADD11RoundRect,0.140000X0.170000X-0.140000X0.170000X0.140000X-0.170000X0.140000X-0.170000X-0.140000X0*%
%ADD12RoundRect,0.135000X-0.135000X-0.185000X0.135000X-0.185000X0.135000X0.185000X-0.135000X0.185000X0*%
%ADD13RoundRect,0.140000X-0.170000X0.140000X-0.170000X-0.140000X0.170000X-0.140000X0.170000X0.140000X0*%
%ADD14RoundRect,0.135000X0.226274X0.035355X0.035355X0.226274X-0.226274X-0.035355X-0.035355X-0.226274X0*%
%ADD15R,1.000000X0.900000*%
%ADD16RoundRect,0.135000X-0.226274X-0.035355X-0.035355X-0.226274X0.226274X0.035355X0.035355X0.226274X0*%
%ADD17RoundRect,0.135000X-0.185000X0.135000X-0.185000X-0.135000X0.185000X-0.135000X0.185000X0.135000X0*%
%ADD18RotRect,0.249999X0.599999X315.000000*%
%ADD19RotRect,0.249999X0.599999X225.000000*%
%ADD20RoundRect,0.375000X0.375000X-0.375000X0.375000X0.375000X-0.375000X0.375000X-0.375000X-0.375000X0*%
%ADD21RoundRect,0.125000X0.125000X-0.250000X0.125000X0.250000X-0.125000X0.250000X-0.125000X-0.250000X0*%
%ADD22RoundRect,0.100000X0.100000X-0.275000X0.100000X0.275000X-0.100000X0.275000X-0.100000X-0.275000X0*%
%ADD23RoundRect,0.100000X-0.100000X0.155000X-0.100000X-0.155000X0.100000X-0.155000X0.100000X0.155000X0*%
%ADD24RoundRect,0.250000X-0.262500X-0.450000X0.262500X-0.450000X0.262500X0.450000X-0.262500X0.450000X0*%
%ADD25RoundRect,0.140000X-0.140000X-0.170000X0.140000X-0.170000X0.140000X0.170000X-0.140000X0.170000X0*%
%ADD26RoundRect,0.140000X0.140000X0.170000X-0.140000X0.170000X-0.140000X-0.170000X0.140000X-0.170000X0*%
%ADD27RoundRect,0.140000X0.219203X0.021213X0.021213X0.219203X-0.219203X-0.021213X-0.021213X-0.219203X0*%
%ADD28RoundRect,0.225000X0.250000X-0.225000X0.250000X0.225000X-0.250000X0.225000X-0.250000X-0.225000X0*%
%ADD29RoundRect,0.250000X-1.425000X0.362500X-1.425000X-0.362500X1.425000X-0.362500X1.425000X0.362500X0*%
%ADD30RoundRect,0.075000X0.275000X-0.390000X0.275000X0.390000X-0.275000X0.390000X-0.275000X-0.390000X0*%
%ADD31RoundRect,0.075000X0.275000X-0.075000X0.275000X0.075000X-0.275000X0.075000X-0.275000X-0.075000X0*%
%ADD32RoundRect,0.250000X-1.045000X0.785000X-1.045000X-0.785000X1.045000X-0.785000X1.045000X0.785000X0*%
%ADD33RoundRect,0.250000X0.785000X1.045000X-0.785000X1.045000X-0.785000X-1.045000X0.785000X-1.045000X0*%
%ADD34RoundRect,0.375000X-0.375000X0.375000X-0.375000X-0.375000X0.375000X-0.375000X0.375000X0.375000X0*%
%ADD35RoundRect,0.125000X-0.125000X0.250000X-0.125000X-0.250000X0.125000X-0.250000X0.125000X0.250000X0*%
%ADD36RoundRect,0.100000X-0.100000X0.275000X-0.100000X-0.275000X0.100000X-0.275000X0.100000X0.275000X0*%
%ADD37RoundRect,0.225000X-0.335876X-0.017678X-0.017678X-0.335876X0.335876X0.017678X0.017678X0.335876X0*%
%ADD38RoundRect,0.140000X0.021213X-0.219203X0.219203X-0.021213X-0.021213X0.219203X-0.219203X0.021213X0*%
%ADD39RoundRect,0.079500X0.079500X0.100500X-0.079500X0.100500X-0.079500X-0.100500X0.079500X-0.100500X0*%
%ADD40RoundRect,0.140000X-0.021213X0.219203X-0.219203X0.021213X0.021213X-0.219203X0.219203X-0.021213X0*%
%ADD41RoundRect,0.250000X-0.325000X-1.100000X0.325000X-1.100000X0.325000X1.100000X-0.325000X1.100000X0*%
%ADD42RoundRect,0.375000X-0.625000X-0.375000X0.625000X-0.375000X0.625000X0.375000X-0.625000X0.375000X0*%
%ADD43RoundRect,0.500000X-0.500000X-1.400000X0.500000X-1.400000X0.500000X1.400000X-0.500000X1.400000X0*%
%ADD44RoundRect,0.225000X0.375000X-0.225000X0.375000X0.225000X-0.375000X0.225000X-0.375000X-0.225000X0*%
%ADD45RoundRect,0.135000X0.135000X0.185000X-0.135000X0.185000X-0.135000X-0.185000X0.135000X-0.185000X0*%
%ADD46RoundRect,0.218750X-0.256250X0.218750X-0.256250X-0.218750X0.256250X-0.218750X0.256250X0.218750X0*%
%ADD47RoundRect,0.250000X0.353553X0.000000X0.000000X0.353553X-0.353553X0.000000X0.000000X-0.353553X0*%
%ADD48RoundRect,0.062500X0.309359X-0.220971X-0.220971X0.309359X-0.309359X0.220971X0.220971X-0.309359X0*%
%ADD49RoundRect,0.062500X0.309359X0.220971X0.220971X0.309359X-0.309359X-0.220971X-0.220971X-0.309359X0*%
%ADD50RoundRect,0.150000X-0.825000X-0.150000X0.825000X-0.150000X0.825000X0.150000X-0.825000X0.150000X0*%
%ADD51RoundRect,0.150000X0.150000X-0.587500X0.150000X0.587500X-0.150000X0.587500X-0.150000X-0.587500X0*%
%ADD52RoundRect,0.140000X-0.219203X-0.021213X-0.021213X-0.219203X0.219203X0.021213X0.021213X0.219203X0*%
G04 APERTURE END LIST*
D10*
%TO.C,U2*%
G36*
X127381602Y-62766067D02*
G01*
X127390550Y-62768782D01*
X127398802Y-62773190D01*
X127406027Y-62779123D01*
X128088102Y-63461197D01*
X128094037Y-63468428D01*
X128098445Y-63476675D01*
X128101160Y-63485622D01*
X128102074Y-63494928D01*
X128101159Y-63504235D01*
X128098444Y-63513182D01*
X128094041Y-63521428D01*
X128088104Y-63528655D01*
X127406028Y-64210731D01*
X127398803Y-64216668D01*
X127390561Y-64221076D01*
X127381611Y-64223792D01*
X127372304Y-64224701D01*
X127362992Y-64223787D01*
X127354045Y-64221071D01*
X127345799Y-64216666D01*
X127338569Y-64210736D01*
X126656492Y-63528659D01*
X126650563Y-63521425D01*
X126646157Y-63513182D01*
X126643437Y-63504236D01*
X126642524Y-63494927D01*
X126643441Y-63485617D01*
X126646152Y-63476675D01*
X126650562Y-63468431D01*
X126656493Y-63461199D01*
X127338570Y-62779122D01*
X127345800Y-62773192D01*
X127354046Y-62768777D01*
X127362989Y-62766065D01*
X127372295Y-62765156D01*
X127381602Y-62766067D01*
G37*
G36*
X128272561Y-63657023D02*
G01*
X128281507Y-63659737D01*
X128289753Y-63664140D01*
X128296979Y-63670078D01*
X128979058Y-64352154D01*
X128984992Y-64359382D01*
X128989402Y-64367629D01*
X128992109Y-64376578D01*
X128993031Y-64385878D01*
X128992110Y-64395189D01*
X128989400Y-64404137D01*
X128984990Y-64412383D01*
X128979059Y-64419607D01*
X128296980Y-65101686D01*
X128289751Y-65107620D01*
X128281507Y-65112027D01*
X128272562Y-65114748D01*
X128263250Y-65115655D01*
X128253951Y-65114743D01*
X128245001Y-65112028D01*
X128236754Y-65107618D01*
X128229530Y-65101687D01*
X127547448Y-64419612D01*
X127541518Y-64412385D01*
X127537108Y-64404136D01*
X127534394Y-64395193D01*
X127533474Y-64385885D01*
X127534395Y-64376573D01*
X127537108Y-64367632D01*
X127541515Y-64359387D01*
X127547453Y-64352150D01*
X128229523Y-63670074D01*
X128236753Y-63664144D01*
X128244997Y-63659740D01*
X128253948Y-63657024D01*
X128263253Y-63656107D01*
X128272561Y-63657023D01*
G37*
G36*
X128272560Y-61875115D02*
G01*
X128281507Y-61877829D01*
X128289754Y-61882234D01*
X128296982Y-61888170D01*
X128979058Y-62570249D01*
X128984990Y-62577474D01*
X128989398Y-62585720D01*
X128992114Y-62594666D01*
X128993024Y-62603970D01*
X128992112Y-62613280D01*
X128989400Y-62622227D01*
X128984992Y-62630474D01*
X128979059Y-62637702D01*
X128296978Y-63319775D01*
X128289756Y-63325712D01*
X128281507Y-63330119D01*
X128272560Y-63332833D01*
X128263253Y-63333749D01*
X128253950Y-63332832D01*
X128244997Y-63330118D01*
X128236752Y-63325706D01*
X128229522Y-63319780D01*
X127547452Y-62637698D01*
X127541516Y-62630478D01*
X127537103Y-62622230D01*
X127534399Y-62613284D01*
X127533480Y-62603976D01*
X127534392Y-62594670D01*
X127537109Y-62585719D01*
X127541518Y-62577473D01*
X127547448Y-62570245D01*
X128229522Y-61888169D01*
X128236753Y-61882236D01*
X128245000Y-61877829D01*
X128253944Y-61875117D01*
X128263250Y-61874202D01*
X128272560Y-61875115D01*
G37*
G36*
X129163516Y-60984162D02*
G01*
X129172457Y-60986875D01*
X129180702Y-60991282D01*
X129187939Y-60997220D01*
X129870015Y-61679290D01*
X129875945Y-61686520D01*
X129880349Y-61694764D01*
X129883065Y-61703715D01*
X129883982Y-61713020D01*
X129883066Y-61722328D01*
X129880352Y-61731274D01*
X129875949Y-61739520D01*
X129870011Y-61746746D01*
X129187935Y-62428825D01*
X129180707Y-62434759D01*
X129172460Y-62439169D01*
X129163511Y-62441876D01*
X129154211Y-62442798D01*
X129144900Y-62441877D01*
X129135952Y-62439167D01*
X129127706Y-62434757D01*
X129120482Y-62428826D01*
X128438403Y-61746747D01*
X128432469Y-61739518D01*
X128428062Y-61731274D01*
X128425341Y-61722329D01*
X128424434Y-61713017D01*
X128425346Y-61703718D01*
X128428061Y-61694768D01*
X128432471Y-61686521D01*
X128438402Y-61679297D01*
X129120477Y-60997215D01*
X129127704Y-60991285D01*
X129135953Y-60986875D01*
X129144896Y-60984161D01*
X129154204Y-60983241D01*
X129163516Y-60984162D01*
G37*
G36*
X129163513Y-64547977D02*
G01*
X129172460Y-64550689D01*
X129180707Y-64555097D01*
X129187935Y-64561030D01*
X129870008Y-65243111D01*
X129875945Y-65250333D01*
X129880352Y-65258582D01*
X129883066Y-65267529D01*
X129883982Y-65276836D01*
X129883065Y-65286139D01*
X129880351Y-65295092D01*
X129875939Y-65303337D01*
X129870013Y-65310567D01*
X129187931Y-65992637D01*
X129180711Y-65998573D01*
X129172463Y-66002986D01*
X129163517Y-66005690D01*
X129154209Y-66006609D01*
X129144903Y-66005697D01*
X129135952Y-66002980D01*
X129127706Y-65998571D01*
X129120478Y-65992641D01*
X128438402Y-65310567D01*
X128432469Y-65303336D01*
X128428062Y-65295089D01*
X128425350Y-65286145D01*
X128424435Y-65276839D01*
X128425348Y-65267529D01*
X128428062Y-65258582D01*
X128432467Y-65250335D01*
X128438403Y-65243107D01*
X129120482Y-64561031D01*
X129127707Y-64555099D01*
X129135953Y-64550691D01*
X129144899Y-64547975D01*
X129154203Y-64547065D01*
X129163513Y-64547977D01*
G37*
G36*
X129163517Y-62766066D02*
G01*
X129172463Y-62768779D01*
X129180707Y-62773190D01*
X129187937Y-62779124D01*
X129870013Y-63461197D01*
X129875946Y-63468427D01*
X129880357Y-63476679D01*
X129883071Y-63485617D01*
X129883986Y-63494928D01*
X129883065Y-63504236D01*
X129880354Y-63513181D01*
X129875946Y-63521429D01*
X129870009Y-63528663D01*
X129187936Y-64210731D01*
X129180710Y-64216666D01*
X129172462Y-64221074D01*
X129163513Y-64223790D01*
X129154205Y-64224707D01*
X129144900Y-64223783D01*
X129135954Y-64221072D01*
X129127708Y-64216665D01*
X129120483Y-64210732D01*
X128438402Y-63528664D01*
X128432469Y-63521434D01*
X128428062Y-63513181D01*
X128425349Y-63504238D01*
X128424433Y-63494928D01*
X128425349Y-63485618D01*
X128428062Y-63476674D01*
X128432475Y-63468431D01*
X128438402Y-63461200D01*
X129120478Y-62779122D01*
X129127708Y-62773190D01*
X129135953Y-62768782D01*
X129144900Y-62766073D01*
X129154206Y-62765149D01*
X129163517Y-62766066D01*
G37*
G36*
X130054471Y-61875116D02*
G01*
X130063415Y-61877829D01*
X130071658Y-61882242D01*
X130078889Y-61888169D01*
X130760967Y-62570245D01*
X130766899Y-62577475D01*
X130771307Y-62585720D01*
X130774016Y-62594667D01*
X130774940Y-62603973D01*
X130774023Y-62613284D01*
X130771310Y-62622230D01*
X130766899Y-62630474D01*
X130760965Y-62637704D01*
X130078892Y-63319780D01*
X130071662Y-63325713D01*
X130063410Y-63330124D01*
X130054472Y-63332838D01*
X130045161Y-63333753D01*
X130035853Y-63332832D01*
X130026908Y-63330121D01*
X130018660Y-63325713D01*
X130011426Y-63319776D01*
X129329358Y-62637703D01*
X129323423Y-62630477D01*
X129319015Y-62622229D01*
X129316299Y-62613280D01*
X129315382Y-62603972D01*
X129316306Y-62594667D01*
X129319017Y-62585721D01*
X129323424Y-62577475D01*
X129329357Y-62570250D01*
X130011425Y-61888169D01*
X130018655Y-61882236D01*
X130026908Y-61877829D01*
X130035851Y-61875116D01*
X130045161Y-61874200D01*
X130054471Y-61875116D01*
G37*
G36*
X130054472Y-60093208D02*
G01*
X130063414Y-60095919D01*
X130071658Y-60100329D01*
X130078890Y-60106260D01*
X130760967Y-60788337D01*
X130766897Y-60795567D01*
X130771312Y-60803813D01*
X130774024Y-60812756D01*
X130774933Y-60822062D01*
X130774022Y-60831369D01*
X130771307Y-60840317D01*
X130766899Y-60848569D01*
X130760966Y-60855794D01*
X130078892Y-61537869D01*
X130071661Y-61543804D01*
X130063414Y-61548212D01*
X130054467Y-61550927D01*
X130045161Y-61551841D01*
X130035854Y-61550926D01*
X130026907Y-61548211D01*
X130018661Y-61543808D01*
X130011434Y-61537871D01*
X129329358Y-60855795D01*
X129323421Y-60848570D01*
X129319013Y-60840328D01*
X129316297Y-60831378D01*
X129315388Y-60822071D01*
X129316302Y-60812759D01*
X129319018Y-60803812D01*
X129323423Y-60795566D01*
X129329353Y-60788336D01*
X130011430Y-60106259D01*
X130018664Y-60100330D01*
X130026907Y-60095924D01*
X130035853Y-60093204D01*
X130045162Y-60092291D01*
X130054472Y-60093208D01*
G37*
G36*
X130054468Y-65438930D02*
G01*
X130063415Y-65441645D01*
X130071661Y-65446048D01*
X130078888Y-65451985D01*
X130760964Y-66134061D01*
X130766901Y-66141286D01*
X130771309Y-66149528D01*
X130774025Y-66158478D01*
X130774934Y-66167785D01*
X130774020Y-66177097D01*
X130771304Y-66186044D01*
X130766899Y-66194290D01*
X130760969Y-66201520D01*
X130078892Y-66883597D01*
X130071658Y-66889526D01*
X130063415Y-66893932D01*
X130054469Y-66896652D01*
X130045160Y-66897565D01*
X130035850Y-66896648D01*
X130026908Y-66893937D01*
X130018664Y-66889527D01*
X130011432Y-66883596D01*
X129329355Y-66201519D01*
X129323425Y-66194289D01*
X129319010Y-66186043D01*
X129316298Y-66177100D01*
X129315389Y-66167794D01*
X129316300Y-66158487D01*
X129319015Y-66149539D01*
X129323423Y-66141287D01*
X129329356Y-66134062D01*
X130011430Y-65451987D01*
X130018661Y-65446052D01*
X130026908Y-65441644D01*
X130035855Y-65438929D01*
X130045161Y-65438015D01*
X130054468Y-65438930D01*
G37*
G36*
X130054469Y-63657024D02*
G01*
X130063414Y-63659735D01*
X130071662Y-63664143D01*
X130078896Y-63670080D01*
X130760964Y-64352153D01*
X130766899Y-64359379D01*
X130771307Y-64367627D01*
X130774023Y-64376576D01*
X130774940Y-64385884D01*
X130774016Y-64395189D01*
X130771305Y-64404135D01*
X130766898Y-64412381D01*
X130760965Y-64419606D01*
X130078897Y-65101687D01*
X130071667Y-65107620D01*
X130063414Y-65112027D01*
X130054471Y-65114740D01*
X130045161Y-65115656D01*
X130035851Y-65114740D01*
X130026907Y-65112027D01*
X130018664Y-65107614D01*
X130011433Y-65101687D01*
X129329355Y-64419611D01*
X129323423Y-64412381D01*
X129319015Y-64404136D01*
X129316306Y-64395189D01*
X129315382Y-64385883D01*
X129316299Y-64376572D01*
X129319012Y-64367626D01*
X129323423Y-64359382D01*
X129329357Y-64352152D01*
X130011430Y-63670076D01*
X130018660Y-63664143D01*
X130026912Y-63659732D01*
X130035850Y-63657018D01*
X130045161Y-63656103D01*
X130054469Y-63657024D01*
G37*
G36*
X130945422Y-62766073D02*
G01*
X130954368Y-62768784D01*
X130962614Y-62773191D01*
X130969839Y-62779124D01*
X131651920Y-63461192D01*
X131657853Y-63468422D01*
X131662260Y-63476675D01*
X131664973Y-63485618D01*
X131665889Y-63494928D01*
X131664973Y-63504238D01*
X131662260Y-63513182D01*
X131657847Y-63521425D01*
X131651920Y-63528656D01*
X130969844Y-64210734D01*
X130962614Y-64216666D01*
X130954369Y-64221074D01*
X130945422Y-64223783D01*
X130936116Y-64224707D01*
X130926805Y-64223790D01*
X130917859Y-64221077D01*
X130909615Y-64216666D01*
X130902385Y-64210732D01*
X130220309Y-63528659D01*
X130214376Y-63521429D01*
X130209965Y-63513177D01*
X130207251Y-63504239D01*
X130206336Y-63494928D01*
X130207257Y-63485620D01*
X130209968Y-63476675D01*
X130214376Y-63468427D01*
X130220313Y-63461193D01*
X130902386Y-62779125D01*
X130909612Y-62773190D01*
X130917860Y-62768782D01*
X130926809Y-62766066D01*
X130936117Y-62765149D01*
X130945422Y-62766073D01*
G37*
G36*
X130945419Y-60984159D02*
G01*
X130954370Y-60986876D01*
X130962616Y-60991285D01*
X130969844Y-60997215D01*
X131651920Y-61679289D01*
X131657853Y-61686520D01*
X131662260Y-61694767D01*
X131664972Y-61703711D01*
X131665887Y-61713017D01*
X131664974Y-61722327D01*
X131662260Y-61731274D01*
X131657855Y-61739521D01*
X131651919Y-61746749D01*
X130969840Y-62428825D01*
X130962615Y-62434757D01*
X130954369Y-62439165D01*
X130945423Y-62441881D01*
X130936119Y-62442791D01*
X130926809Y-62441879D01*
X130917862Y-62439167D01*
X130909615Y-62434759D01*
X130902387Y-62428826D01*
X130220314Y-61746745D01*
X130214377Y-61739523D01*
X130209970Y-61731274D01*
X130207256Y-61722327D01*
X130206340Y-61713020D01*
X130207257Y-61703717D01*
X130209971Y-61694764D01*
X130214383Y-61686519D01*
X130220309Y-61679289D01*
X130902391Y-60997219D01*
X130909611Y-60991283D01*
X130917859Y-60986870D01*
X130926805Y-60984166D01*
X130936113Y-60983247D01*
X130945419Y-60984159D01*
G37*
G36*
X130945422Y-64547979D02*
G01*
X130954370Y-64550689D01*
X130962616Y-64555099D01*
X130969840Y-64561030D01*
X131651919Y-65243109D01*
X131657853Y-65250338D01*
X131662260Y-65258582D01*
X131664981Y-65267527D01*
X131665888Y-65276839D01*
X131664976Y-65286138D01*
X131662261Y-65295088D01*
X131657851Y-65303335D01*
X131651920Y-65310559D01*
X130969845Y-65992641D01*
X130962618Y-65998571D01*
X130954369Y-66002981D01*
X130945426Y-66005695D01*
X130936118Y-66006615D01*
X130926806Y-66005694D01*
X130917865Y-66002981D01*
X130909620Y-65998574D01*
X130902383Y-65992636D01*
X130220307Y-65310566D01*
X130214377Y-65303336D01*
X130209973Y-65295092D01*
X130207257Y-65286141D01*
X130206340Y-65276836D01*
X130207256Y-65267528D01*
X130209970Y-65258582D01*
X130214373Y-65250336D01*
X130220311Y-65243110D01*
X130902387Y-64561031D01*
X130909615Y-64555097D01*
X130917862Y-64550687D01*
X130926811Y-64547980D01*
X130936111Y-64547058D01*
X130945422Y-64547979D01*
G37*
G36*
X131836372Y-63657024D02*
G01*
X131845325Y-63659738D01*
X131853570Y-63664150D01*
X131860800Y-63670076D01*
X132542870Y-64352158D01*
X132548806Y-64359378D01*
X132553219Y-64367626D01*
X132555923Y-64376572D01*
X132556842Y-64385880D01*
X132555930Y-64395186D01*
X132553213Y-64404137D01*
X132548804Y-64412383D01*
X132542874Y-64419611D01*
X131860800Y-65101687D01*
X131853569Y-65107620D01*
X131845322Y-65112027D01*
X131836378Y-65114739D01*
X131827072Y-65115654D01*
X131817762Y-65114741D01*
X131808815Y-65112027D01*
X131800568Y-65107622D01*
X131793340Y-65101686D01*
X131111264Y-64419607D01*
X131105332Y-64412382D01*
X131100924Y-64404136D01*
X131098208Y-64395190D01*
X131097298Y-64385886D01*
X131098210Y-64376576D01*
X131100922Y-64367629D01*
X131105330Y-64359382D01*
X131111263Y-64352154D01*
X131793344Y-63670081D01*
X131800566Y-63664144D01*
X131808815Y-63659737D01*
X131817762Y-63657023D01*
X131827069Y-63656107D01*
X131836372Y-63657024D01*
G37*
G36*
X131836371Y-61875113D02*
G01*
X131845321Y-61877828D01*
X131853568Y-61882238D01*
X131860792Y-61888169D01*
X132542874Y-62570244D01*
X132548804Y-62577471D01*
X132553214Y-62585720D01*
X132555928Y-62594663D01*
X132556848Y-62603971D01*
X132555927Y-62613283D01*
X132553214Y-62622224D01*
X132548807Y-62630469D01*
X132542869Y-62637706D01*
X131860799Y-63319782D01*
X131853569Y-63325712D01*
X131845325Y-63330116D01*
X131836374Y-63332832D01*
X131827069Y-63333749D01*
X131817761Y-63332833D01*
X131808815Y-63330119D01*
X131800569Y-63325716D01*
X131793343Y-63319778D01*
X131111264Y-62637702D01*
X131105330Y-62630474D01*
X131100920Y-62622227D01*
X131098213Y-62613278D01*
X131097291Y-62603978D01*
X131098212Y-62594667D01*
X131100922Y-62585719D01*
X131105332Y-62577473D01*
X131111263Y-62570249D01*
X131793342Y-61888170D01*
X131800571Y-61882236D01*
X131808815Y-61877829D01*
X131817760Y-61875108D01*
X131827072Y-61874201D01*
X131836371Y-61875113D01*
G37*
G36*
X132727330Y-62766069D02*
G01*
X132736277Y-62768785D01*
X132744523Y-62773190D01*
X132751753Y-62779120D01*
X133433830Y-63461197D01*
X133439759Y-63468431D01*
X133444165Y-63476674D01*
X133446885Y-63485620D01*
X133447798Y-63494929D01*
X133446881Y-63504239D01*
X133444170Y-63513181D01*
X133439760Y-63521425D01*
X133433829Y-63528657D01*
X132751752Y-64210734D01*
X132744522Y-64216664D01*
X132736276Y-64221079D01*
X132727333Y-64223791D01*
X132718027Y-64224700D01*
X132708720Y-64223789D01*
X132699772Y-64221074D01*
X132691520Y-64216666D01*
X132684295Y-64210733D01*
X132002220Y-63528659D01*
X131996285Y-63521428D01*
X131991877Y-63513181D01*
X131989162Y-63504234D01*
X131988248Y-63494928D01*
X131989163Y-63485621D01*
X131991878Y-63476674D01*
X131996281Y-63468428D01*
X132002218Y-63461201D01*
X132684294Y-62779125D01*
X132691519Y-62773188D01*
X132699761Y-62768780D01*
X132708711Y-62766064D01*
X132718018Y-62765155D01*
X132727330Y-62766069D01*
G37*
%TD*%
D11*
%TO.C,C12*%
X114427184Y-65632905D03*
X114427184Y-64672905D03*
%TD*%
D12*
%TO.C,R4*%
X94783185Y-67565904D03*
X95803183Y-67565904D03*
%TD*%
D13*
%TO.C,C1*%
X110236183Y-64136904D03*
X110236183Y-65096904D03*
%TD*%
D14*
%TO.C,R15*%
X99169132Y-51835957D03*
X98447884Y-51114709D03*
%TD*%
D15*
%TO.C,Y1*%
X115941184Y-65686904D03*
X118091184Y-65686904D03*
X118091184Y-64136904D03*
X115941184Y-64136904D03*
%TD*%
D16*
%TO.C,R13*%
X100243936Y-49318656D03*
X100965184Y-50039904D03*
%TD*%
D17*
%TO.C,R1*%
X92753184Y-44451905D03*
X92753184Y-45471903D03*
%TD*%
D18*
%TO.C,U2*%
X134393868Y-63035309D03*
X134040317Y-62681754D03*
X133686765Y-62328209D03*
X133333210Y-61974645D03*
X132979656Y-61621100D03*
X132626101Y-61267541D03*
X132272549Y-60913987D03*
X131918997Y-60560435D03*
X131565439Y-60206883D03*
X131211889Y-59853332D03*
X130858334Y-59499773D03*
X130504781Y-59146219D03*
D19*
X129585542Y-59146221D03*
X129231987Y-59499772D03*
X128878442Y-59853324D03*
X128524878Y-60206879D03*
X128171333Y-60560433D03*
X127817774Y-60913988D03*
X127464220Y-61267540D03*
X127110668Y-61621092D03*
X126757116Y-61974650D03*
X126403565Y-62328200D03*
X126050006Y-62681755D03*
X125696452Y-63035308D03*
D18*
X125696454Y-63954547D03*
X126050005Y-64308102D03*
X126403565Y-64661654D03*
X126757112Y-65015211D03*
X127110669Y-65368766D03*
X127464221Y-65722315D03*
X127817773Y-66075869D03*
X128171330Y-66429420D03*
X128524883Y-66782973D03*
X128878436Y-67136530D03*
X129231988Y-67490083D03*
X129585541Y-67843637D03*
D19*
X130504780Y-67843635D03*
X130858335Y-67490084D03*
X131211887Y-67136524D03*
X131565444Y-66782977D03*
X131918999Y-66429420D03*
X132272548Y-66075868D03*
X132626102Y-65722316D03*
X132979653Y-65368759D03*
X133333206Y-65015206D03*
X133686763Y-64661653D03*
X134040316Y-64308101D03*
X134393870Y-63954548D03*
%TD*%
D20*
%TO.C,Q5*%
X121695182Y-38856062D03*
X123395181Y-38856060D03*
X121695182Y-37156058D03*
X123395184Y-37156058D03*
D21*
X124450184Y-35751061D03*
X120640184Y-35751058D03*
X121910183Y-35751058D03*
X123180183Y-35751058D03*
D22*
X120640186Y-41556057D03*
X121910185Y-41556059D03*
X123180183Y-41556060D03*
X124450183Y-41556061D03*
%TD*%
D23*
%TO.C,D12*%
X103683186Y-75332903D03*
X104683186Y-75332903D03*
X104183186Y-74042904D03*
%TD*%
D11*
%TO.C,C25*%
X144094685Y-75312905D03*
X144094685Y-74352905D03*
%TD*%
%TO.C,C7*%
X108204184Y-49150904D03*
X108204184Y-48190904D03*
%TD*%
D24*
%TO.C,R9*%
X140458184Y-59653671D03*
X142283184Y-59653671D03*
%TD*%
D25*
%TO.C,C20*%
X142118184Y-69216904D03*
X143078184Y-69216904D03*
%TD*%
D26*
%TO.C,C10*%
X160754184Y-59818904D03*
X159794184Y-59818904D03*
%TD*%
D27*
%TO.C,C14*%
X134832595Y-59396315D03*
X134153773Y-58717493D03*
%TD*%
D11*
%TO.C,C27*%
X105791184Y-72199904D03*
X105791184Y-71239904D03*
%TD*%
D28*
%TO.C,C6*%
X103759184Y-49189907D03*
X103759184Y-47639907D03*
%TD*%
D13*
%TO.C,C4*%
X108956184Y-64136904D03*
X108956184Y-65096904D03*
%TD*%
D29*
%TO.C,R11*%
X146802184Y-44563558D03*
X146802184Y-50488558D03*
%TD*%
D30*
%TO.C,D6*%
X153531183Y-75392904D03*
D31*
X153531183Y-74507905D03*
%TD*%
D16*
%TO.C,R16*%
X97549857Y-52012735D03*
X98271105Y-52733983D03*
%TD*%
D32*
%TO.C,C35*%
X164582184Y-44426058D03*
X164582184Y-50666058D03*
%TD*%
D33*
%TO.C,C21*%
X152735451Y-62213137D03*
X146495451Y-62213137D03*
%TD*%
D34*
%TO.C,Q6*%
X131015185Y-38482904D03*
X129315185Y-38482905D03*
X129315182Y-40182907D03*
X131015185Y-40182909D03*
D35*
X128260182Y-41587904D03*
X132070182Y-41587907D03*
X130800183Y-41587907D03*
X129530183Y-41587907D03*
D36*
X132070180Y-35782908D03*
X130800183Y-35782906D03*
X129530184Y-35782907D03*
X128260183Y-35782904D03*
%TD*%
D37*
%TO.C,C16*%
X135088175Y-60880307D03*
X136184191Y-61976323D03*
%TD*%
D13*
%TO.C,C11*%
X119634184Y-64136904D03*
X119634184Y-65096904D03*
%TD*%
D38*
%TO.C,C3*%
X110277773Y-51690904D03*
X110956595Y-51012082D03*
%TD*%
D12*
%TO.C,R5*%
X94783185Y-71375904D03*
X95803183Y-71375904D03*
%TD*%
D39*
%TO.C,D2*%
X92971184Y-67565904D03*
X92281184Y-67565904D03*
%TD*%
D30*
%TO.C,D8*%
X141224184Y-75257904D03*
D31*
X141224184Y-74372905D03*
%TD*%
D32*
%TO.C,C30*%
X126023185Y-44426058D03*
X126023185Y-50666058D03*
%TD*%
D29*
%TO.C,R12*%
X120513184Y-44537405D03*
X120513184Y-50462405D03*
%TD*%
D40*
%TO.C,C2*%
X103453595Y-55796493D03*
X102774773Y-56475315D03*
%TD*%
D23*
%TO.C,D4*%
X162865184Y-75631402D03*
X163865184Y-75631402D03*
X163365184Y-74341403D03*
%TD*%
D39*
%TO.C,D1*%
X92971184Y-63755902D03*
X92281184Y-63755902D03*
%TD*%
D14*
%TO.C,R6*%
X125392212Y-71265934D03*
X124670964Y-70544686D03*
%TD*%
D11*
%TO.C,C24*%
X156464183Y-75439904D03*
X156464183Y-74479904D03*
%TD*%
D12*
%TO.C,R3*%
X94783184Y-63755904D03*
X95803182Y-63755904D03*
%TD*%
D32*
%TO.C,C34*%
X159453182Y-44426058D03*
X159453182Y-50666058D03*
%TD*%
D27*
%TO.C,C13*%
X128905184Y-69175315D03*
X128226362Y-68496493D03*
%TD*%
D41*
%TO.C,C19*%
X140871682Y-66267905D03*
X143821684Y-66267905D03*
%TD*%
D17*
%TO.C,R22*%
X104384184Y-64451906D03*
X104384184Y-65471904D03*
%TD*%
D27*
%TO.C,C15*%
X135721595Y-58507315D03*
X135042773Y-57828493D03*
%TD*%
D13*
%TO.C,C28*%
X113157183Y-74550904D03*
X113157183Y-75510904D03*
%TD*%
D11*
%TO.C,C29*%
X97927182Y-75157904D03*
X97927182Y-74197904D03*
%TD*%
D30*
%TO.C,D10*%
X130175183Y-75257904D03*
D31*
X130175183Y-74372905D03*
%TD*%
D32*
%TO.C,C31*%
X131103185Y-44426057D03*
X131103185Y-50666057D03*
%TD*%
D17*
%TO.C,R17*%
X99431183Y-64451906D03*
X99431183Y-65471904D03*
%TD*%
D30*
%TO.C,D13*%
X99695183Y-75181903D03*
D31*
X99695183Y-74296904D03*
%TD*%
D20*
%TO.C,Q1*%
X153953183Y-38830905D03*
X155653182Y-38830903D03*
X153953183Y-37130901D03*
X155653185Y-37130901D03*
D21*
X156708185Y-35725904D03*
X152898185Y-35725901D03*
X154168184Y-35725901D03*
X155438184Y-35725901D03*
D22*
X152898187Y-41530900D03*
X154168186Y-41530902D03*
X155438184Y-41530903D03*
X156708184Y-41530904D03*
%TD*%
D42*
%TO.C,U3*%
X158500684Y-61836904D03*
X158500685Y-64136904D03*
D43*
X164800683Y-64136904D03*
D42*
X158500684Y-66436904D03*
%TD*%
D23*
%TO.C,D9*%
X133223183Y-75635404D03*
X134223183Y-75635404D03*
X133723183Y-74345405D03*
%TD*%
D33*
%TO.C,C22*%
X152716184Y-57151904D03*
X146476184Y-57151904D03*
%TD*%
D11*
%TO.C,C26*%
X128016183Y-75312905D03*
X128016183Y-74352905D03*
%TD*%
D14*
%TO.C,R14*%
X100067158Y-50937932D03*
X99345910Y-50216684D03*
%TD*%
D17*
%TO.C,R2*%
X92753184Y-46864905D03*
X92753184Y-47884903D03*
%TD*%
D32*
%TO.C,C32*%
X136642184Y-44426058D03*
X136642184Y-50666058D03*
%TD*%
D34*
%TO.C,Q2*%
X163273189Y-38552899D03*
X161573189Y-38552902D03*
X161573186Y-40252904D03*
X163273189Y-40252906D03*
D35*
X160518186Y-41657901D03*
X164328186Y-41657904D03*
X163058187Y-41657904D03*
X161788187Y-41657904D03*
D36*
X164328184Y-35852905D03*
X163058186Y-35852901D03*
X161788190Y-35852902D03*
X160518187Y-35852901D03*
%TD*%
D41*
%TO.C,C18*%
X140871682Y-62457905D03*
X143821684Y-62457905D03*
%TD*%
D34*
%TO.C,Q4*%
X136935185Y-38456055D03*
X138635184Y-38456058D03*
X138635185Y-40156059D03*
X136935183Y-40156059D03*
D35*
X135880182Y-41561054D03*
X139690182Y-41561057D03*
X138420183Y-41561057D03*
X137150183Y-41561057D03*
D36*
X139690181Y-35756058D03*
X138420182Y-35756054D03*
X137150186Y-35756055D03*
X135880183Y-35756054D03*
%TD*%
D17*
%TO.C,R19*%
X114554184Y-69685905D03*
X114554184Y-70705903D03*
%TD*%
D44*
%TO.C,D19*%
X146410683Y-69061904D03*
X146410683Y-65761904D03*
%TD*%
D11*
%TO.C,C5*%
X106934184Y-49150905D03*
X106934184Y-48190905D03*
%TD*%
D17*
%TO.C,R21*%
X102733184Y-64451906D03*
X102733184Y-65471904D03*
%TD*%
D45*
%TO.C,R8*%
X141880683Y-57621671D03*
X140860685Y-57621671D03*
%TD*%
D29*
%TO.C,R10*%
X152517183Y-44512004D03*
X152517183Y-50437004D03*
%TD*%
D46*
%TO.C,FB1*%
X105410184Y-47627406D03*
X105410184Y-49202408D03*
%TD*%
D17*
%TO.C,R20*%
X118491183Y-72772904D03*
X118491183Y-73792902D03*
%TD*%
D47*
%TO.C,U1*%
X110668403Y-58445074D03*
X108844069Y-60269407D03*
X111580569Y-57532905D03*
X109756232Y-59357233D03*
X108844069Y-58445073D03*
X107931900Y-59357241D03*
X109756235Y-57532905D03*
X110668395Y-56620742D03*
X107019741Y-58445070D03*
X107931901Y-57532907D03*
X109756236Y-55708571D03*
X108844067Y-56620739D03*
X107931904Y-55708579D03*
X106107567Y-57532907D03*
X108844067Y-54796405D03*
X107019733Y-56620738D03*
D48*
X109330202Y-61908131D03*
X109683759Y-61554577D03*
X110037310Y-61201023D03*
X110390866Y-60847467D03*
X110744416Y-60493916D03*
X111097971Y-60140372D03*
X111451529Y-59786807D03*
X111805074Y-59433253D03*
X112158628Y-59079699D03*
X112512184Y-58726147D03*
X112865741Y-58372592D03*
X113219291Y-58019042D03*
D49*
X113219293Y-57046772D03*
X112865739Y-56693215D03*
X112512185Y-56339664D03*
X112158629Y-55986108D03*
X111805078Y-55632558D03*
X111451534Y-55279003D03*
X111097969Y-54925445D03*
X110744415Y-54571900D03*
X110390861Y-54218346D03*
X110037309Y-53864790D03*
X109683754Y-53511233D03*
X109330204Y-53157683D03*
D48*
X108357934Y-53157681D03*
X108004377Y-53511235D03*
X107650826Y-53864789D03*
X107297270Y-54218345D03*
X106943720Y-54571896D03*
X106590165Y-54925440D03*
X106236607Y-55279005D03*
X105883062Y-55632559D03*
X105529508Y-55986113D03*
X105175952Y-56339665D03*
X104822395Y-56693220D03*
X104468845Y-57046770D03*
D49*
X104468843Y-58019040D03*
X104822397Y-58372597D03*
X105175951Y-58726148D03*
X105529507Y-59079704D03*
X105883058Y-59433254D03*
X106236602Y-59786809D03*
X106590167Y-60140367D03*
X106943721Y-60493912D03*
X107297275Y-60847466D03*
X107650827Y-61201022D03*
X108004382Y-61554579D03*
X108357932Y-61908129D03*
%TD*%
D11*
%TO.C,C23*%
X95674184Y-38708904D03*
X95674184Y-37748904D03*
%TD*%
D39*
%TO.C,D3*%
X92971184Y-71375903D03*
X92281184Y-71375903D03*
%TD*%
D23*
%TO.C,D5*%
X159309184Y-75631402D03*
X160309184Y-75631402D03*
X159809184Y-74341403D03*
%TD*%
%TO.C,D7*%
X146684683Y-75648903D03*
X147684683Y-75648903D03*
X147184683Y-74358904D03*
%TD*%
D50*
%TO.C,U4*%
X107689183Y-69687904D03*
X107689183Y-70957904D03*
X107689183Y-72227904D03*
X107689183Y-73497904D03*
X112639183Y-73497904D03*
X112639183Y-72227904D03*
X112639183Y-70957904D03*
X112639183Y-69687904D03*
%TD*%
D14*
%TO.C,R7*%
X126315216Y-70342929D03*
X125593968Y-69621681D03*
%TD*%
D51*
%TO.C,D11*%
X120505186Y-75030400D03*
X122405184Y-75030401D03*
X121455184Y-73155407D03*
%TD*%
D11*
%TO.C,C8*%
X109347184Y-49176906D03*
X109347184Y-48216906D03*
%TD*%
D52*
%TO.C,C17*%
X124592931Y-64863063D03*
X125271753Y-65541885D03*
%TD*%
D20*
%TO.C,Q3*%
X144555181Y-38856063D03*
X146255181Y-38856060D03*
X144555182Y-37156058D03*
X146255184Y-37156058D03*
D21*
X147310184Y-35751061D03*
X143500184Y-35751058D03*
X144770183Y-35751058D03*
X146040183Y-35751058D03*
D22*
X143500186Y-41556057D03*
X144770184Y-41556061D03*
X146040180Y-41556060D03*
X147310183Y-41556061D03*
%TD*%
D32*
%TO.C,C33*%
X141722184Y-44426057D03*
X141722184Y-50666057D03*
%TD*%
D17*
%TO.C,R18*%
X101082184Y-64451905D03*
X101082184Y-65471903D03*
%TD*%
D25*
%TO.C,C9*%
X159286184Y-68454905D03*
X160246184Y-68454905D03*
%TD*%
M02*
