%TF.GenerationSoftware,KiCad,Pcbnew,9.0.2*%
%TF.CreationDate,2025-08-28T15:12:57+09:00*%
%TF.ProjectId,BLDC_Contr,424c4443-5f43-46f6-9e74-722e6b696361,rev?*%
%TF.SameCoordinates,Original*%
%TF.FileFunction,Legend,Top*%
%TF.FilePolarity,Positive*%
%FSLAX46Y46*%
G04 Gerber Fmt 4.6, Leading zero omitted, Abs format (unit mm)*
G04 Created by KiCad (PCBNEW 9.0.2) date 2025-08-28 15:12:57*
%MOMM*%
%LPD*%
G01*
G04 APERTURE LIST*
%ADD10C,0.150000*%
%ADD11C,0.120000*%
%ADD12C,0.200000*%
%ADD13C,0.100000*%
G04 APERTURE END LIST*
D10*
X113784325Y-67798484D02*
X113736706Y-67846104D01*
X113736706Y-67846104D02*
X113593849Y-67893723D01*
X113593849Y-67893723D02*
X113498611Y-67893723D01*
X113498611Y-67893723D02*
X113355754Y-67846104D01*
X113355754Y-67846104D02*
X113260516Y-67750865D01*
X113260516Y-67750865D02*
X113212897Y-67655627D01*
X113212897Y-67655627D02*
X113165278Y-67465151D01*
X113165278Y-67465151D02*
X113165278Y-67322294D01*
X113165278Y-67322294D02*
X113212897Y-67131818D01*
X113212897Y-67131818D02*
X113260516Y-67036580D01*
X113260516Y-67036580D02*
X113355754Y-66941342D01*
X113355754Y-66941342D02*
X113498611Y-66893723D01*
X113498611Y-66893723D02*
X113593849Y-66893723D01*
X113593849Y-66893723D02*
X113736706Y-66941342D01*
X113736706Y-66941342D02*
X113784325Y-66988961D01*
X114736706Y-67893723D02*
X114165278Y-67893723D01*
X114450992Y-67893723D02*
X114450992Y-66893723D01*
X114450992Y-66893723D02*
X114355754Y-67036580D01*
X114355754Y-67036580D02*
X114260516Y-67131818D01*
X114260516Y-67131818D02*
X114165278Y-67179437D01*
X115117659Y-66988961D02*
X115165278Y-66941342D01*
X115165278Y-66941342D02*
X115260516Y-66893723D01*
X115260516Y-66893723D02*
X115498611Y-66893723D01*
X115498611Y-66893723D02*
X115593849Y-66941342D01*
X115593849Y-66941342D02*
X115641468Y-66988961D01*
X115641468Y-66988961D02*
X115689087Y-67084199D01*
X115689087Y-67084199D02*
X115689087Y-67179437D01*
X115689087Y-67179437D02*
X115641468Y-67322294D01*
X115641468Y-67322294D02*
X115070040Y-67893723D01*
X115070040Y-67893723D02*
X115689087Y-67893723D01*
X95126517Y-66850723D02*
X94793184Y-66374532D01*
X94555089Y-66850723D02*
X94555089Y-65850723D01*
X94555089Y-65850723D02*
X94936041Y-65850723D01*
X94936041Y-65850723D02*
X95031279Y-65898342D01*
X95031279Y-65898342D02*
X95078898Y-65945961D01*
X95078898Y-65945961D02*
X95126517Y-66041199D01*
X95126517Y-66041199D02*
X95126517Y-66184056D01*
X95126517Y-66184056D02*
X95078898Y-66279294D01*
X95078898Y-66279294D02*
X95031279Y-66326913D01*
X95031279Y-66326913D02*
X94936041Y-66374532D01*
X94936041Y-66374532D02*
X94555089Y-66374532D01*
X95983660Y-66184056D02*
X95983660Y-66850723D01*
X95745565Y-65803104D02*
X95507470Y-66517389D01*
X95507470Y-66517389D02*
X96126517Y-66517389D01*
X110849763Y-66589570D02*
X110897383Y-66637189D01*
X110897383Y-66637189D02*
X110945002Y-66780046D01*
X110945002Y-66780046D02*
X110945002Y-66875284D01*
X110945002Y-66875284D02*
X110897383Y-67018141D01*
X110897383Y-67018141D02*
X110802144Y-67113379D01*
X110802144Y-67113379D02*
X110706906Y-67160998D01*
X110706906Y-67160998D02*
X110516430Y-67208617D01*
X110516430Y-67208617D02*
X110373573Y-67208617D01*
X110373573Y-67208617D02*
X110183097Y-67160998D01*
X110183097Y-67160998D02*
X110087859Y-67113379D01*
X110087859Y-67113379D02*
X109992621Y-67018141D01*
X109992621Y-67018141D02*
X109945002Y-66875284D01*
X109945002Y-66875284D02*
X109945002Y-66780046D01*
X109945002Y-66780046D02*
X109992621Y-66637189D01*
X109992621Y-66637189D02*
X110040240Y-66589570D01*
X110945002Y-65637189D02*
X110945002Y-66208617D01*
X110945002Y-65922903D02*
X109945002Y-65922903D01*
X109945002Y-65922903D02*
X110087859Y-66018141D01*
X110087859Y-66018141D02*
X110183097Y-66113379D01*
X110183097Y-66113379D02*
X110230716Y-66208617D01*
X96228518Y-49538554D02*
X96329533Y-48966135D01*
X95824457Y-49134493D02*
X96531564Y-48427387D01*
X96531564Y-48427387D02*
X96800938Y-48696761D01*
X96800938Y-48696761D02*
X96834610Y-48797776D01*
X96834610Y-48797776D02*
X96834610Y-48865119D01*
X96834610Y-48865119D02*
X96800938Y-48966135D01*
X96800938Y-48966135D02*
X96699923Y-49067150D01*
X96699923Y-49067150D02*
X96598907Y-49100822D01*
X96598907Y-49100822D02*
X96531564Y-49100822D01*
X96531564Y-49100822D02*
X96430549Y-49067150D01*
X96430549Y-49067150D02*
X96161175Y-48797776D01*
X96901953Y-50211989D02*
X96497892Y-49807928D01*
X96699923Y-50009959D02*
X97407029Y-49302852D01*
X97407029Y-49302852D02*
X97238671Y-49336524D01*
X97238671Y-49336524D02*
X97103984Y-49336524D01*
X97103984Y-49336524D02*
X97002968Y-49302852D01*
X98248823Y-50144646D02*
X97912106Y-49807928D01*
X97912106Y-49807928D02*
X97541717Y-50110974D01*
X97541717Y-50110974D02*
X97609060Y-50110974D01*
X97609060Y-50110974D02*
X97710075Y-50144646D01*
X97710075Y-50144646D02*
X97878434Y-50313005D01*
X97878434Y-50313005D02*
X97912106Y-50414020D01*
X97912106Y-50414020D02*
X97912106Y-50481364D01*
X97912106Y-50481364D02*
X97878434Y-50582379D01*
X97878434Y-50582379D02*
X97710075Y-50750738D01*
X97710075Y-50750738D02*
X97609060Y-50784409D01*
X97609060Y-50784409D02*
X97541717Y-50784409D01*
X97541717Y-50784409D02*
X97440701Y-50750738D01*
X97440701Y-50750738D02*
X97272343Y-50582379D01*
X97272343Y-50582379D02*
X97238671Y-50481364D01*
X97238671Y-50481364D02*
X97238671Y-50414020D01*
X116539993Y-62591532D02*
X116539993Y-63067723D01*
X116206660Y-62067723D02*
X116539993Y-62591532D01*
X116539993Y-62591532D02*
X116873326Y-62067723D01*
X117730469Y-63067723D02*
X117159041Y-63067723D01*
X117444755Y-63067723D02*
X117444755Y-62067723D01*
X117444755Y-62067723D02*
X117349517Y-62210580D01*
X117349517Y-62210580D02*
X117254279Y-62305818D01*
X117254279Y-62305818D02*
X117159041Y-62353437D01*
X98284009Y-47493940D02*
X98385024Y-46921521D01*
X97879948Y-47089879D02*
X98587055Y-46382773D01*
X98587055Y-46382773D02*
X98856429Y-46652147D01*
X98856429Y-46652147D02*
X98890101Y-46753162D01*
X98890101Y-46753162D02*
X98890101Y-46820505D01*
X98890101Y-46820505D02*
X98856429Y-46921521D01*
X98856429Y-46921521D02*
X98755414Y-47022536D01*
X98755414Y-47022536D02*
X98654398Y-47056208D01*
X98654398Y-47056208D02*
X98587055Y-47056208D01*
X98587055Y-47056208D02*
X98486040Y-47022536D01*
X98486040Y-47022536D02*
X98216666Y-46753162D01*
X98957444Y-48167375D02*
X98553383Y-47763314D01*
X98755414Y-47965345D02*
X99462520Y-47258238D01*
X99462520Y-47258238D02*
X99294162Y-47291910D01*
X99294162Y-47291910D02*
X99159475Y-47291910D01*
X99159475Y-47291910D02*
X99058459Y-47258238D01*
X99900253Y-47695971D02*
X100337986Y-48133704D01*
X100337986Y-48133704D02*
X99832910Y-48167376D01*
X99832910Y-48167376D02*
X99933925Y-48268391D01*
X99933925Y-48268391D02*
X99967597Y-48369406D01*
X99967597Y-48369406D02*
X99967597Y-48436750D01*
X99967597Y-48436750D02*
X99933925Y-48537765D01*
X99933925Y-48537765D02*
X99765566Y-48706124D01*
X99765566Y-48706124D02*
X99664551Y-48739795D01*
X99664551Y-48739795D02*
X99597208Y-48739795D01*
X99597208Y-48739795D02*
X99496192Y-48706124D01*
X99496192Y-48706124D02*
X99294162Y-48504093D01*
X99294162Y-48504093D02*
X99260490Y-48403078D01*
X99260490Y-48403078D02*
X99260490Y-48335734D01*
X94067517Y-45414723D02*
X93734184Y-44938532D01*
X93496089Y-45414723D02*
X93496089Y-44414723D01*
X93496089Y-44414723D02*
X93877041Y-44414723D01*
X93877041Y-44414723D02*
X93972279Y-44462342D01*
X93972279Y-44462342D02*
X94019898Y-44509961D01*
X94019898Y-44509961D02*
X94067517Y-44605199D01*
X94067517Y-44605199D02*
X94067517Y-44748056D01*
X94067517Y-44748056D02*
X94019898Y-44843294D01*
X94019898Y-44843294D02*
X93972279Y-44890913D01*
X93972279Y-44890913D02*
X93877041Y-44938532D01*
X93877041Y-44938532D02*
X93496089Y-44938532D01*
X95019898Y-45414723D02*
X94448470Y-45414723D01*
X94734184Y-45414723D02*
X94734184Y-44414723D01*
X94734184Y-44414723D02*
X94638946Y-44557580D01*
X94638946Y-44557580D02*
X94543708Y-44652818D01*
X94543708Y-44652818D02*
X94448470Y-44700437D01*
X126739238Y-38751300D02*
X126691619Y-38846538D01*
X126691619Y-38846538D02*
X126596381Y-38941776D01*
X126596381Y-38941776D02*
X126453523Y-39084633D01*
X126453523Y-39084633D02*
X126405904Y-39179871D01*
X126405904Y-39179871D02*
X126405904Y-39275109D01*
X126644000Y-39227490D02*
X126596381Y-39322728D01*
X126596381Y-39322728D02*
X126501142Y-39417966D01*
X126501142Y-39417966D02*
X126310666Y-39465585D01*
X126310666Y-39465585D02*
X125977333Y-39465585D01*
X125977333Y-39465585D02*
X125786857Y-39417966D01*
X125786857Y-39417966D02*
X125691619Y-39322728D01*
X125691619Y-39322728D02*
X125644000Y-39227490D01*
X125644000Y-39227490D02*
X125644000Y-39037014D01*
X125644000Y-39037014D02*
X125691619Y-38941776D01*
X125691619Y-38941776D02*
X125786857Y-38846538D01*
X125786857Y-38846538D02*
X125977333Y-38798919D01*
X125977333Y-38798919D02*
X126310666Y-38798919D01*
X126310666Y-38798919D02*
X126501142Y-38846538D01*
X126501142Y-38846538D02*
X126596381Y-38941776D01*
X126596381Y-38941776D02*
X126644000Y-39037014D01*
X126644000Y-39037014D02*
X126644000Y-39227490D01*
X125644000Y-37894157D02*
X125644000Y-38370347D01*
X125644000Y-38370347D02*
X126120190Y-38417966D01*
X126120190Y-38417966D02*
X126072571Y-38370347D01*
X126072571Y-38370347D02*
X126024952Y-38275109D01*
X126024952Y-38275109D02*
X126024952Y-38037014D01*
X126024952Y-38037014D02*
X126072571Y-37941776D01*
X126072571Y-37941776D02*
X126120190Y-37894157D01*
X126120190Y-37894157D02*
X126215428Y-37846538D01*
X126215428Y-37846538D02*
X126453523Y-37846538D01*
X126453523Y-37846538D02*
X126548761Y-37894157D01*
X126548761Y-37894157D02*
X126596381Y-37941776D01*
X126596381Y-37941776D02*
X126644000Y-38037014D01*
X126644000Y-38037014D02*
X126644000Y-38275109D01*
X126644000Y-38275109D02*
X126596381Y-38370347D01*
X126596381Y-38370347D02*
X126548761Y-38417966D01*
X96594002Y-75511189D02*
X95594002Y-75511189D01*
X95594002Y-75511189D02*
X95594002Y-75273094D01*
X95594002Y-75273094D02*
X95641621Y-75130237D01*
X95641621Y-75130237D02*
X95736859Y-75034999D01*
X95736859Y-75034999D02*
X95832097Y-74987380D01*
X95832097Y-74987380D02*
X96022573Y-74939761D01*
X96022573Y-74939761D02*
X96165430Y-74939761D01*
X96165430Y-74939761D02*
X96355906Y-74987380D01*
X96355906Y-74987380D02*
X96451144Y-75034999D01*
X96451144Y-75034999D02*
X96546383Y-75130237D01*
X96546383Y-75130237D02*
X96594002Y-75273094D01*
X96594002Y-75273094D02*
X96594002Y-75511189D01*
X96594002Y-73987380D02*
X96594002Y-74558808D01*
X96594002Y-74273094D02*
X95594002Y-74273094D01*
X95594002Y-74273094D02*
X95736859Y-74368332D01*
X95736859Y-74368332D02*
X95832097Y-74463570D01*
X95832097Y-74463570D02*
X95879716Y-74558808D01*
X95689240Y-73606427D02*
X95641621Y-73558808D01*
X95641621Y-73558808D02*
X95594002Y-73463570D01*
X95594002Y-73463570D02*
X95594002Y-73225475D01*
X95594002Y-73225475D02*
X95641621Y-73130237D01*
X95641621Y-73130237D02*
X95689240Y-73082618D01*
X95689240Y-73082618D02*
X95784478Y-73034999D01*
X95784478Y-73034999D02*
X95879716Y-73034999D01*
X95879716Y-73034999D02*
X96022573Y-73082618D01*
X96022573Y-73082618D02*
X96594002Y-73654046D01*
X96594002Y-73654046D02*
X96594002Y-73034999D01*
X143294265Y-75475762D02*
X143341885Y-75523381D01*
X143341885Y-75523381D02*
X143389504Y-75666238D01*
X143389504Y-75666238D02*
X143389504Y-75761476D01*
X143389504Y-75761476D02*
X143341885Y-75904333D01*
X143341885Y-75904333D02*
X143246646Y-75999571D01*
X143246646Y-75999571D02*
X143151408Y-76047190D01*
X143151408Y-76047190D02*
X142960932Y-76094809D01*
X142960932Y-76094809D02*
X142818075Y-76094809D01*
X142818075Y-76094809D02*
X142627599Y-76047190D01*
X142627599Y-76047190D02*
X142532361Y-75999571D01*
X142532361Y-75999571D02*
X142437123Y-75904333D01*
X142437123Y-75904333D02*
X142389504Y-75761476D01*
X142389504Y-75761476D02*
X142389504Y-75666238D01*
X142389504Y-75666238D02*
X142437123Y-75523381D01*
X142437123Y-75523381D02*
X142484742Y-75475762D01*
X142484742Y-75094809D02*
X142437123Y-75047190D01*
X142437123Y-75047190D02*
X142389504Y-74951952D01*
X142389504Y-74951952D02*
X142389504Y-74713857D01*
X142389504Y-74713857D02*
X142437123Y-74618619D01*
X142437123Y-74618619D02*
X142484742Y-74571000D01*
X142484742Y-74571000D02*
X142579980Y-74523381D01*
X142579980Y-74523381D02*
X142675218Y-74523381D01*
X142675218Y-74523381D02*
X142818075Y-74571000D01*
X142818075Y-74571000D02*
X143389504Y-75142428D01*
X143389504Y-75142428D02*
X143389504Y-74523381D01*
X142389504Y-73618619D02*
X142389504Y-74094809D01*
X142389504Y-74094809D02*
X142865694Y-74142428D01*
X142865694Y-74142428D02*
X142818075Y-74094809D01*
X142818075Y-74094809D02*
X142770456Y-73999571D01*
X142770456Y-73999571D02*
X142770456Y-73761476D01*
X142770456Y-73761476D02*
X142818075Y-73666238D01*
X142818075Y-73666238D02*
X142865694Y-73618619D01*
X142865694Y-73618619D02*
X142960932Y-73571000D01*
X142960932Y-73571000D02*
X143199027Y-73571000D01*
X143199027Y-73571000D02*
X143294265Y-73618619D01*
X143294265Y-73618619D02*
X143341885Y-73666238D01*
X143341885Y-73666238D02*
X143389504Y-73761476D01*
X143389504Y-73761476D02*
X143389504Y-73999571D01*
X143389504Y-73999571D02*
X143341885Y-74094809D01*
X143341885Y-74094809D02*
X143294265Y-74142428D01*
X157313517Y-70179724D02*
X156837327Y-70179724D01*
X156837327Y-70179724D02*
X156837327Y-69179724D01*
X158170660Y-70179724D02*
X157599232Y-70179724D01*
X157884946Y-70179724D02*
X157884946Y-69179724D01*
X157884946Y-69179724D02*
X157789708Y-69322581D01*
X157789708Y-69322581D02*
X157694470Y-69417819D01*
X157694470Y-69417819D02*
X157599232Y-69465438D01*
X116056763Y-48047570D02*
X116104383Y-48095189D01*
X116104383Y-48095189D02*
X116152002Y-48238046D01*
X116152002Y-48238046D02*
X116152002Y-48333284D01*
X116152002Y-48333284D02*
X116104383Y-48476141D01*
X116104383Y-48476141D02*
X116009144Y-48571379D01*
X116009144Y-48571379D02*
X115913906Y-48618998D01*
X115913906Y-48618998D02*
X115723430Y-48666617D01*
X115723430Y-48666617D02*
X115580573Y-48666617D01*
X115580573Y-48666617D02*
X115390097Y-48618998D01*
X115390097Y-48618998D02*
X115294859Y-48571379D01*
X115294859Y-48571379D02*
X115199621Y-48476141D01*
X115199621Y-48476141D02*
X115152002Y-48333284D01*
X115152002Y-48333284D02*
X115152002Y-48238046D01*
X115152002Y-48238046D02*
X115199621Y-48095189D01*
X115199621Y-48095189D02*
X115247240Y-48047570D01*
X115152002Y-47714236D02*
X115152002Y-47047570D01*
X115152002Y-47047570D02*
X116152002Y-47476141D01*
X138390516Y-60108490D02*
X138057183Y-59632299D01*
X137819088Y-60108490D02*
X137819088Y-59108490D01*
X137819088Y-59108490D02*
X138200040Y-59108490D01*
X138200040Y-59108490D02*
X138295278Y-59156109D01*
X138295278Y-59156109D02*
X138342897Y-59203728D01*
X138342897Y-59203728D02*
X138390516Y-59298966D01*
X138390516Y-59298966D02*
X138390516Y-59441823D01*
X138390516Y-59441823D02*
X138342897Y-59537061D01*
X138342897Y-59537061D02*
X138295278Y-59584680D01*
X138295278Y-59584680D02*
X138200040Y-59632299D01*
X138200040Y-59632299D02*
X137819088Y-59632299D01*
X138866707Y-60108490D02*
X139057183Y-60108490D01*
X139057183Y-60108490D02*
X139152421Y-60060871D01*
X139152421Y-60060871D02*
X139200040Y-60013251D01*
X139200040Y-60013251D02*
X139295278Y-59870394D01*
X139295278Y-59870394D02*
X139342897Y-59679918D01*
X139342897Y-59679918D02*
X139342897Y-59298966D01*
X139342897Y-59298966D02*
X139295278Y-59203728D01*
X139295278Y-59203728D02*
X139247659Y-59156109D01*
X139247659Y-59156109D02*
X139152421Y-59108490D01*
X139152421Y-59108490D02*
X138961945Y-59108490D01*
X138961945Y-59108490D02*
X138866707Y-59156109D01*
X138866707Y-59156109D02*
X138819088Y-59203728D01*
X138819088Y-59203728D02*
X138771469Y-59298966D01*
X138771469Y-59298966D02*
X138771469Y-59537061D01*
X138771469Y-59537061D02*
X138819088Y-59632299D01*
X138819088Y-59632299D02*
X138866707Y-59679918D01*
X138866707Y-59679918D02*
X138961945Y-59727537D01*
X138961945Y-59727537D02*
X139152421Y-59727537D01*
X139152421Y-59727537D02*
X139247659Y-59679918D01*
X139247659Y-59679918D02*
X139295278Y-59632299D01*
X139295278Y-59632299D02*
X139342897Y-59537061D01*
X141955326Y-71100484D02*
X141907707Y-71148104D01*
X141907707Y-71148104D02*
X141764850Y-71195723D01*
X141764850Y-71195723D02*
X141669612Y-71195723D01*
X141669612Y-71195723D02*
X141526755Y-71148104D01*
X141526755Y-71148104D02*
X141431517Y-71052865D01*
X141431517Y-71052865D02*
X141383898Y-70957627D01*
X141383898Y-70957627D02*
X141336279Y-70767151D01*
X141336279Y-70767151D02*
X141336279Y-70624294D01*
X141336279Y-70624294D02*
X141383898Y-70433818D01*
X141383898Y-70433818D02*
X141431517Y-70338580D01*
X141431517Y-70338580D02*
X141526755Y-70243342D01*
X141526755Y-70243342D02*
X141669612Y-70195723D01*
X141669612Y-70195723D02*
X141764850Y-70195723D01*
X141764850Y-70195723D02*
X141907707Y-70243342D01*
X141907707Y-70243342D02*
X141955326Y-70290961D01*
X142336279Y-70290961D02*
X142383898Y-70243342D01*
X142383898Y-70243342D02*
X142479136Y-70195723D01*
X142479136Y-70195723D02*
X142717231Y-70195723D01*
X142717231Y-70195723D02*
X142812469Y-70243342D01*
X142812469Y-70243342D02*
X142860088Y-70290961D01*
X142860088Y-70290961D02*
X142907707Y-70386199D01*
X142907707Y-70386199D02*
X142907707Y-70481437D01*
X142907707Y-70481437D02*
X142860088Y-70624294D01*
X142860088Y-70624294D02*
X142288660Y-71195723D01*
X142288660Y-71195723D02*
X142907707Y-71195723D01*
X143526755Y-70195723D02*
X143621993Y-70195723D01*
X143621993Y-70195723D02*
X143717231Y-70243342D01*
X143717231Y-70243342D02*
X143764850Y-70290961D01*
X143764850Y-70290961D02*
X143812469Y-70386199D01*
X143812469Y-70386199D02*
X143860088Y-70576675D01*
X143860088Y-70576675D02*
X143860088Y-70814770D01*
X143860088Y-70814770D02*
X143812469Y-71005246D01*
X143812469Y-71005246D02*
X143764850Y-71100484D01*
X143764850Y-71100484D02*
X143717231Y-71148104D01*
X143717231Y-71148104D02*
X143621993Y-71195723D01*
X143621993Y-71195723D02*
X143526755Y-71195723D01*
X143526755Y-71195723D02*
X143431517Y-71148104D01*
X143431517Y-71148104D02*
X143383898Y-71100484D01*
X143383898Y-71100484D02*
X143336279Y-71005246D01*
X143336279Y-71005246D02*
X143288660Y-70814770D01*
X143288660Y-70814770D02*
X143288660Y-70576675D01*
X143288660Y-70576675D02*
X143336279Y-70386199D01*
X143336279Y-70386199D02*
X143383898Y-70290961D01*
X143383898Y-70290961D02*
X143431517Y-70243342D01*
X143431517Y-70243342D02*
X143526755Y-70195723D01*
X159631326Y-59035484D02*
X159583707Y-59083104D01*
X159583707Y-59083104D02*
X159440850Y-59130723D01*
X159440850Y-59130723D02*
X159345612Y-59130723D01*
X159345612Y-59130723D02*
X159202755Y-59083104D01*
X159202755Y-59083104D02*
X159107517Y-58987865D01*
X159107517Y-58987865D02*
X159059898Y-58892627D01*
X159059898Y-58892627D02*
X159012279Y-58702151D01*
X159012279Y-58702151D02*
X159012279Y-58559294D01*
X159012279Y-58559294D02*
X159059898Y-58368818D01*
X159059898Y-58368818D02*
X159107517Y-58273580D01*
X159107517Y-58273580D02*
X159202755Y-58178342D01*
X159202755Y-58178342D02*
X159345612Y-58130723D01*
X159345612Y-58130723D02*
X159440850Y-58130723D01*
X159440850Y-58130723D02*
X159583707Y-58178342D01*
X159583707Y-58178342D02*
X159631326Y-58225961D01*
X160583707Y-59130723D02*
X160012279Y-59130723D01*
X160297993Y-59130723D02*
X160297993Y-58130723D01*
X160297993Y-58130723D02*
X160202755Y-58273580D01*
X160202755Y-58273580D02*
X160107517Y-58368818D01*
X160107517Y-58368818D02*
X160012279Y-58416437D01*
X161202755Y-58130723D02*
X161297993Y-58130723D01*
X161297993Y-58130723D02*
X161393231Y-58178342D01*
X161393231Y-58178342D02*
X161440850Y-58225961D01*
X161440850Y-58225961D02*
X161488469Y-58321199D01*
X161488469Y-58321199D02*
X161536088Y-58511675D01*
X161536088Y-58511675D02*
X161536088Y-58749770D01*
X161536088Y-58749770D02*
X161488469Y-58940246D01*
X161488469Y-58940246D02*
X161440850Y-59035484D01*
X161440850Y-59035484D02*
X161393231Y-59083104D01*
X161393231Y-59083104D02*
X161297993Y-59130723D01*
X161297993Y-59130723D02*
X161202755Y-59130723D01*
X161202755Y-59130723D02*
X161107517Y-59083104D01*
X161107517Y-59083104D02*
X161059898Y-59035484D01*
X161059898Y-59035484D02*
X161012279Y-58940246D01*
X161012279Y-58940246D02*
X160964660Y-58749770D01*
X160964660Y-58749770D02*
X160964660Y-58511675D01*
X160964660Y-58511675D02*
X161012279Y-58321199D01*
X161012279Y-58321199D02*
X161059898Y-58225961D01*
X161059898Y-58225961D02*
X161107517Y-58178342D01*
X161107517Y-58178342D02*
X161202755Y-58130723D01*
X132006352Y-57078598D02*
X131939008Y-57078598D01*
X131939008Y-57078598D02*
X131804321Y-57011254D01*
X131804321Y-57011254D02*
X131736978Y-56943911D01*
X131736978Y-56943911D02*
X131669634Y-56809224D01*
X131669634Y-56809224D02*
X131669634Y-56674537D01*
X131669634Y-56674537D02*
X131703306Y-56573522D01*
X131703306Y-56573522D02*
X131804321Y-56405163D01*
X131804321Y-56405163D02*
X131905336Y-56304148D01*
X131905336Y-56304148D02*
X132073695Y-56203132D01*
X132073695Y-56203132D02*
X132174710Y-56169461D01*
X132174710Y-56169461D02*
X132309397Y-56169461D01*
X132309397Y-56169461D02*
X132444084Y-56236804D01*
X132444084Y-56236804D02*
X132511428Y-56304148D01*
X132511428Y-56304148D02*
X132578771Y-56438835D01*
X132578771Y-56438835D02*
X132578771Y-56506178D01*
X132612443Y-57819376D02*
X132208382Y-57415315D01*
X132410413Y-57617346D02*
X133117519Y-56910239D01*
X133117519Y-56910239D02*
X132949161Y-56943911D01*
X132949161Y-56943911D02*
X132814474Y-56943911D01*
X132814474Y-56943911D02*
X132713458Y-56910239D01*
X133689939Y-57954064D02*
X133218535Y-58425468D01*
X133790955Y-57516331D02*
X133117520Y-57853048D01*
X133117520Y-57853048D02*
X133555252Y-58290781D01*
X106150764Y-69949761D02*
X106198384Y-69997380D01*
X106198384Y-69997380D02*
X106246003Y-70140237D01*
X106246003Y-70140237D02*
X106246003Y-70235475D01*
X106246003Y-70235475D02*
X106198384Y-70378332D01*
X106198384Y-70378332D02*
X106103145Y-70473570D01*
X106103145Y-70473570D02*
X106007907Y-70521189D01*
X106007907Y-70521189D02*
X105817431Y-70568808D01*
X105817431Y-70568808D02*
X105674574Y-70568808D01*
X105674574Y-70568808D02*
X105484098Y-70521189D01*
X105484098Y-70521189D02*
X105388860Y-70473570D01*
X105388860Y-70473570D02*
X105293622Y-70378332D01*
X105293622Y-70378332D02*
X105246003Y-70235475D01*
X105246003Y-70235475D02*
X105246003Y-70140237D01*
X105246003Y-70140237D02*
X105293622Y-69997380D01*
X105293622Y-69997380D02*
X105341241Y-69949761D01*
X105341241Y-69568808D02*
X105293622Y-69521189D01*
X105293622Y-69521189D02*
X105246003Y-69425951D01*
X105246003Y-69425951D02*
X105246003Y-69187856D01*
X105246003Y-69187856D02*
X105293622Y-69092618D01*
X105293622Y-69092618D02*
X105341241Y-69044999D01*
X105341241Y-69044999D02*
X105436479Y-68997380D01*
X105436479Y-68997380D02*
X105531717Y-68997380D01*
X105531717Y-68997380D02*
X105674574Y-69044999D01*
X105674574Y-69044999D02*
X106246003Y-69616427D01*
X106246003Y-69616427D02*
X106246003Y-68997380D01*
X105246003Y-68664046D02*
X105246003Y-67997380D01*
X105246003Y-67997380D02*
X106246003Y-68425951D01*
X111484763Y-48047570D02*
X111532383Y-48095189D01*
X111532383Y-48095189D02*
X111580002Y-48238046D01*
X111580002Y-48238046D02*
X111580002Y-48333284D01*
X111580002Y-48333284D02*
X111532383Y-48476141D01*
X111532383Y-48476141D02*
X111437144Y-48571379D01*
X111437144Y-48571379D02*
X111341906Y-48618998D01*
X111341906Y-48618998D02*
X111151430Y-48666617D01*
X111151430Y-48666617D02*
X111008573Y-48666617D01*
X111008573Y-48666617D02*
X110818097Y-48618998D01*
X110818097Y-48618998D02*
X110722859Y-48571379D01*
X110722859Y-48571379D02*
X110627621Y-48476141D01*
X110627621Y-48476141D02*
X110580002Y-48333284D01*
X110580002Y-48333284D02*
X110580002Y-48238046D01*
X110580002Y-48238046D02*
X110627621Y-48095189D01*
X110627621Y-48095189D02*
X110675240Y-48047570D01*
X110580002Y-47190427D02*
X110580002Y-47380903D01*
X110580002Y-47380903D02*
X110627621Y-47476141D01*
X110627621Y-47476141D02*
X110675240Y-47523760D01*
X110675240Y-47523760D02*
X110818097Y-47618998D01*
X110818097Y-47618998D02*
X111008573Y-47666617D01*
X111008573Y-47666617D02*
X111389525Y-47666617D01*
X111389525Y-47666617D02*
X111484763Y-47618998D01*
X111484763Y-47618998D02*
X111532383Y-47571379D01*
X111532383Y-47571379D02*
X111580002Y-47476141D01*
X111580002Y-47476141D02*
X111580002Y-47285665D01*
X111580002Y-47285665D02*
X111532383Y-47190427D01*
X111532383Y-47190427D02*
X111484763Y-47142808D01*
X111484763Y-47142808D02*
X111389525Y-47095189D01*
X111389525Y-47095189D02*
X111151430Y-47095189D01*
X111151430Y-47095189D02*
X111056192Y-47142808D01*
X111056192Y-47142808D02*
X111008573Y-47190427D01*
X111008573Y-47190427D02*
X110960954Y-47285665D01*
X110960954Y-47285665D02*
X110960954Y-47476141D01*
X110960954Y-47476141D02*
X111008573Y-47571379D01*
X111008573Y-47571379D02*
X111056192Y-47618998D01*
X111056192Y-47618998D02*
X111151430Y-47666617D01*
X109198763Y-66675573D02*
X109246383Y-66723192D01*
X109246383Y-66723192D02*
X109294002Y-66866049D01*
X109294002Y-66866049D02*
X109294002Y-66961287D01*
X109294002Y-66961287D02*
X109246383Y-67104144D01*
X109246383Y-67104144D02*
X109151144Y-67199382D01*
X109151144Y-67199382D02*
X109055906Y-67247001D01*
X109055906Y-67247001D02*
X108865430Y-67294620D01*
X108865430Y-67294620D02*
X108722573Y-67294620D01*
X108722573Y-67294620D02*
X108532097Y-67247001D01*
X108532097Y-67247001D02*
X108436859Y-67199382D01*
X108436859Y-67199382D02*
X108341621Y-67104144D01*
X108341621Y-67104144D02*
X108294002Y-66961287D01*
X108294002Y-66961287D02*
X108294002Y-66866049D01*
X108294002Y-66866049D02*
X108341621Y-66723192D01*
X108341621Y-66723192D02*
X108389240Y-66675573D01*
X108627335Y-65818430D02*
X109294002Y-65818430D01*
X108246383Y-66056525D02*
X108960668Y-66294620D01*
X108960668Y-66294620D02*
X108960668Y-65675573D01*
X146159326Y-53415723D02*
X145825993Y-52939532D01*
X145587898Y-53415723D02*
X145587898Y-52415723D01*
X145587898Y-52415723D02*
X145968850Y-52415723D01*
X145968850Y-52415723D02*
X146064088Y-52463342D01*
X146064088Y-52463342D02*
X146111707Y-52510961D01*
X146111707Y-52510961D02*
X146159326Y-52606199D01*
X146159326Y-52606199D02*
X146159326Y-52749056D01*
X146159326Y-52749056D02*
X146111707Y-52844294D01*
X146111707Y-52844294D02*
X146064088Y-52891913D01*
X146064088Y-52891913D02*
X145968850Y-52939532D01*
X145968850Y-52939532D02*
X145587898Y-52939532D01*
X147111707Y-53415723D02*
X146540279Y-53415723D01*
X146825993Y-53415723D02*
X146825993Y-52415723D01*
X146825993Y-52415723D02*
X146730755Y-52558580D01*
X146730755Y-52558580D02*
X146635517Y-52653818D01*
X146635517Y-52653818D02*
X146540279Y-52701437D01*
X148064088Y-53415723D02*
X147492660Y-53415723D01*
X147778374Y-53415723D02*
X147778374Y-52415723D01*
X147778374Y-52415723D02*
X147683136Y-52558580D01*
X147683136Y-52558580D02*
X147587898Y-52653818D01*
X147587898Y-52653818D02*
X147492660Y-52701437D01*
X152474002Y-75753999D02*
X151474002Y-75753999D01*
X151474002Y-75753999D02*
X151474002Y-75515904D01*
X151474002Y-75515904D02*
X151521621Y-75373047D01*
X151521621Y-75373047D02*
X151616859Y-75277809D01*
X151616859Y-75277809D02*
X151712097Y-75230190D01*
X151712097Y-75230190D02*
X151902573Y-75182571D01*
X151902573Y-75182571D02*
X152045430Y-75182571D01*
X152045430Y-75182571D02*
X152235906Y-75230190D01*
X152235906Y-75230190D02*
X152331144Y-75277809D01*
X152331144Y-75277809D02*
X152426383Y-75373047D01*
X152426383Y-75373047D02*
X152474002Y-75515904D01*
X152474002Y-75515904D02*
X152474002Y-75753999D01*
X151474002Y-74325428D02*
X151474002Y-74515904D01*
X151474002Y-74515904D02*
X151521621Y-74611142D01*
X151521621Y-74611142D02*
X151569240Y-74658761D01*
X151569240Y-74658761D02*
X151712097Y-74753999D01*
X151712097Y-74753999D02*
X151902573Y-74801618D01*
X151902573Y-74801618D02*
X152283525Y-74801618D01*
X152283525Y-74801618D02*
X152378763Y-74753999D01*
X152378763Y-74753999D02*
X152426383Y-74706380D01*
X152426383Y-74706380D02*
X152474002Y-74611142D01*
X152474002Y-74611142D02*
X152474002Y-74420666D01*
X152474002Y-74420666D02*
X152426383Y-74325428D01*
X152426383Y-74325428D02*
X152378763Y-74277809D01*
X152378763Y-74277809D02*
X152283525Y-74230190D01*
X152283525Y-74230190D02*
X152045430Y-74230190D01*
X152045430Y-74230190D02*
X151950192Y-74277809D01*
X151950192Y-74277809D02*
X151902573Y-74325428D01*
X151902573Y-74325428D02*
X151854954Y-74420666D01*
X151854954Y-74420666D02*
X151854954Y-74611142D01*
X151854954Y-74611142D02*
X151902573Y-74706380D01*
X151902573Y-74706380D02*
X151950192Y-74753999D01*
X151950192Y-74753999D02*
X152045430Y-74801618D01*
X95236008Y-50668940D02*
X95337023Y-50096521D01*
X94831947Y-50264879D02*
X95539054Y-49557773D01*
X95539054Y-49557773D02*
X95808428Y-49827147D01*
X95808428Y-49827147D02*
X95842100Y-49928162D01*
X95842100Y-49928162D02*
X95842100Y-49995505D01*
X95842100Y-49995505D02*
X95808428Y-50096521D01*
X95808428Y-50096521D02*
X95707413Y-50197536D01*
X95707413Y-50197536D02*
X95606397Y-50231208D01*
X95606397Y-50231208D02*
X95539054Y-50231208D01*
X95539054Y-50231208D02*
X95438039Y-50197536D01*
X95438039Y-50197536D02*
X95168665Y-49928162D01*
X95909443Y-51342375D02*
X95505382Y-50938314D01*
X95707413Y-51140345D02*
X96414519Y-50433238D01*
X96414519Y-50433238D02*
X96246161Y-50466910D01*
X96246161Y-50466910D02*
X96111474Y-50466910D01*
X96111474Y-50466910D02*
X96010458Y-50433238D01*
X97222642Y-51241360D02*
X97087955Y-51106673D01*
X97087955Y-51106673D02*
X96986939Y-51073002D01*
X96986939Y-51073002D02*
X96919596Y-51073002D01*
X96919596Y-51073002D02*
X96751237Y-51106673D01*
X96751237Y-51106673D02*
X96582878Y-51207689D01*
X96582878Y-51207689D02*
X96313504Y-51477063D01*
X96313504Y-51477063D02*
X96279833Y-51578078D01*
X96279833Y-51578078D02*
X96279833Y-51645421D01*
X96279833Y-51645421D02*
X96313504Y-51746437D01*
X96313504Y-51746437D02*
X96448191Y-51881124D01*
X96448191Y-51881124D02*
X96549207Y-51914795D01*
X96549207Y-51914795D02*
X96616550Y-51914795D01*
X96616550Y-51914795D02*
X96717565Y-51881124D01*
X96717565Y-51881124D02*
X96885924Y-51712765D01*
X96885924Y-51712765D02*
X96919596Y-51611750D01*
X96919596Y-51611750D02*
X96919596Y-51544406D01*
X96919596Y-51544406D02*
X96885924Y-51443391D01*
X96885924Y-51443391D02*
X96751237Y-51308704D01*
X96751237Y-51308704D02*
X96650222Y-51275032D01*
X96650222Y-51275032D02*
X96582878Y-51275032D01*
X96582878Y-51275032D02*
X96481863Y-51308704D01*
X163939326Y-53320484D02*
X163891707Y-53368104D01*
X163891707Y-53368104D02*
X163748850Y-53415723D01*
X163748850Y-53415723D02*
X163653612Y-53415723D01*
X163653612Y-53415723D02*
X163510755Y-53368104D01*
X163510755Y-53368104D02*
X163415517Y-53272865D01*
X163415517Y-53272865D02*
X163367898Y-53177627D01*
X163367898Y-53177627D02*
X163320279Y-52987151D01*
X163320279Y-52987151D02*
X163320279Y-52844294D01*
X163320279Y-52844294D02*
X163367898Y-52653818D01*
X163367898Y-52653818D02*
X163415517Y-52558580D01*
X163415517Y-52558580D02*
X163510755Y-52463342D01*
X163510755Y-52463342D02*
X163653612Y-52415723D01*
X163653612Y-52415723D02*
X163748850Y-52415723D01*
X163748850Y-52415723D02*
X163891707Y-52463342D01*
X163891707Y-52463342D02*
X163939326Y-52510961D01*
X164272660Y-52415723D02*
X164891707Y-52415723D01*
X164891707Y-52415723D02*
X164558374Y-52796675D01*
X164558374Y-52796675D02*
X164701231Y-52796675D01*
X164701231Y-52796675D02*
X164796469Y-52844294D01*
X164796469Y-52844294D02*
X164844088Y-52891913D01*
X164844088Y-52891913D02*
X164891707Y-52987151D01*
X164891707Y-52987151D02*
X164891707Y-53225246D01*
X164891707Y-53225246D02*
X164844088Y-53320484D01*
X164844088Y-53320484D02*
X164796469Y-53368104D01*
X164796469Y-53368104D02*
X164701231Y-53415723D01*
X164701231Y-53415723D02*
X164415517Y-53415723D01*
X164415517Y-53415723D02*
X164320279Y-53368104D01*
X164320279Y-53368104D02*
X164272660Y-53320484D01*
X165796469Y-52415723D02*
X165320279Y-52415723D01*
X165320279Y-52415723D02*
X165272660Y-52891913D01*
X165272660Y-52891913D02*
X165320279Y-52844294D01*
X165320279Y-52844294D02*
X165415517Y-52796675D01*
X165415517Y-52796675D02*
X165653612Y-52796675D01*
X165653612Y-52796675D02*
X165748850Y-52844294D01*
X165748850Y-52844294D02*
X165796469Y-52891913D01*
X165796469Y-52891913D02*
X165844088Y-52987151D01*
X165844088Y-52987151D02*
X165844088Y-53225246D01*
X165844088Y-53225246D02*
X165796469Y-53320484D01*
X165796469Y-53320484D02*
X165748850Y-53368104D01*
X165748850Y-53368104D02*
X165653612Y-53415723D01*
X165653612Y-53415723D02*
X165415517Y-53415723D01*
X165415517Y-53415723D02*
X165320279Y-53368104D01*
X165320279Y-53368104D02*
X165272660Y-53320484D01*
X155426763Y-62874761D02*
X155474383Y-62922380D01*
X155474383Y-62922380D02*
X155522002Y-63065237D01*
X155522002Y-63065237D02*
X155522002Y-63160475D01*
X155522002Y-63160475D02*
X155474383Y-63303332D01*
X155474383Y-63303332D02*
X155379144Y-63398570D01*
X155379144Y-63398570D02*
X155283906Y-63446189D01*
X155283906Y-63446189D02*
X155093430Y-63493808D01*
X155093430Y-63493808D02*
X154950573Y-63493808D01*
X154950573Y-63493808D02*
X154760097Y-63446189D01*
X154760097Y-63446189D02*
X154664859Y-63398570D01*
X154664859Y-63398570D02*
X154569621Y-63303332D01*
X154569621Y-63303332D02*
X154522002Y-63160475D01*
X154522002Y-63160475D02*
X154522002Y-63065237D01*
X154522002Y-63065237D02*
X154569621Y-62922380D01*
X154569621Y-62922380D02*
X154617240Y-62874761D01*
X154617240Y-62493808D02*
X154569621Y-62446189D01*
X154569621Y-62446189D02*
X154522002Y-62350951D01*
X154522002Y-62350951D02*
X154522002Y-62112856D01*
X154522002Y-62112856D02*
X154569621Y-62017618D01*
X154569621Y-62017618D02*
X154617240Y-61969999D01*
X154617240Y-61969999D02*
X154712478Y-61922380D01*
X154712478Y-61922380D02*
X154807716Y-61922380D01*
X154807716Y-61922380D02*
X154950573Y-61969999D01*
X154950573Y-61969999D02*
X155522002Y-62541427D01*
X155522002Y-62541427D02*
X155522002Y-61922380D01*
X155522002Y-60969999D02*
X155522002Y-61541427D01*
X155522002Y-61255713D02*
X154522002Y-61255713D01*
X154522002Y-61255713D02*
X154664859Y-61350951D01*
X154664859Y-61350951D02*
X154760097Y-61446189D01*
X154760097Y-61446189D02*
X154807716Y-61541427D01*
X134456241Y-38778149D02*
X134408622Y-38873387D01*
X134408622Y-38873387D02*
X134313384Y-38968625D01*
X134313384Y-38968625D02*
X134170526Y-39111482D01*
X134170526Y-39111482D02*
X134122907Y-39206720D01*
X134122907Y-39206720D02*
X134122907Y-39301958D01*
X134361003Y-39254339D02*
X134313384Y-39349577D01*
X134313384Y-39349577D02*
X134218145Y-39444815D01*
X134218145Y-39444815D02*
X134027669Y-39492434D01*
X134027669Y-39492434D02*
X133694336Y-39492434D01*
X133694336Y-39492434D02*
X133503860Y-39444815D01*
X133503860Y-39444815D02*
X133408622Y-39349577D01*
X133408622Y-39349577D02*
X133361003Y-39254339D01*
X133361003Y-39254339D02*
X133361003Y-39063863D01*
X133361003Y-39063863D02*
X133408622Y-38968625D01*
X133408622Y-38968625D02*
X133503860Y-38873387D01*
X133503860Y-38873387D02*
X133694336Y-38825768D01*
X133694336Y-38825768D02*
X134027669Y-38825768D01*
X134027669Y-38825768D02*
X134218145Y-38873387D01*
X134218145Y-38873387D02*
X134313384Y-38968625D01*
X134313384Y-38968625D02*
X134361003Y-39063863D01*
X134361003Y-39063863D02*
X134361003Y-39254339D01*
X133361003Y-37968625D02*
X133361003Y-38159101D01*
X133361003Y-38159101D02*
X133408622Y-38254339D01*
X133408622Y-38254339D02*
X133456241Y-38301958D01*
X133456241Y-38301958D02*
X133599098Y-38397196D01*
X133599098Y-38397196D02*
X133789574Y-38444815D01*
X133789574Y-38444815D02*
X134170526Y-38444815D01*
X134170526Y-38444815D02*
X134265764Y-38397196D01*
X134265764Y-38397196D02*
X134313384Y-38349577D01*
X134313384Y-38349577D02*
X134361003Y-38254339D01*
X134361003Y-38254339D02*
X134361003Y-38063863D01*
X134361003Y-38063863D02*
X134313384Y-37968625D01*
X134313384Y-37968625D02*
X134265764Y-37921006D01*
X134265764Y-37921006D02*
X134170526Y-37873387D01*
X134170526Y-37873387D02*
X133932431Y-37873387D01*
X133932431Y-37873387D02*
X133837193Y-37921006D01*
X133837193Y-37921006D02*
X133789574Y-37968625D01*
X133789574Y-37968625D02*
X133741955Y-38063863D01*
X133741955Y-38063863D02*
X133741955Y-38254339D01*
X133741955Y-38254339D02*
X133789574Y-38349577D01*
X133789574Y-38349577D02*
X133837193Y-38397196D01*
X133837193Y-38397196D02*
X133932431Y-38444815D01*
X135938515Y-60216845D02*
X135871171Y-60216845D01*
X135871171Y-60216845D02*
X135736484Y-60149501D01*
X135736484Y-60149501D02*
X135669141Y-60082158D01*
X135669141Y-60082158D02*
X135601797Y-59947471D01*
X135601797Y-59947471D02*
X135601797Y-59812784D01*
X135601797Y-59812784D02*
X135635469Y-59711769D01*
X135635469Y-59711769D02*
X135736484Y-59543410D01*
X135736484Y-59543410D02*
X135837499Y-59442395D01*
X135837499Y-59442395D02*
X136005858Y-59341379D01*
X136005858Y-59341379D02*
X136106873Y-59307708D01*
X136106873Y-59307708D02*
X136241560Y-59307708D01*
X136241560Y-59307708D02*
X136376247Y-59375051D01*
X136376247Y-59375051D02*
X136443591Y-59442395D01*
X136443591Y-59442395D02*
X136510934Y-59577082D01*
X136510934Y-59577082D02*
X136510934Y-59644425D01*
X136544606Y-60957623D02*
X136140545Y-60553562D01*
X136342576Y-60755593D02*
X137049682Y-60048486D01*
X137049682Y-60048486D02*
X136881324Y-60082158D01*
X136881324Y-60082158D02*
X136746637Y-60082158D01*
X136746637Y-60082158D02*
X136645621Y-60048486D01*
X137857805Y-60856608D02*
X137723118Y-60721921D01*
X137723118Y-60721921D02*
X137622102Y-60688250D01*
X137622102Y-60688250D02*
X137554759Y-60688250D01*
X137554759Y-60688250D02*
X137386400Y-60721921D01*
X137386400Y-60721921D02*
X137218041Y-60822937D01*
X137218041Y-60822937D02*
X136948667Y-61092311D01*
X136948667Y-61092311D02*
X136914996Y-61193326D01*
X136914996Y-61193326D02*
X136914996Y-61260669D01*
X136914996Y-61260669D02*
X136948667Y-61361685D01*
X136948667Y-61361685D02*
X137083354Y-61496372D01*
X137083354Y-61496372D02*
X137184370Y-61530043D01*
X137184370Y-61530043D02*
X137251713Y-61530043D01*
X137251713Y-61530043D02*
X137352728Y-61496372D01*
X137352728Y-61496372D02*
X137521087Y-61328013D01*
X137521087Y-61328013D02*
X137554759Y-61226998D01*
X137554759Y-61226998D02*
X137554759Y-61159654D01*
X137554759Y-61159654D02*
X137521087Y-61058639D01*
X137521087Y-61058639D02*
X137386400Y-60923952D01*
X137386400Y-60923952D02*
X137285385Y-60890280D01*
X137285385Y-60890280D02*
X137218041Y-60890280D01*
X137218041Y-60890280D02*
X137117026Y-60923952D01*
X118991326Y-67798484D02*
X118943707Y-67846104D01*
X118943707Y-67846104D02*
X118800850Y-67893723D01*
X118800850Y-67893723D02*
X118705612Y-67893723D01*
X118705612Y-67893723D02*
X118562755Y-67846104D01*
X118562755Y-67846104D02*
X118467517Y-67750865D01*
X118467517Y-67750865D02*
X118419898Y-67655627D01*
X118419898Y-67655627D02*
X118372279Y-67465151D01*
X118372279Y-67465151D02*
X118372279Y-67322294D01*
X118372279Y-67322294D02*
X118419898Y-67131818D01*
X118419898Y-67131818D02*
X118467517Y-67036580D01*
X118467517Y-67036580D02*
X118562755Y-66941342D01*
X118562755Y-66941342D02*
X118705612Y-66893723D01*
X118705612Y-66893723D02*
X118800850Y-66893723D01*
X118800850Y-66893723D02*
X118943707Y-66941342D01*
X118943707Y-66941342D02*
X118991326Y-66988961D01*
X119943707Y-67893723D02*
X119372279Y-67893723D01*
X119657993Y-67893723D02*
X119657993Y-66893723D01*
X119657993Y-66893723D02*
X119562755Y-67036580D01*
X119562755Y-67036580D02*
X119467517Y-67131818D01*
X119467517Y-67131818D02*
X119372279Y-67179437D01*
X120896088Y-67893723D02*
X120324660Y-67893723D01*
X120610374Y-67893723D02*
X120610374Y-66893723D01*
X120610374Y-66893723D02*
X120515136Y-67036580D01*
X120515136Y-67036580D02*
X120419898Y-67131818D01*
X120419898Y-67131818D02*
X120324660Y-67179437D01*
X112277594Y-50285016D02*
X112277594Y-50352360D01*
X112277594Y-50352360D02*
X112210250Y-50487047D01*
X112210250Y-50487047D02*
X112142907Y-50554390D01*
X112142907Y-50554390D02*
X112008220Y-50621734D01*
X112008220Y-50621734D02*
X111873533Y-50621734D01*
X111873533Y-50621734D02*
X111772518Y-50588062D01*
X111772518Y-50588062D02*
X111604159Y-50487047D01*
X111604159Y-50487047D02*
X111503144Y-50386032D01*
X111503144Y-50386032D02*
X111402128Y-50217673D01*
X111402128Y-50217673D02*
X111368457Y-50116658D01*
X111368457Y-50116658D02*
X111368457Y-49981971D01*
X111368457Y-49981971D02*
X111435800Y-49847284D01*
X111435800Y-49847284D02*
X111503144Y-49779940D01*
X111503144Y-49779940D02*
X111637831Y-49712597D01*
X111637831Y-49712597D02*
X111705174Y-49712597D01*
X111873533Y-49409551D02*
X112311266Y-48971818D01*
X112311266Y-48971818D02*
X112344937Y-49476894D01*
X112344937Y-49476894D02*
X112445953Y-49375879D01*
X112445953Y-49375879D02*
X112546968Y-49342207D01*
X112546968Y-49342207D02*
X112614311Y-49342207D01*
X112614311Y-49342207D02*
X112715327Y-49375879D01*
X112715327Y-49375879D02*
X112883685Y-49544238D01*
X112883685Y-49544238D02*
X112917357Y-49645253D01*
X112917357Y-49645253D02*
X112917357Y-49712597D01*
X112917357Y-49712597D02*
X112883685Y-49813612D01*
X112883685Y-49813612D02*
X112681655Y-50015642D01*
X112681655Y-50015642D02*
X112580640Y-50049314D01*
X112580640Y-50049314D02*
X112513296Y-50049314D01*
X95126517Y-70660723D02*
X94793184Y-70184532D01*
X94555089Y-70660723D02*
X94555089Y-69660723D01*
X94555089Y-69660723D02*
X94936041Y-69660723D01*
X94936041Y-69660723D02*
X95031279Y-69708342D01*
X95031279Y-69708342D02*
X95078898Y-69755961D01*
X95078898Y-69755961D02*
X95126517Y-69851199D01*
X95126517Y-69851199D02*
X95126517Y-69994056D01*
X95126517Y-69994056D02*
X95078898Y-70089294D01*
X95078898Y-70089294D02*
X95031279Y-70136913D01*
X95031279Y-70136913D02*
X94936041Y-70184532D01*
X94936041Y-70184532D02*
X94555089Y-70184532D01*
X96031279Y-69660723D02*
X95555089Y-69660723D01*
X95555089Y-69660723D02*
X95507470Y-70136913D01*
X95507470Y-70136913D02*
X95555089Y-70089294D01*
X95555089Y-70089294D02*
X95650327Y-70041675D01*
X95650327Y-70041675D02*
X95888422Y-70041675D01*
X95888422Y-70041675D02*
X95983660Y-70089294D01*
X95983660Y-70089294D02*
X96031279Y-70136913D01*
X96031279Y-70136913D02*
X96078898Y-70232151D01*
X96078898Y-70232151D02*
X96078898Y-70470246D01*
X96078898Y-70470246D02*
X96031279Y-70565484D01*
X96031279Y-70565484D02*
X95983660Y-70613104D01*
X95983660Y-70613104D02*
X95888422Y-70660723D01*
X95888422Y-70660723D02*
X95650327Y-70660723D01*
X95650327Y-70660723D02*
X95555089Y-70613104D01*
X95555089Y-70613104D02*
X95507470Y-70565484D01*
X91888089Y-66877723D02*
X91888089Y-65877723D01*
X91888089Y-65877723D02*
X92126184Y-65877723D01*
X92126184Y-65877723D02*
X92269041Y-65925342D01*
X92269041Y-65925342D02*
X92364279Y-66020580D01*
X92364279Y-66020580D02*
X92411898Y-66115818D01*
X92411898Y-66115818D02*
X92459517Y-66306294D01*
X92459517Y-66306294D02*
X92459517Y-66449151D01*
X92459517Y-66449151D02*
X92411898Y-66639627D01*
X92411898Y-66639627D02*
X92364279Y-66734865D01*
X92364279Y-66734865D02*
X92269041Y-66830104D01*
X92269041Y-66830104D02*
X92126184Y-66877723D01*
X92126184Y-66877723D02*
X91888089Y-66877723D01*
X92840470Y-65972961D02*
X92888089Y-65925342D01*
X92888089Y-65925342D02*
X92983327Y-65877723D01*
X92983327Y-65877723D02*
X93221422Y-65877723D01*
X93221422Y-65877723D02*
X93316660Y-65925342D01*
X93316660Y-65925342D02*
X93364279Y-65972961D01*
X93364279Y-65972961D02*
X93411898Y-66068199D01*
X93411898Y-66068199D02*
X93411898Y-66163437D01*
X93411898Y-66163437D02*
X93364279Y-66306294D01*
X93364279Y-66306294D02*
X92792851Y-66877723D01*
X92792851Y-66877723D02*
X93411898Y-66877723D01*
X113023754Y-45387604D02*
X114166612Y-45387604D01*
X113595183Y-45959032D02*
X113595183Y-44816175D01*
X100723755Y-45387604D02*
X101866613Y-45387604D01*
X140249003Y-75710999D02*
X139249003Y-75710999D01*
X139249003Y-75710999D02*
X139249003Y-75472904D01*
X139249003Y-75472904D02*
X139296622Y-75330047D01*
X139296622Y-75330047D02*
X139391860Y-75234809D01*
X139391860Y-75234809D02*
X139487098Y-75187190D01*
X139487098Y-75187190D02*
X139677574Y-75139571D01*
X139677574Y-75139571D02*
X139820431Y-75139571D01*
X139820431Y-75139571D02*
X140010907Y-75187190D01*
X140010907Y-75187190D02*
X140106145Y-75234809D01*
X140106145Y-75234809D02*
X140201384Y-75330047D01*
X140201384Y-75330047D02*
X140249003Y-75472904D01*
X140249003Y-75472904D02*
X140249003Y-75710999D01*
X139677574Y-74568142D02*
X139629955Y-74663380D01*
X139629955Y-74663380D02*
X139582336Y-74710999D01*
X139582336Y-74710999D02*
X139487098Y-74758618D01*
X139487098Y-74758618D02*
X139439479Y-74758618D01*
X139439479Y-74758618D02*
X139344241Y-74710999D01*
X139344241Y-74710999D02*
X139296622Y-74663380D01*
X139296622Y-74663380D02*
X139249003Y-74568142D01*
X139249003Y-74568142D02*
X139249003Y-74377666D01*
X139249003Y-74377666D02*
X139296622Y-74282428D01*
X139296622Y-74282428D02*
X139344241Y-74234809D01*
X139344241Y-74234809D02*
X139439479Y-74187190D01*
X139439479Y-74187190D02*
X139487098Y-74187190D01*
X139487098Y-74187190D02*
X139582336Y-74234809D01*
X139582336Y-74234809D02*
X139629955Y-74282428D01*
X139629955Y-74282428D02*
X139677574Y-74377666D01*
X139677574Y-74377666D02*
X139677574Y-74568142D01*
X139677574Y-74568142D02*
X139725193Y-74663380D01*
X139725193Y-74663380D02*
X139772812Y-74710999D01*
X139772812Y-74710999D02*
X139868050Y-74758618D01*
X139868050Y-74758618D02*
X140058526Y-74758618D01*
X140058526Y-74758618D02*
X140153764Y-74710999D01*
X140153764Y-74710999D02*
X140201384Y-74663380D01*
X140201384Y-74663380D02*
X140249003Y-74568142D01*
X140249003Y-74568142D02*
X140249003Y-74377666D01*
X140249003Y-74377666D02*
X140201384Y-74282428D01*
X140201384Y-74282428D02*
X140153764Y-74234809D01*
X140153764Y-74234809D02*
X140058526Y-74187190D01*
X140058526Y-74187190D02*
X139868050Y-74187190D01*
X139868050Y-74187190D02*
X139772812Y-74234809D01*
X139772812Y-74234809D02*
X139725193Y-74282428D01*
X139725193Y-74282428D02*
X139677574Y-74377666D01*
X125341329Y-53320484D02*
X125293710Y-53368104D01*
X125293710Y-53368104D02*
X125150853Y-53415723D01*
X125150853Y-53415723D02*
X125055615Y-53415723D01*
X125055615Y-53415723D02*
X124912758Y-53368104D01*
X124912758Y-53368104D02*
X124817520Y-53272865D01*
X124817520Y-53272865D02*
X124769901Y-53177627D01*
X124769901Y-53177627D02*
X124722282Y-52987151D01*
X124722282Y-52987151D02*
X124722282Y-52844294D01*
X124722282Y-52844294D02*
X124769901Y-52653818D01*
X124769901Y-52653818D02*
X124817520Y-52558580D01*
X124817520Y-52558580D02*
X124912758Y-52463342D01*
X124912758Y-52463342D02*
X125055615Y-52415723D01*
X125055615Y-52415723D02*
X125150853Y-52415723D01*
X125150853Y-52415723D02*
X125293710Y-52463342D01*
X125293710Y-52463342D02*
X125341329Y-52510961D01*
X125674663Y-52415723D02*
X126293710Y-52415723D01*
X126293710Y-52415723D02*
X125960377Y-52796675D01*
X125960377Y-52796675D02*
X126103234Y-52796675D01*
X126103234Y-52796675D02*
X126198472Y-52844294D01*
X126198472Y-52844294D02*
X126246091Y-52891913D01*
X126246091Y-52891913D02*
X126293710Y-52987151D01*
X126293710Y-52987151D02*
X126293710Y-53225246D01*
X126293710Y-53225246D02*
X126246091Y-53320484D01*
X126246091Y-53320484D02*
X126198472Y-53368104D01*
X126198472Y-53368104D02*
X126103234Y-53415723D01*
X126103234Y-53415723D02*
X125817520Y-53415723D01*
X125817520Y-53415723D02*
X125722282Y-53368104D01*
X125722282Y-53368104D02*
X125674663Y-53320484D01*
X126912758Y-52415723D02*
X127007996Y-52415723D01*
X127007996Y-52415723D02*
X127103234Y-52463342D01*
X127103234Y-52463342D02*
X127150853Y-52510961D01*
X127150853Y-52510961D02*
X127198472Y-52606199D01*
X127198472Y-52606199D02*
X127246091Y-52796675D01*
X127246091Y-52796675D02*
X127246091Y-53034770D01*
X127246091Y-53034770D02*
X127198472Y-53225246D01*
X127198472Y-53225246D02*
X127150853Y-53320484D01*
X127150853Y-53320484D02*
X127103234Y-53368104D01*
X127103234Y-53368104D02*
X127007996Y-53415723D01*
X127007996Y-53415723D02*
X126912758Y-53415723D01*
X126912758Y-53415723D02*
X126817520Y-53368104D01*
X126817520Y-53368104D02*
X126769901Y-53320484D01*
X126769901Y-53320484D02*
X126722282Y-53225246D01*
X126722282Y-53225246D02*
X126674663Y-53034770D01*
X126674663Y-53034770D02*
X126674663Y-52796675D01*
X126674663Y-52796675D02*
X126722282Y-52606199D01*
X126722282Y-52606199D02*
X126769901Y-52510961D01*
X126769901Y-52510961D02*
X126817520Y-52463342D01*
X126817520Y-52463342D02*
X126912758Y-52415723D01*
X119908331Y-53415723D02*
X119574998Y-52939532D01*
X119336903Y-53415723D02*
X119336903Y-52415723D01*
X119336903Y-52415723D02*
X119717855Y-52415723D01*
X119717855Y-52415723D02*
X119813093Y-52463342D01*
X119813093Y-52463342D02*
X119860712Y-52510961D01*
X119860712Y-52510961D02*
X119908331Y-52606199D01*
X119908331Y-52606199D02*
X119908331Y-52749056D01*
X119908331Y-52749056D02*
X119860712Y-52844294D01*
X119860712Y-52844294D02*
X119813093Y-52891913D01*
X119813093Y-52891913D02*
X119717855Y-52939532D01*
X119717855Y-52939532D02*
X119336903Y-52939532D01*
X120860712Y-53415723D02*
X120289284Y-53415723D01*
X120574998Y-53415723D02*
X120574998Y-52415723D01*
X120574998Y-52415723D02*
X120479760Y-52558580D01*
X120479760Y-52558580D02*
X120384522Y-52653818D01*
X120384522Y-52653818D02*
X120289284Y-52701437D01*
X121241665Y-52510961D02*
X121289284Y-52463342D01*
X121289284Y-52463342D02*
X121384522Y-52415723D01*
X121384522Y-52415723D02*
X121622617Y-52415723D01*
X121622617Y-52415723D02*
X121717855Y-52463342D01*
X121717855Y-52463342D02*
X121765474Y-52510961D01*
X121765474Y-52510961D02*
X121813093Y-52606199D01*
X121813093Y-52606199D02*
X121813093Y-52701437D01*
X121813093Y-52701437D02*
X121765474Y-52844294D01*
X121765474Y-52844294D02*
X121194046Y-53415723D01*
X121194046Y-53415723D02*
X121813093Y-53415723D01*
X104657594Y-55111016D02*
X104657594Y-55178360D01*
X104657594Y-55178360D02*
X104590250Y-55313047D01*
X104590250Y-55313047D02*
X104522907Y-55380390D01*
X104522907Y-55380390D02*
X104388220Y-55447734D01*
X104388220Y-55447734D02*
X104253533Y-55447734D01*
X104253533Y-55447734D02*
X104152518Y-55414062D01*
X104152518Y-55414062D02*
X103984159Y-55313047D01*
X103984159Y-55313047D02*
X103883144Y-55212032D01*
X103883144Y-55212032D02*
X103782128Y-55043673D01*
X103782128Y-55043673D02*
X103748457Y-54942658D01*
X103748457Y-54942658D02*
X103748457Y-54807971D01*
X103748457Y-54807971D02*
X103815800Y-54673284D01*
X103815800Y-54673284D02*
X103883144Y-54605940D01*
X103883144Y-54605940D02*
X104017831Y-54538597D01*
X104017831Y-54538597D02*
X104085174Y-54538597D01*
X104354548Y-54269223D02*
X104354548Y-54201879D01*
X104354548Y-54201879D02*
X104388220Y-54100864D01*
X104388220Y-54100864D02*
X104556579Y-53932505D01*
X104556579Y-53932505D02*
X104657594Y-53898833D01*
X104657594Y-53898833D02*
X104724937Y-53898833D01*
X104724937Y-53898833D02*
X104825953Y-53932505D01*
X104825953Y-53932505D02*
X104893296Y-53999849D01*
X104893296Y-53999849D02*
X104960640Y-54134536D01*
X104960640Y-54134536D02*
X104960640Y-54942658D01*
X104960640Y-54942658D02*
X105398372Y-54504925D01*
X162120002Y-75724497D02*
X161120002Y-75724497D01*
X161120002Y-75724497D02*
X161120002Y-75486402D01*
X161120002Y-75486402D02*
X161167621Y-75343545D01*
X161167621Y-75343545D02*
X161262859Y-75248307D01*
X161262859Y-75248307D02*
X161358097Y-75200688D01*
X161358097Y-75200688D02*
X161548573Y-75153069D01*
X161548573Y-75153069D02*
X161691430Y-75153069D01*
X161691430Y-75153069D02*
X161881906Y-75200688D01*
X161881906Y-75200688D02*
X161977144Y-75248307D01*
X161977144Y-75248307D02*
X162072383Y-75343545D01*
X162072383Y-75343545D02*
X162120002Y-75486402D01*
X162120002Y-75486402D02*
X162120002Y-75724497D01*
X161453335Y-74295926D02*
X162120002Y-74295926D01*
X161072383Y-74534021D02*
X161786668Y-74772116D01*
X161786668Y-74772116D02*
X161786668Y-74153069D01*
X91888089Y-63067723D02*
X91888089Y-62067723D01*
X91888089Y-62067723D02*
X92126184Y-62067723D01*
X92126184Y-62067723D02*
X92269041Y-62115342D01*
X92269041Y-62115342D02*
X92364279Y-62210580D01*
X92364279Y-62210580D02*
X92411898Y-62305818D01*
X92411898Y-62305818D02*
X92459517Y-62496294D01*
X92459517Y-62496294D02*
X92459517Y-62639151D01*
X92459517Y-62639151D02*
X92411898Y-62829627D01*
X92411898Y-62829627D02*
X92364279Y-62924865D01*
X92364279Y-62924865D02*
X92269041Y-63020104D01*
X92269041Y-63020104D02*
X92126184Y-63067723D01*
X92126184Y-63067723D02*
X91888089Y-63067723D01*
X93411898Y-63067723D02*
X92840470Y-63067723D01*
X93126184Y-63067723D02*
X93126184Y-62067723D01*
X93126184Y-62067723D02*
X93030946Y-62210580D01*
X93030946Y-62210580D02*
X92935708Y-62305818D01*
X92935708Y-62305818D02*
X92840470Y-62353437D01*
X125925726Y-72595658D02*
X126026741Y-72023239D01*
X125521665Y-72191597D02*
X126228772Y-71484491D01*
X126228772Y-71484491D02*
X126498146Y-71753865D01*
X126498146Y-71753865D02*
X126531818Y-71854880D01*
X126531818Y-71854880D02*
X126531818Y-71922223D01*
X126531818Y-71922223D02*
X126498146Y-72023239D01*
X126498146Y-72023239D02*
X126397131Y-72124254D01*
X126397131Y-72124254D02*
X126296115Y-72157926D01*
X126296115Y-72157926D02*
X126228772Y-72157926D01*
X126228772Y-72157926D02*
X126127757Y-72124254D01*
X126127757Y-72124254D02*
X125858383Y-71854880D01*
X127238924Y-72494643D02*
X127104237Y-72359956D01*
X127104237Y-72359956D02*
X127003222Y-72326284D01*
X127003222Y-72326284D02*
X126935879Y-72326284D01*
X126935879Y-72326284D02*
X126767520Y-72359956D01*
X126767520Y-72359956D02*
X126599161Y-72460971D01*
X126599161Y-72460971D02*
X126329787Y-72730345D01*
X126329787Y-72730345D02*
X126296115Y-72831361D01*
X126296115Y-72831361D02*
X126296115Y-72898704D01*
X126296115Y-72898704D02*
X126329787Y-72999719D01*
X126329787Y-72999719D02*
X126464474Y-73134406D01*
X126464474Y-73134406D02*
X126565489Y-73168078D01*
X126565489Y-73168078D02*
X126632833Y-73168078D01*
X126632833Y-73168078D02*
X126733848Y-73134406D01*
X126733848Y-73134406D02*
X126902207Y-72966048D01*
X126902207Y-72966048D02*
X126935879Y-72865032D01*
X126935879Y-72865032D02*
X126935879Y-72797689D01*
X126935879Y-72797689D02*
X126902207Y-72696674D01*
X126902207Y-72696674D02*
X126767520Y-72561987D01*
X126767520Y-72561987D02*
X126666505Y-72528315D01*
X126666505Y-72528315D02*
X126599161Y-72528315D01*
X126599161Y-72528315D02*
X126498146Y-72561987D01*
X155553763Y-75602761D02*
X155601383Y-75650380D01*
X155601383Y-75650380D02*
X155649002Y-75793237D01*
X155649002Y-75793237D02*
X155649002Y-75888475D01*
X155649002Y-75888475D02*
X155601383Y-76031332D01*
X155601383Y-76031332D02*
X155506144Y-76126570D01*
X155506144Y-76126570D02*
X155410906Y-76174189D01*
X155410906Y-76174189D02*
X155220430Y-76221808D01*
X155220430Y-76221808D02*
X155077573Y-76221808D01*
X155077573Y-76221808D02*
X154887097Y-76174189D01*
X154887097Y-76174189D02*
X154791859Y-76126570D01*
X154791859Y-76126570D02*
X154696621Y-76031332D01*
X154696621Y-76031332D02*
X154649002Y-75888475D01*
X154649002Y-75888475D02*
X154649002Y-75793237D01*
X154649002Y-75793237D02*
X154696621Y-75650380D01*
X154696621Y-75650380D02*
X154744240Y-75602761D01*
X154744240Y-75221808D02*
X154696621Y-75174189D01*
X154696621Y-75174189D02*
X154649002Y-75078951D01*
X154649002Y-75078951D02*
X154649002Y-74840856D01*
X154649002Y-74840856D02*
X154696621Y-74745618D01*
X154696621Y-74745618D02*
X154744240Y-74697999D01*
X154744240Y-74697999D02*
X154839478Y-74650380D01*
X154839478Y-74650380D02*
X154934716Y-74650380D01*
X154934716Y-74650380D02*
X155077573Y-74697999D01*
X155077573Y-74697999D02*
X155649002Y-75269427D01*
X155649002Y-75269427D02*
X155649002Y-74650380D01*
X154982335Y-73793237D02*
X155649002Y-73793237D01*
X154601383Y-74031332D02*
X155315668Y-74269427D01*
X155315668Y-74269427D02*
X155315668Y-73650380D01*
X95126516Y-63040723D02*
X94793183Y-62564532D01*
X94555088Y-63040723D02*
X94555088Y-62040723D01*
X94555088Y-62040723D02*
X94936040Y-62040723D01*
X94936040Y-62040723D02*
X95031278Y-62088342D01*
X95031278Y-62088342D02*
X95078897Y-62135961D01*
X95078897Y-62135961D02*
X95126516Y-62231199D01*
X95126516Y-62231199D02*
X95126516Y-62374056D01*
X95126516Y-62374056D02*
X95078897Y-62469294D01*
X95078897Y-62469294D02*
X95031278Y-62516913D01*
X95031278Y-62516913D02*
X94936040Y-62564532D01*
X94936040Y-62564532D02*
X94555088Y-62564532D01*
X95459850Y-62040723D02*
X96078897Y-62040723D01*
X96078897Y-62040723D02*
X95745564Y-62421675D01*
X95745564Y-62421675D02*
X95888421Y-62421675D01*
X95888421Y-62421675D02*
X95983659Y-62469294D01*
X95983659Y-62469294D02*
X96031278Y-62516913D01*
X96031278Y-62516913D02*
X96078897Y-62612151D01*
X96078897Y-62612151D02*
X96078897Y-62850246D01*
X96078897Y-62850246D02*
X96031278Y-62945484D01*
X96031278Y-62945484D02*
X95983659Y-62993104D01*
X95983659Y-62993104D02*
X95888421Y-63040723D01*
X95888421Y-63040723D02*
X95602707Y-63040723D01*
X95602707Y-63040723D02*
X95507469Y-62993104D01*
X95507469Y-62993104D02*
X95459850Y-62945484D01*
X158810325Y-53320484D02*
X158762706Y-53368104D01*
X158762706Y-53368104D02*
X158619849Y-53415723D01*
X158619849Y-53415723D02*
X158524611Y-53415723D01*
X158524611Y-53415723D02*
X158381754Y-53368104D01*
X158381754Y-53368104D02*
X158286516Y-53272865D01*
X158286516Y-53272865D02*
X158238897Y-53177627D01*
X158238897Y-53177627D02*
X158191278Y-52987151D01*
X158191278Y-52987151D02*
X158191278Y-52844294D01*
X158191278Y-52844294D02*
X158238897Y-52653818D01*
X158238897Y-52653818D02*
X158286516Y-52558580D01*
X158286516Y-52558580D02*
X158381754Y-52463342D01*
X158381754Y-52463342D02*
X158524611Y-52415723D01*
X158524611Y-52415723D02*
X158619849Y-52415723D01*
X158619849Y-52415723D02*
X158762706Y-52463342D01*
X158762706Y-52463342D02*
X158810325Y-52510961D01*
X159143659Y-52415723D02*
X159762706Y-52415723D01*
X159762706Y-52415723D02*
X159429373Y-52796675D01*
X159429373Y-52796675D02*
X159572230Y-52796675D01*
X159572230Y-52796675D02*
X159667468Y-52844294D01*
X159667468Y-52844294D02*
X159715087Y-52891913D01*
X159715087Y-52891913D02*
X159762706Y-52987151D01*
X159762706Y-52987151D02*
X159762706Y-53225246D01*
X159762706Y-53225246D02*
X159715087Y-53320484D01*
X159715087Y-53320484D02*
X159667468Y-53368104D01*
X159667468Y-53368104D02*
X159572230Y-53415723D01*
X159572230Y-53415723D02*
X159286516Y-53415723D01*
X159286516Y-53415723D02*
X159191278Y-53368104D01*
X159191278Y-53368104D02*
X159143659Y-53320484D01*
X160619849Y-52749056D02*
X160619849Y-53415723D01*
X160381754Y-52368104D02*
X160143659Y-53082389D01*
X160143659Y-53082389D02*
X160762706Y-53082389D01*
X129720352Y-70540597D02*
X129653008Y-70540597D01*
X129653008Y-70540597D02*
X129518321Y-70473253D01*
X129518321Y-70473253D02*
X129450978Y-70405910D01*
X129450978Y-70405910D02*
X129383634Y-70271223D01*
X129383634Y-70271223D02*
X129383634Y-70136536D01*
X129383634Y-70136536D02*
X129417306Y-70035521D01*
X129417306Y-70035521D02*
X129518321Y-69867162D01*
X129518321Y-69867162D02*
X129619336Y-69766147D01*
X129619336Y-69766147D02*
X129787695Y-69665131D01*
X129787695Y-69665131D02*
X129888710Y-69631460D01*
X129888710Y-69631460D02*
X130023397Y-69631460D01*
X130023397Y-69631460D02*
X130158084Y-69698803D01*
X130158084Y-69698803D02*
X130225428Y-69766147D01*
X130225428Y-69766147D02*
X130292771Y-69900834D01*
X130292771Y-69900834D02*
X130292771Y-69968177D01*
X130326443Y-71281375D02*
X129922382Y-70877314D01*
X130124413Y-71079345D02*
X130831519Y-70372238D01*
X130831519Y-70372238D02*
X130663161Y-70405910D01*
X130663161Y-70405910D02*
X130528474Y-70405910D01*
X130528474Y-70405910D02*
X130427458Y-70372238D01*
X131269252Y-70809971D02*
X131706985Y-71247704D01*
X131706985Y-71247704D02*
X131201909Y-71281376D01*
X131201909Y-71281376D02*
X131302924Y-71382391D01*
X131302924Y-71382391D02*
X131336596Y-71483406D01*
X131336596Y-71483406D02*
X131336596Y-71550750D01*
X131336596Y-71550750D02*
X131302924Y-71651765D01*
X131302924Y-71651765D02*
X131134565Y-71820124D01*
X131134565Y-71820124D02*
X131033550Y-71853795D01*
X131033550Y-71853795D02*
X130966207Y-71853795D01*
X130966207Y-71853795D02*
X130865191Y-71820124D01*
X130865191Y-71820124D02*
X130663161Y-71618093D01*
X130663161Y-71618093D02*
X130629489Y-71517078D01*
X130629489Y-71517078D02*
X130629489Y-71449734D01*
X139424763Y-66938761D02*
X139472383Y-66986380D01*
X139472383Y-66986380D02*
X139520002Y-67129237D01*
X139520002Y-67129237D02*
X139520002Y-67224475D01*
X139520002Y-67224475D02*
X139472383Y-67367332D01*
X139472383Y-67367332D02*
X139377144Y-67462570D01*
X139377144Y-67462570D02*
X139281906Y-67510189D01*
X139281906Y-67510189D02*
X139091430Y-67557808D01*
X139091430Y-67557808D02*
X138948573Y-67557808D01*
X138948573Y-67557808D02*
X138758097Y-67510189D01*
X138758097Y-67510189D02*
X138662859Y-67462570D01*
X138662859Y-67462570D02*
X138567621Y-67367332D01*
X138567621Y-67367332D02*
X138520002Y-67224475D01*
X138520002Y-67224475D02*
X138520002Y-67129237D01*
X138520002Y-67129237D02*
X138567621Y-66986380D01*
X138567621Y-66986380D02*
X138615240Y-66938761D01*
X139520002Y-65986380D02*
X139520002Y-66557808D01*
X139520002Y-66272094D02*
X138520002Y-66272094D01*
X138520002Y-66272094D02*
X138662859Y-66367332D01*
X138662859Y-66367332D02*
X138758097Y-66462570D01*
X138758097Y-66462570D02*
X138805716Y-66557808D01*
X139520002Y-65510189D02*
X139520002Y-65319713D01*
X139520002Y-65319713D02*
X139472383Y-65224475D01*
X139472383Y-65224475D02*
X139424763Y-65176856D01*
X139424763Y-65176856D02*
X139281906Y-65081618D01*
X139281906Y-65081618D02*
X139091430Y-65033999D01*
X139091430Y-65033999D02*
X138710478Y-65033999D01*
X138710478Y-65033999D02*
X138615240Y-65081618D01*
X138615240Y-65081618D02*
X138567621Y-65129237D01*
X138567621Y-65129237D02*
X138520002Y-65224475D01*
X138520002Y-65224475D02*
X138520002Y-65414951D01*
X138520002Y-65414951D02*
X138567621Y-65510189D01*
X138567621Y-65510189D02*
X138615240Y-65557808D01*
X138615240Y-65557808D02*
X138710478Y-65605427D01*
X138710478Y-65605427D02*
X138948573Y-65605427D01*
X138948573Y-65605427D02*
X139043811Y-65557808D01*
X139043811Y-65557808D02*
X139091430Y-65510189D01*
X139091430Y-65510189D02*
X139139049Y-65414951D01*
X139139049Y-65414951D02*
X139139049Y-65224475D01*
X139139049Y-65224475D02*
X139091430Y-65129237D01*
X139091430Y-65129237D02*
X139043811Y-65081618D01*
X139043811Y-65081618D02*
X138948573Y-65033999D01*
X104839003Y-68335761D02*
X104362812Y-68669094D01*
X104839003Y-68907189D02*
X103839003Y-68907189D01*
X103839003Y-68907189D02*
X103839003Y-68526237D01*
X103839003Y-68526237D02*
X103886622Y-68430999D01*
X103886622Y-68430999D02*
X103934241Y-68383380D01*
X103934241Y-68383380D02*
X104029479Y-68335761D01*
X104029479Y-68335761D02*
X104172336Y-68335761D01*
X104172336Y-68335761D02*
X104267574Y-68383380D01*
X104267574Y-68383380D02*
X104315193Y-68430999D01*
X104315193Y-68430999D02*
X104362812Y-68526237D01*
X104362812Y-68526237D02*
X104362812Y-68907189D01*
X103934241Y-67954808D02*
X103886622Y-67907189D01*
X103886622Y-67907189D02*
X103839003Y-67811951D01*
X103839003Y-67811951D02*
X103839003Y-67573856D01*
X103839003Y-67573856D02*
X103886622Y-67478618D01*
X103886622Y-67478618D02*
X103934241Y-67430999D01*
X103934241Y-67430999D02*
X104029479Y-67383380D01*
X104029479Y-67383380D02*
X104124717Y-67383380D01*
X104124717Y-67383380D02*
X104267574Y-67430999D01*
X104267574Y-67430999D02*
X104839003Y-68002427D01*
X104839003Y-68002427D02*
X104839003Y-67383380D01*
X103934241Y-67002427D02*
X103886622Y-66954808D01*
X103886622Y-66954808D02*
X103839003Y-66859570D01*
X103839003Y-66859570D02*
X103839003Y-66621475D01*
X103839003Y-66621475D02*
X103886622Y-66526237D01*
X103886622Y-66526237D02*
X103934241Y-66478618D01*
X103934241Y-66478618D02*
X104029479Y-66430999D01*
X104029479Y-66430999D02*
X104124717Y-66430999D01*
X104124717Y-66430999D02*
X104267574Y-66478618D01*
X104267574Y-66478618D02*
X104839003Y-67050046D01*
X104839003Y-67050046D02*
X104839003Y-66430999D01*
X133022352Y-55808596D02*
X132955008Y-55808596D01*
X132955008Y-55808596D02*
X132820321Y-55741252D01*
X132820321Y-55741252D02*
X132752978Y-55673909D01*
X132752978Y-55673909D02*
X132685634Y-55539222D01*
X132685634Y-55539222D02*
X132685634Y-55404535D01*
X132685634Y-55404535D02*
X132719306Y-55303520D01*
X132719306Y-55303520D02*
X132820321Y-55135161D01*
X132820321Y-55135161D02*
X132921336Y-55034146D01*
X132921336Y-55034146D02*
X133089695Y-54933130D01*
X133089695Y-54933130D02*
X133190710Y-54899459D01*
X133190710Y-54899459D02*
X133325397Y-54899459D01*
X133325397Y-54899459D02*
X133460084Y-54966802D01*
X133460084Y-54966802D02*
X133527428Y-55034146D01*
X133527428Y-55034146D02*
X133594771Y-55168833D01*
X133594771Y-55168833D02*
X133594771Y-55236176D01*
X133628443Y-56549374D02*
X133224382Y-56145313D01*
X133426413Y-56347344D02*
X134133519Y-55640237D01*
X134133519Y-55640237D02*
X133965161Y-55673909D01*
X133965161Y-55673909D02*
X133830474Y-55673909D01*
X133830474Y-55673909D02*
X133729458Y-55640237D01*
X134975313Y-56482031D02*
X134638596Y-56145313D01*
X134638596Y-56145313D02*
X134268207Y-56448359D01*
X134268207Y-56448359D02*
X134335550Y-56448359D01*
X134335550Y-56448359D02*
X134436565Y-56482031D01*
X134436565Y-56482031D02*
X134604924Y-56650390D01*
X134604924Y-56650390D02*
X134638596Y-56751405D01*
X134638596Y-56751405D02*
X134638596Y-56818749D01*
X134638596Y-56818749D02*
X134604924Y-56919764D01*
X134604924Y-56919764D02*
X134436565Y-57088123D01*
X134436565Y-57088123D02*
X134335550Y-57121794D01*
X134335550Y-57121794D02*
X134268207Y-57121794D01*
X134268207Y-57121794D02*
X134167191Y-57088123D01*
X134167191Y-57088123D02*
X133998833Y-56919764D01*
X133998833Y-56919764D02*
X133965161Y-56818749D01*
X133965161Y-56818749D02*
X133965161Y-56751405D01*
X110482325Y-75418484D02*
X110434706Y-75466104D01*
X110434706Y-75466104D02*
X110291849Y-75513723D01*
X110291849Y-75513723D02*
X110196611Y-75513723D01*
X110196611Y-75513723D02*
X110053754Y-75466104D01*
X110053754Y-75466104D02*
X109958516Y-75370865D01*
X109958516Y-75370865D02*
X109910897Y-75275627D01*
X109910897Y-75275627D02*
X109863278Y-75085151D01*
X109863278Y-75085151D02*
X109863278Y-74942294D01*
X109863278Y-74942294D02*
X109910897Y-74751818D01*
X109910897Y-74751818D02*
X109958516Y-74656580D01*
X109958516Y-74656580D02*
X110053754Y-74561342D01*
X110053754Y-74561342D02*
X110196611Y-74513723D01*
X110196611Y-74513723D02*
X110291849Y-74513723D01*
X110291849Y-74513723D02*
X110434706Y-74561342D01*
X110434706Y-74561342D02*
X110482325Y-74608961D01*
X110863278Y-74608961D02*
X110910897Y-74561342D01*
X110910897Y-74561342D02*
X111006135Y-74513723D01*
X111006135Y-74513723D02*
X111244230Y-74513723D01*
X111244230Y-74513723D02*
X111339468Y-74561342D01*
X111339468Y-74561342D02*
X111387087Y-74608961D01*
X111387087Y-74608961D02*
X111434706Y-74704199D01*
X111434706Y-74704199D02*
X111434706Y-74799437D01*
X111434706Y-74799437D02*
X111387087Y-74942294D01*
X111387087Y-74942294D02*
X110815659Y-75513723D01*
X110815659Y-75513723D02*
X111434706Y-75513723D01*
X112006135Y-74942294D02*
X111910897Y-74894675D01*
X111910897Y-74894675D02*
X111863278Y-74847056D01*
X111863278Y-74847056D02*
X111815659Y-74751818D01*
X111815659Y-74751818D02*
X111815659Y-74704199D01*
X111815659Y-74704199D02*
X111863278Y-74608961D01*
X111863278Y-74608961D02*
X111910897Y-74561342D01*
X111910897Y-74561342D02*
X112006135Y-74513723D01*
X112006135Y-74513723D02*
X112196611Y-74513723D01*
X112196611Y-74513723D02*
X112291849Y-74561342D01*
X112291849Y-74561342D02*
X112339468Y-74608961D01*
X112339468Y-74608961D02*
X112387087Y-74704199D01*
X112387087Y-74704199D02*
X112387087Y-74751818D01*
X112387087Y-74751818D02*
X112339468Y-74847056D01*
X112339468Y-74847056D02*
X112291849Y-74894675D01*
X112291849Y-74894675D02*
X112196611Y-74942294D01*
X112196611Y-74942294D02*
X112006135Y-74942294D01*
X112006135Y-74942294D02*
X111910897Y-74989913D01*
X111910897Y-74989913D02*
X111863278Y-75037532D01*
X111863278Y-75037532D02*
X111815659Y-75132770D01*
X111815659Y-75132770D02*
X111815659Y-75323246D01*
X111815659Y-75323246D02*
X111863278Y-75418484D01*
X111863278Y-75418484D02*
X111910897Y-75466104D01*
X111910897Y-75466104D02*
X112006135Y-75513723D01*
X112006135Y-75513723D02*
X112196611Y-75513723D01*
X112196611Y-75513723D02*
X112291849Y-75466104D01*
X112291849Y-75466104D02*
X112339468Y-75418484D01*
X112339468Y-75418484D02*
X112387087Y-75323246D01*
X112387087Y-75323246D02*
X112387087Y-75132770D01*
X112387087Y-75132770D02*
X112339468Y-75037532D01*
X112339468Y-75037532D02*
X112291849Y-74989913D01*
X112291849Y-74989913D02*
X112196611Y-74942294D01*
X93450763Y-74939761D02*
X93498383Y-74987380D01*
X93498383Y-74987380D02*
X93546002Y-75130237D01*
X93546002Y-75130237D02*
X93546002Y-75225475D01*
X93546002Y-75225475D02*
X93498383Y-75368332D01*
X93498383Y-75368332D02*
X93403144Y-75463570D01*
X93403144Y-75463570D02*
X93307906Y-75511189D01*
X93307906Y-75511189D02*
X93117430Y-75558808D01*
X93117430Y-75558808D02*
X92974573Y-75558808D01*
X92974573Y-75558808D02*
X92784097Y-75511189D01*
X92784097Y-75511189D02*
X92688859Y-75463570D01*
X92688859Y-75463570D02*
X92593621Y-75368332D01*
X92593621Y-75368332D02*
X92546002Y-75225475D01*
X92546002Y-75225475D02*
X92546002Y-75130237D01*
X92546002Y-75130237D02*
X92593621Y-74987380D01*
X92593621Y-74987380D02*
X92641240Y-74939761D01*
X92641240Y-74558808D02*
X92593621Y-74511189D01*
X92593621Y-74511189D02*
X92546002Y-74415951D01*
X92546002Y-74415951D02*
X92546002Y-74177856D01*
X92546002Y-74177856D02*
X92593621Y-74082618D01*
X92593621Y-74082618D02*
X92641240Y-74034999D01*
X92641240Y-74034999D02*
X92736478Y-73987380D01*
X92736478Y-73987380D02*
X92831716Y-73987380D01*
X92831716Y-73987380D02*
X92974573Y-74034999D01*
X92974573Y-74034999D02*
X93546002Y-74606427D01*
X93546002Y-74606427D02*
X93546002Y-73987380D01*
X93546002Y-73511189D02*
X93546002Y-73320713D01*
X93546002Y-73320713D02*
X93498383Y-73225475D01*
X93498383Y-73225475D02*
X93450763Y-73177856D01*
X93450763Y-73177856D02*
X93307906Y-73082618D01*
X93307906Y-73082618D02*
X93117430Y-73034999D01*
X93117430Y-73034999D02*
X92736478Y-73034999D01*
X92736478Y-73034999D02*
X92641240Y-73082618D01*
X92641240Y-73082618D02*
X92593621Y-73130237D01*
X92593621Y-73130237D02*
X92546002Y-73225475D01*
X92546002Y-73225475D02*
X92546002Y-73415951D01*
X92546002Y-73415951D02*
X92593621Y-73511189D01*
X92593621Y-73511189D02*
X92641240Y-73558808D01*
X92641240Y-73558808D02*
X92736478Y-73606427D01*
X92736478Y-73606427D02*
X92974573Y-73606427D01*
X92974573Y-73606427D02*
X93069811Y-73558808D01*
X93069811Y-73558808D02*
X93117430Y-73511189D01*
X93117430Y-73511189D02*
X93165049Y-73415951D01*
X93165049Y-73415951D02*
X93165049Y-73225475D01*
X93165049Y-73225475D02*
X93117430Y-73130237D01*
X93117430Y-73130237D02*
X93069811Y-73082618D01*
X93069811Y-73082618D02*
X92974573Y-73034999D01*
X128996896Y-73481723D02*
X128996896Y-72481723D01*
X128996896Y-72481723D02*
X129234991Y-72481723D01*
X129234991Y-72481723D02*
X129377848Y-72529342D01*
X129377848Y-72529342D02*
X129473086Y-72624580D01*
X129473086Y-72624580D02*
X129520705Y-72719818D01*
X129520705Y-72719818D02*
X129568324Y-72910294D01*
X129568324Y-72910294D02*
X129568324Y-73053151D01*
X129568324Y-73053151D02*
X129520705Y-73243627D01*
X129520705Y-73243627D02*
X129473086Y-73338865D01*
X129473086Y-73338865D02*
X129377848Y-73434104D01*
X129377848Y-73434104D02*
X129234991Y-73481723D01*
X129234991Y-73481723D02*
X128996896Y-73481723D01*
X130520705Y-73481723D02*
X129949277Y-73481723D01*
X130234991Y-73481723D02*
X130234991Y-72481723D01*
X130234991Y-72481723D02*
X130139753Y-72624580D01*
X130139753Y-72624580D02*
X130044515Y-72719818D01*
X130044515Y-72719818D02*
X129949277Y-72767437D01*
X131139753Y-72481723D02*
X131234991Y-72481723D01*
X131234991Y-72481723D02*
X131330229Y-72529342D01*
X131330229Y-72529342D02*
X131377848Y-72576961D01*
X131377848Y-72576961D02*
X131425467Y-72672199D01*
X131425467Y-72672199D02*
X131473086Y-72862675D01*
X131473086Y-72862675D02*
X131473086Y-73100770D01*
X131473086Y-73100770D02*
X131425467Y-73291246D01*
X131425467Y-73291246D02*
X131377848Y-73386484D01*
X131377848Y-73386484D02*
X131330229Y-73434104D01*
X131330229Y-73434104D02*
X131234991Y-73481723D01*
X131234991Y-73481723D02*
X131139753Y-73481723D01*
X131139753Y-73481723D02*
X131044515Y-73434104D01*
X131044515Y-73434104D02*
X130996896Y-73386484D01*
X130996896Y-73386484D02*
X130949277Y-73291246D01*
X130949277Y-73291246D02*
X130901658Y-73100770D01*
X130901658Y-73100770D02*
X130901658Y-72862675D01*
X130901658Y-72862675D02*
X130949277Y-72672199D01*
X130949277Y-72672199D02*
X130996896Y-72576961D01*
X130996896Y-72576961D02*
X131044515Y-72529342D01*
X131044515Y-72529342D02*
X131139753Y-72481723D01*
X130552113Y-53320484D02*
X130504494Y-53368104D01*
X130504494Y-53368104D02*
X130361637Y-53415723D01*
X130361637Y-53415723D02*
X130266399Y-53415723D01*
X130266399Y-53415723D02*
X130123542Y-53368104D01*
X130123542Y-53368104D02*
X130028304Y-53272865D01*
X130028304Y-53272865D02*
X129980685Y-53177627D01*
X129980685Y-53177627D02*
X129933066Y-52987151D01*
X129933066Y-52987151D02*
X129933066Y-52844294D01*
X129933066Y-52844294D02*
X129980685Y-52653818D01*
X129980685Y-52653818D02*
X130028304Y-52558580D01*
X130028304Y-52558580D02*
X130123542Y-52463342D01*
X130123542Y-52463342D02*
X130266399Y-52415723D01*
X130266399Y-52415723D02*
X130361637Y-52415723D01*
X130361637Y-52415723D02*
X130504494Y-52463342D01*
X130504494Y-52463342D02*
X130552113Y-52510961D01*
X130885447Y-52415723D02*
X131504494Y-52415723D01*
X131504494Y-52415723D02*
X131171161Y-52796675D01*
X131171161Y-52796675D02*
X131314018Y-52796675D01*
X131314018Y-52796675D02*
X131409256Y-52844294D01*
X131409256Y-52844294D02*
X131456875Y-52891913D01*
X131456875Y-52891913D02*
X131504494Y-52987151D01*
X131504494Y-52987151D02*
X131504494Y-53225246D01*
X131504494Y-53225246D02*
X131456875Y-53320484D01*
X131456875Y-53320484D02*
X131409256Y-53368104D01*
X131409256Y-53368104D02*
X131314018Y-53415723D01*
X131314018Y-53415723D02*
X131028304Y-53415723D01*
X131028304Y-53415723D02*
X130933066Y-53368104D01*
X130933066Y-53368104D02*
X130885447Y-53320484D01*
X132456875Y-53415723D02*
X131885447Y-53415723D01*
X132171161Y-53415723D02*
X132171161Y-52415723D01*
X132171161Y-52415723D02*
X132075923Y-52558580D01*
X132075923Y-52558580D02*
X131980685Y-52653818D01*
X131980685Y-52653818D02*
X131885447Y-52701437D01*
X99896002Y-68335761D02*
X99419811Y-68669094D01*
X99896002Y-68907189D02*
X98896002Y-68907189D01*
X98896002Y-68907189D02*
X98896002Y-68526237D01*
X98896002Y-68526237D02*
X98943621Y-68430999D01*
X98943621Y-68430999D02*
X98991240Y-68383380D01*
X98991240Y-68383380D02*
X99086478Y-68335761D01*
X99086478Y-68335761D02*
X99229335Y-68335761D01*
X99229335Y-68335761D02*
X99324573Y-68383380D01*
X99324573Y-68383380D02*
X99372192Y-68430999D01*
X99372192Y-68430999D02*
X99419811Y-68526237D01*
X99419811Y-68526237D02*
X99419811Y-68907189D01*
X99896002Y-67383380D02*
X99896002Y-67954808D01*
X99896002Y-67669094D02*
X98896002Y-67669094D01*
X98896002Y-67669094D02*
X99038859Y-67764332D01*
X99038859Y-67764332D02*
X99134097Y-67859570D01*
X99134097Y-67859570D02*
X99181716Y-67954808D01*
X98896002Y-67050046D02*
X98896002Y-66383380D01*
X98896002Y-66383380D02*
X99896002Y-66811951D01*
X95070002Y-75511189D02*
X94070002Y-75511189D01*
X94070002Y-75511189D02*
X94070002Y-75273094D01*
X94070002Y-75273094D02*
X94117621Y-75130237D01*
X94117621Y-75130237D02*
X94212859Y-75034999D01*
X94212859Y-75034999D02*
X94308097Y-74987380D01*
X94308097Y-74987380D02*
X94498573Y-74939761D01*
X94498573Y-74939761D02*
X94641430Y-74939761D01*
X94641430Y-74939761D02*
X94831906Y-74987380D01*
X94831906Y-74987380D02*
X94927144Y-75034999D01*
X94927144Y-75034999D02*
X95022383Y-75130237D01*
X95022383Y-75130237D02*
X95070002Y-75273094D01*
X95070002Y-75273094D02*
X95070002Y-75511189D01*
X95070002Y-73987380D02*
X95070002Y-74558808D01*
X95070002Y-74273094D02*
X94070002Y-74273094D01*
X94070002Y-74273094D02*
X94212859Y-74368332D01*
X94212859Y-74368332D02*
X94308097Y-74463570D01*
X94308097Y-74463570D02*
X94355716Y-74558808D01*
X94070002Y-73654046D02*
X94070002Y-73034999D01*
X94070002Y-73034999D02*
X94450954Y-73368332D01*
X94450954Y-73368332D02*
X94450954Y-73225475D01*
X94450954Y-73225475D02*
X94498573Y-73130237D01*
X94498573Y-73130237D02*
X94546192Y-73082618D01*
X94546192Y-73082618D02*
X94641430Y-73034999D01*
X94641430Y-73034999D02*
X94879525Y-73034999D01*
X94879525Y-73034999D02*
X94974763Y-73082618D01*
X94974763Y-73082618D02*
X95022383Y-73130237D01*
X95022383Y-73130237D02*
X95070002Y-73225475D01*
X95070002Y-73225475D02*
X95070002Y-73511189D01*
X95070002Y-73511189D02*
X95022383Y-73606427D01*
X95022383Y-73606427D02*
X94974763Y-73654046D01*
X159003236Y-38726140D02*
X158955617Y-38821378D01*
X158955617Y-38821378D02*
X158860379Y-38916616D01*
X158860379Y-38916616D02*
X158717521Y-39059473D01*
X158717521Y-39059473D02*
X158669902Y-39154711D01*
X158669902Y-39154711D02*
X158669902Y-39249949D01*
X158907998Y-39202330D02*
X158860379Y-39297568D01*
X158860379Y-39297568D02*
X158765140Y-39392806D01*
X158765140Y-39392806D02*
X158574664Y-39440425D01*
X158574664Y-39440425D02*
X158241331Y-39440425D01*
X158241331Y-39440425D02*
X158050855Y-39392806D01*
X158050855Y-39392806D02*
X157955617Y-39297568D01*
X157955617Y-39297568D02*
X157907998Y-39202330D01*
X157907998Y-39202330D02*
X157907998Y-39011854D01*
X157907998Y-39011854D02*
X157955617Y-38916616D01*
X157955617Y-38916616D02*
X158050855Y-38821378D01*
X158050855Y-38821378D02*
X158241331Y-38773759D01*
X158241331Y-38773759D02*
X158574664Y-38773759D01*
X158574664Y-38773759D02*
X158765140Y-38821378D01*
X158765140Y-38821378D02*
X158860379Y-38916616D01*
X158860379Y-38916616D02*
X158907998Y-39011854D01*
X158907998Y-39011854D02*
X158907998Y-39202330D01*
X158907998Y-37821378D02*
X158907998Y-38392806D01*
X158907998Y-38107092D02*
X157907998Y-38107092D01*
X157907998Y-38107092D02*
X158050855Y-38202330D01*
X158050855Y-38202330D02*
X158146093Y-38297568D01*
X158146093Y-38297568D02*
X158193712Y-38392806D01*
X161925279Y-59273723D02*
X161925279Y-60083246D01*
X161925279Y-60083246D02*
X161972898Y-60178484D01*
X161972898Y-60178484D02*
X162020517Y-60226104D01*
X162020517Y-60226104D02*
X162115755Y-60273723D01*
X162115755Y-60273723D02*
X162306231Y-60273723D01*
X162306231Y-60273723D02*
X162401469Y-60226104D01*
X162401469Y-60226104D02*
X162449088Y-60178484D01*
X162449088Y-60178484D02*
X162496707Y-60083246D01*
X162496707Y-60083246D02*
X162496707Y-59273723D01*
X162877660Y-59273723D02*
X163496707Y-59273723D01*
X163496707Y-59273723D02*
X163163374Y-59654675D01*
X163163374Y-59654675D02*
X163306231Y-59654675D01*
X163306231Y-59654675D02*
X163401469Y-59702294D01*
X163401469Y-59702294D02*
X163449088Y-59749913D01*
X163449088Y-59749913D02*
X163496707Y-59845151D01*
X163496707Y-59845151D02*
X163496707Y-60083246D01*
X163496707Y-60083246D02*
X163449088Y-60178484D01*
X163449088Y-60178484D02*
X163401469Y-60226104D01*
X163401469Y-60226104D02*
X163306231Y-60273723D01*
X163306231Y-60273723D02*
X163020517Y-60273723D01*
X163020517Y-60273723D02*
X162925279Y-60226104D01*
X162925279Y-60226104D02*
X162877660Y-60178484D01*
X132993088Y-73481723D02*
X132993088Y-72481723D01*
X132993088Y-72481723D02*
X133231183Y-72481723D01*
X133231183Y-72481723D02*
X133374040Y-72529342D01*
X133374040Y-72529342D02*
X133469278Y-72624580D01*
X133469278Y-72624580D02*
X133516897Y-72719818D01*
X133516897Y-72719818D02*
X133564516Y-72910294D01*
X133564516Y-72910294D02*
X133564516Y-73053151D01*
X133564516Y-73053151D02*
X133516897Y-73243627D01*
X133516897Y-73243627D02*
X133469278Y-73338865D01*
X133469278Y-73338865D02*
X133374040Y-73434104D01*
X133374040Y-73434104D02*
X133231183Y-73481723D01*
X133231183Y-73481723D02*
X132993088Y-73481723D01*
X134040707Y-73481723D02*
X134231183Y-73481723D01*
X134231183Y-73481723D02*
X134326421Y-73434104D01*
X134326421Y-73434104D02*
X134374040Y-73386484D01*
X134374040Y-73386484D02*
X134469278Y-73243627D01*
X134469278Y-73243627D02*
X134516897Y-73053151D01*
X134516897Y-73053151D02*
X134516897Y-72672199D01*
X134516897Y-72672199D02*
X134469278Y-72576961D01*
X134469278Y-72576961D02*
X134421659Y-72529342D01*
X134421659Y-72529342D02*
X134326421Y-72481723D01*
X134326421Y-72481723D02*
X134135945Y-72481723D01*
X134135945Y-72481723D02*
X134040707Y-72529342D01*
X134040707Y-72529342D02*
X133993088Y-72576961D01*
X133993088Y-72576961D02*
X133945469Y-72672199D01*
X133945469Y-72672199D02*
X133945469Y-72910294D01*
X133945469Y-72910294D02*
X133993088Y-73005532D01*
X133993088Y-73005532D02*
X134040707Y-73053151D01*
X134040707Y-73053151D02*
X134135945Y-73100770D01*
X134135945Y-73100770D02*
X134326421Y-73100770D01*
X134326421Y-73100770D02*
X134421659Y-73053151D01*
X134421659Y-73053151D02*
X134469278Y-73005532D01*
X134469278Y-73005532D02*
X134516897Y-72910294D01*
X155426763Y-57794761D02*
X155474383Y-57842380D01*
X155474383Y-57842380D02*
X155522002Y-57985237D01*
X155522002Y-57985237D02*
X155522002Y-58080475D01*
X155522002Y-58080475D02*
X155474383Y-58223332D01*
X155474383Y-58223332D02*
X155379144Y-58318570D01*
X155379144Y-58318570D02*
X155283906Y-58366189D01*
X155283906Y-58366189D02*
X155093430Y-58413808D01*
X155093430Y-58413808D02*
X154950573Y-58413808D01*
X154950573Y-58413808D02*
X154760097Y-58366189D01*
X154760097Y-58366189D02*
X154664859Y-58318570D01*
X154664859Y-58318570D02*
X154569621Y-58223332D01*
X154569621Y-58223332D02*
X154522002Y-58080475D01*
X154522002Y-58080475D02*
X154522002Y-57985237D01*
X154522002Y-57985237D02*
X154569621Y-57842380D01*
X154569621Y-57842380D02*
X154617240Y-57794761D01*
X154617240Y-57413808D02*
X154569621Y-57366189D01*
X154569621Y-57366189D02*
X154522002Y-57270951D01*
X154522002Y-57270951D02*
X154522002Y-57032856D01*
X154522002Y-57032856D02*
X154569621Y-56937618D01*
X154569621Y-56937618D02*
X154617240Y-56889999D01*
X154617240Y-56889999D02*
X154712478Y-56842380D01*
X154712478Y-56842380D02*
X154807716Y-56842380D01*
X154807716Y-56842380D02*
X154950573Y-56889999D01*
X154950573Y-56889999D02*
X155522002Y-57461427D01*
X155522002Y-57461427D02*
X155522002Y-56842380D01*
X154617240Y-56461427D02*
X154569621Y-56413808D01*
X154569621Y-56413808D02*
X154522002Y-56318570D01*
X154522002Y-56318570D02*
X154522002Y-56080475D01*
X154522002Y-56080475D02*
X154569621Y-55985237D01*
X154569621Y-55985237D02*
X154617240Y-55937618D01*
X154617240Y-55937618D02*
X154712478Y-55889999D01*
X154712478Y-55889999D02*
X154807716Y-55889999D01*
X154807716Y-55889999D02*
X154950573Y-55937618D01*
X154950573Y-55937618D02*
X155522002Y-56509046D01*
X155522002Y-56509046D02*
X155522002Y-55889999D01*
X127215763Y-75475762D02*
X127263383Y-75523381D01*
X127263383Y-75523381D02*
X127311002Y-75666238D01*
X127311002Y-75666238D02*
X127311002Y-75761476D01*
X127311002Y-75761476D02*
X127263383Y-75904333D01*
X127263383Y-75904333D02*
X127168144Y-75999571D01*
X127168144Y-75999571D02*
X127072906Y-76047190D01*
X127072906Y-76047190D02*
X126882430Y-76094809D01*
X126882430Y-76094809D02*
X126739573Y-76094809D01*
X126739573Y-76094809D02*
X126549097Y-76047190D01*
X126549097Y-76047190D02*
X126453859Y-75999571D01*
X126453859Y-75999571D02*
X126358621Y-75904333D01*
X126358621Y-75904333D02*
X126311002Y-75761476D01*
X126311002Y-75761476D02*
X126311002Y-75666238D01*
X126311002Y-75666238D02*
X126358621Y-75523381D01*
X126358621Y-75523381D02*
X126406240Y-75475762D01*
X126406240Y-75094809D02*
X126358621Y-75047190D01*
X126358621Y-75047190D02*
X126311002Y-74951952D01*
X126311002Y-74951952D02*
X126311002Y-74713857D01*
X126311002Y-74713857D02*
X126358621Y-74618619D01*
X126358621Y-74618619D02*
X126406240Y-74571000D01*
X126406240Y-74571000D02*
X126501478Y-74523381D01*
X126501478Y-74523381D02*
X126596716Y-74523381D01*
X126596716Y-74523381D02*
X126739573Y-74571000D01*
X126739573Y-74571000D02*
X127311002Y-75142428D01*
X127311002Y-75142428D02*
X127311002Y-74523381D01*
X126311002Y-73666238D02*
X126311002Y-73856714D01*
X126311002Y-73856714D02*
X126358621Y-73951952D01*
X126358621Y-73951952D02*
X126406240Y-73999571D01*
X126406240Y-73999571D02*
X126549097Y-74094809D01*
X126549097Y-74094809D02*
X126739573Y-74142428D01*
X126739573Y-74142428D02*
X127120525Y-74142428D01*
X127120525Y-74142428D02*
X127215763Y-74094809D01*
X127215763Y-74094809D02*
X127263383Y-74047190D01*
X127263383Y-74047190D02*
X127311002Y-73951952D01*
X127311002Y-73951952D02*
X127311002Y-73761476D01*
X127311002Y-73761476D02*
X127263383Y-73666238D01*
X127263383Y-73666238D02*
X127215763Y-73618619D01*
X127215763Y-73618619D02*
X127120525Y-73571000D01*
X127120525Y-73571000D02*
X126882430Y-73571000D01*
X126882430Y-73571000D02*
X126787192Y-73618619D01*
X126787192Y-73618619D02*
X126739573Y-73666238D01*
X126739573Y-73666238D02*
X126691954Y-73761476D01*
X126691954Y-73761476D02*
X126691954Y-73951952D01*
X126691954Y-73951952D02*
X126739573Y-74047190D01*
X126739573Y-74047190D02*
X126787192Y-74094809D01*
X126787192Y-74094809D02*
X126882430Y-74142428D01*
X97268008Y-48509940D02*
X97369023Y-47937521D01*
X96863947Y-48105879D02*
X97571054Y-47398773D01*
X97571054Y-47398773D02*
X97840428Y-47668147D01*
X97840428Y-47668147D02*
X97874100Y-47769162D01*
X97874100Y-47769162D02*
X97874100Y-47836505D01*
X97874100Y-47836505D02*
X97840428Y-47937521D01*
X97840428Y-47937521D02*
X97739413Y-48038536D01*
X97739413Y-48038536D02*
X97638397Y-48072208D01*
X97638397Y-48072208D02*
X97571054Y-48072208D01*
X97571054Y-48072208D02*
X97470039Y-48038536D01*
X97470039Y-48038536D02*
X97200665Y-47769162D01*
X97941443Y-49183375D02*
X97537382Y-48779314D01*
X97739413Y-48981345D02*
X98446519Y-48274238D01*
X98446519Y-48274238D02*
X98278161Y-48307910D01*
X98278161Y-48307910D02*
X98143474Y-48307910D01*
X98143474Y-48307910D02*
X98042458Y-48274238D01*
X99018939Y-49318063D02*
X98547535Y-49789467D01*
X99119955Y-48880330D02*
X98446520Y-49217047D01*
X98446520Y-49217047D02*
X98884252Y-49654780D01*
X94067517Y-47827723D02*
X93734184Y-47351532D01*
X93496089Y-47827723D02*
X93496089Y-46827723D01*
X93496089Y-46827723D02*
X93877041Y-46827723D01*
X93877041Y-46827723D02*
X93972279Y-46875342D01*
X93972279Y-46875342D02*
X94019898Y-46922961D01*
X94019898Y-46922961D02*
X94067517Y-47018199D01*
X94067517Y-47018199D02*
X94067517Y-47161056D01*
X94067517Y-47161056D02*
X94019898Y-47256294D01*
X94019898Y-47256294D02*
X93972279Y-47303913D01*
X93972279Y-47303913D02*
X93877041Y-47351532D01*
X93877041Y-47351532D02*
X93496089Y-47351532D01*
X94448470Y-46922961D02*
X94496089Y-46875342D01*
X94496089Y-46875342D02*
X94591327Y-46827723D01*
X94591327Y-46827723D02*
X94829422Y-46827723D01*
X94829422Y-46827723D02*
X94924660Y-46875342D01*
X94924660Y-46875342D02*
X94972279Y-46922961D01*
X94972279Y-46922961D02*
X95019898Y-47018199D01*
X95019898Y-47018199D02*
X95019898Y-47113437D01*
X95019898Y-47113437D02*
X94972279Y-47256294D01*
X94972279Y-47256294D02*
X94400851Y-47827723D01*
X94400851Y-47827723D02*
X95019898Y-47827723D01*
X135972117Y-53320484D02*
X135924498Y-53368104D01*
X135924498Y-53368104D02*
X135781641Y-53415723D01*
X135781641Y-53415723D02*
X135686403Y-53415723D01*
X135686403Y-53415723D02*
X135543546Y-53368104D01*
X135543546Y-53368104D02*
X135448308Y-53272865D01*
X135448308Y-53272865D02*
X135400689Y-53177627D01*
X135400689Y-53177627D02*
X135353070Y-52987151D01*
X135353070Y-52987151D02*
X135353070Y-52844294D01*
X135353070Y-52844294D02*
X135400689Y-52653818D01*
X135400689Y-52653818D02*
X135448308Y-52558580D01*
X135448308Y-52558580D02*
X135543546Y-52463342D01*
X135543546Y-52463342D02*
X135686403Y-52415723D01*
X135686403Y-52415723D02*
X135781641Y-52415723D01*
X135781641Y-52415723D02*
X135924498Y-52463342D01*
X135924498Y-52463342D02*
X135972117Y-52510961D01*
X136305451Y-52415723D02*
X136924498Y-52415723D01*
X136924498Y-52415723D02*
X136591165Y-52796675D01*
X136591165Y-52796675D02*
X136734022Y-52796675D01*
X136734022Y-52796675D02*
X136829260Y-52844294D01*
X136829260Y-52844294D02*
X136876879Y-52891913D01*
X136876879Y-52891913D02*
X136924498Y-52987151D01*
X136924498Y-52987151D02*
X136924498Y-53225246D01*
X136924498Y-53225246D02*
X136876879Y-53320484D01*
X136876879Y-53320484D02*
X136829260Y-53368104D01*
X136829260Y-53368104D02*
X136734022Y-53415723D01*
X136734022Y-53415723D02*
X136448308Y-53415723D01*
X136448308Y-53415723D02*
X136353070Y-53368104D01*
X136353070Y-53368104D02*
X136305451Y-53320484D01*
X137305451Y-52510961D02*
X137353070Y-52463342D01*
X137353070Y-52463342D02*
X137448308Y-52415723D01*
X137448308Y-52415723D02*
X137686403Y-52415723D01*
X137686403Y-52415723D02*
X137781641Y-52463342D01*
X137781641Y-52463342D02*
X137829260Y-52510961D01*
X137829260Y-52510961D02*
X137876879Y-52606199D01*
X137876879Y-52606199D02*
X137876879Y-52701437D01*
X137876879Y-52701437D02*
X137829260Y-52844294D01*
X137829260Y-52844294D02*
X137257832Y-53415723D01*
X137257832Y-53415723D02*
X137876879Y-53415723D01*
X166623247Y-38848141D02*
X166575628Y-38943379D01*
X166575628Y-38943379D02*
X166480390Y-39038617D01*
X166480390Y-39038617D02*
X166337532Y-39181474D01*
X166337532Y-39181474D02*
X166289913Y-39276712D01*
X166289913Y-39276712D02*
X166289913Y-39371950D01*
X166528009Y-39324331D02*
X166480390Y-39419569D01*
X166480390Y-39419569D02*
X166385151Y-39514807D01*
X166385151Y-39514807D02*
X166194675Y-39562426D01*
X166194675Y-39562426D02*
X165861342Y-39562426D01*
X165861342Y-39562426D02*
X165670866Y-39514807D01*
X165670866Y-39514807D02*
X165575628Y-39419569D01*
X165575628Y-39419569D02*
X165528009Y-39324331D01*
X165528009Y-39324331D02*
X165528009Y-39133855D01*
X165528009Y-39133855D02*
X165575628Y-39038617D01*
X165575628Y-39038617D02*
X165670866Y-38943379D01*
X165670866Y-38943379D02*
X165861342Y-38895760D01*
X165861342Y-38895760D02*
X166194675Y-38895760D01*
X166194675Y-38895760D02*
X166385151Y-38943379D01*
X166385151Y-38943379D02*
X166480390Y-39038617D01*
X166480390Y-39038617D02*
X166528009Y-39133855D01*
X166528009Y-39133855D02*
X166528009Y-39324331D01*
X165623247Y-38514807D02*
X165575628Y-38467188D01*
X165575628Y-38467188D02*
X165528009Y-38371950D01*
X165528009Y-38371950D02*
X165528009Y-38133855D01*
X165528009Y-38133855D02*
X165575628Y-38038617D01*
X165575628Y-38038617D02*
X165623247Y-37990998D01*
X165623247Y-37990998D02*
X165718485Y-37943379D01*
X165718485Y-37943379D02*
X165813723Y-37943379D01*
X165813723Y-37943379D02*
X165956580Y-37990998D01*
X165956580Y-37990998D02*
X166528009Y-38562426D01*
X166528009Y-38562426D02*
X166528009Y-37943379D01*
X139424763Y-63100762D02*
X139472383Y-63148381D01*
X139472383Y-63148381D02*
X139520002Y-63291238D01*
X139520002Y-63291238D02*
X139520002Y-63386476D01*
X139520002Y-63386476D02*
X139472383Y-63529333D01*
X139472383Y-63529333D02*
X139377144Y-63624571D01*
X139377144Y-63624571D02*
X139281906Y-63672190D01*
X139281906Y-63672190D02*
X139091430Y-63719809D01*
X139091430Y-63719809D02*
X138948573Y-63719809D01*
X138948573Y-63719809D02*
X138758097Y-63672190D01*
X138758097Y-63672190D02*
X138662859Y-63624571D01*
X138662859Y-63624571D02*
X138567621Y-63529333D01*
X138567621Y-63529333D02*
X138520002Y-63386476D01*
X138520002Y-63386476D02*
X138520002Y-63291238D01*
X138520002Y-63291238D02*
X138567621Y-63148381D01*
X138567621Y-63148381D02*
X138615240Y-63100762D01*
X139520002Y-62148381D02*
X139520002Y-62719809D01*
X139520002Y-62434095D02*
X138520002Y-62434095D01*
X138520002Y-62434095D02*
X138662859Y-62529333D01*
X138662859Y-62529333D02*
X138758097Y-62624571D01*
X138758097Y-62624571D02*
X138805716Y-62719809D01*
X138948573Y-61576952D02*
X138900954Y-61672190D01*
X138900954Y-61672190D02*
X138853335Y-61719809D01*
X138853335Y-61719809D02*
X138758097Y-61767428D01*
X138758097Y-61767428D02*
X138710478Y-61767428D01*
X138710478Y-61767428D02*
X138615240Y-61719809D01*
X138615240Y-61719809D02*
X138567621Y-61672190D01*
X138567621Y-61672190D02*
X138520002Y-61576952D01*
X138520002Y-61576952D02*
X138520002Y-61386476D01*
X138520002Y-61386476D02*
X138567621Y-61291238D01*
X138567621Y-61291238D02*
X138615240Y-61243619D01*
X138615240Y-61243619D02*
X138710478Y-61196000D01*
X138710478Y-61196000D02*
X138758097Y-61196000D01*
X138758097Y-61196000D02*
X138853335Y-61243619D01*
X138853335Y-61243619D02*
X138900954Y-61291238D01*
X138900954Y-61291238D02*
X138948573Y-61386476D01*
X138948573Y-61386476D02*
X138948573Y-61576952D01*
X138948573Y-61576952D02*
X138996192Y-61672190D01*
X138996192Y-61672190D02*
X139043811Y-61719809D01*
X139043811Y-61719809D02*
X139139049Y-61767428D01*
X139139049Y-61767428D02*
X139329525Y-61767428D01*
X139329525Y-61767428D02*
X139424763Y-61719809D01*
X139424763Y-61719809D02*
X139472383Y-61672190D01*
X139472383Y-61672190D02*
X139520002Y-61576952D01*
X139520002Y-61576952D02*
X139520002Y-61386476D01*
X139520002Y-61386476D02*
X139472383Y-61291238D01*
X139472383Y-61291238D02*
X139424763Y-61243619D01*
X139424763Y-61243619D02*
X139329525Y-61196000D01*
X139329525Y-61196000D02*
X139139049Y-61196000D01*
X139139049Y-61196000D02*
X139043811Y-61243619D01*
X139043811Y-61243619D02*
X138996192Y-61291238D01*
X138996192Y-61291238D02*
X138948573Y-61386476D01*
X142018238Y-38751295D02*
X141970619Y-38846533D01*
X141970619Y-38846533D02*
X141875381Y-38941771D01*
X141875381Y-38941771D02*
X141732523Y-39084628D01*
X141732523Y-39084628D02*
X141684904Y-39179866D01*
X141684904Y-39179866D02*
X141684904Y-39275104D01*
X141923000Y-39227485D02*
X141875381Y-39322723D01*
X141875381Y-39322723D02*
X141780142Y-39417961D01*
X141780142Y-39417961D02*
X141589666Y-39465580D01*
X141589666Y-39465580D02*
X141256333Y-39465580D01*
X141256333Y-39465580D02*
X141065857Y-39417961D01*
X141065857Y-39417961D02*
X140970619Y-39322723D01*
X140970619Y-39322723D02*
X140923000Y-39227485D01*
X140923000Y-39227485D02*
X140923000Y-39037009D01*
X140923000Y-39037009D02*
X140970619Y-38941771D01*
X140970619Y-38941771D02*
X141065857Y-38846533D01*
X141065857Y-38846533D02*
X141256333Y-38798914D01*
X141256333Y-38798914D02*
X141589666Y-38798914D01*
X141589666Y-38798914D02*
X141780142Y-38846533D01*
X141780142Y-38846533D02*
X141875381Y-38941771D01*
X141875381Y-38941771D02*
X141923000Y-39037009D01*
X141923000Y-39037009D02*
X141923000Y-39227485D01*
X141256333Y-37941771D02*
X141923000Y-37941771D01*
X140875381Y-38179866D02*
X141589666Y-38417961D01*
X141589666Y-38417961D02*
X141589666Y-37798914D01*
X116406002Y-70838761D02*
X115929811Y-71172094D01*
X116406002Y-71410189D02*
X115406002Y-71410189D01*
X115406002Y-71410189D02*
X115406002Y-71029237D01*
X115406002Y-71029237D02*
X115453621Y-70933999D01*
X115453621Y-70933999D02*
X115501240Y-70886380D01*
X115501240Y-70886380D02*
X115596478Y-70838761D01*
X115596478Y-70838761D02*
X115739335Y-70838761D01*
X115739335Y-70838761D02*
X115834573Y-70886380D01*
X115834573Y-70886380D02*
X115882192Y-70933999D01*
X115882192Y-70933999D02*
X115929811Y-71029237D01*
X115929811Y-71029237D02*
X115929811Y-71410189D01*
X116406002Y-69886380D02*
X116406002Y-70457808D01*
X116406002Y-70172094D02*
X115406002Y-70172094D01*
X115406002Y-70172094D02*
X115548859Y-70267332D01*
X115548859Y-70267332D02*
X115644097Y-70362570D01*
X115644097Y-70362570D02*
X115691716Y-70457808D01*
X116406002Y-69410189D02*
X116406002Y-69219713D01*
X116406002Y-69219713D02*
X116358383Y-69124475D01*
X116358383Y-69124475D02*
X116310763Y-69076856D01*
X116310763Y-69076856D02*
X116167906Y-68981618D01*
X116167906Y-68981618D02*
X115977430Y-68933999D01*
X115977430Y-68933999D02*
X115596478Y-68933999D01*
X115596478Y-68933999D02*
X115501240Y-68981618D01*
X115501240Y-68981618D02*
X115453621Y-69029237D01*
X115453621Y-69029237D02*
X115406002Y-69124475D01*
X115406002Y-69124475D02*
X115406002Y-69314951D01*
X115406002Y-69314951D02*
X115453621Y-69410189D01*
X115453621Y-69410189D02*
X115501240Y-69457808D01*
X115501240Y-69457808D02*
X115596478Y-69505427D01*
X115596478Y-69505427D02*
X115834573Y-69505427D01*
X115834573Y-69505427D02*
X115929811Y-69457808D01*
X115929811Y-69457808D02*
X115977430Y-69410189D01*
X115977430Y-69410189D02*
X116025049Y-69314951D01*
X116025049Y-69314951D02*
X116025049Y-69124475D01*
X116025049Y-69124475D02*
X115977430Y-69029237D01*
X115977430Y-69029237D02*
X115929811Y-68981618D01*
X115929811Y-68981618D02*
X115834573Y-68933999D01*
X145216897Y-71195723D02*
X145216897Y-70195723D01*
X145216897Y-70195723D02*
X145454992Y-70195723D01*
X145454992Y-70195723D02*
X145597849Y-70243342D01*
X145597849Y-70243342D02*
X145693087Y-70338580D01*
X145693087Y-70338580D02*
X145740706Y-70433818D01*
X145740706Y-70433818D02*
X145788325Y-70624294D01*
X145788325Y-70624294D02*
X145788325Y-70767151D01*
X145788325Y-70767151D02*
X145740706Y-70957627D01*
X145740706Y-70957627D02*
X145693087Y-71052865D01*
X145693087Y-71052865D02*
X145597849Y-71148104D01*
X145597849Y-71148104D02*
X145454992Y-71195723D01*
X145454992Y-71195723D02*
X145216897Y-71195723D01*
X146740706Y-71195723D02*
X146169278Y-71195723D01*
X146454992Y-71195723D02*
X146454992Y-70195723D01*
X146454992Y-70195723D02*
X146359754Y-70338580D01*
X146359754Y-70338580D02*
X146264516Y-70433818D01*
X146264516Y-70433818D02*
X146169278Y-70481437D01*
X147216897Y-71195723D02*
X147407373Y-71195723D01*
X147407373Y-71195723D02*
X147502611Y-71148104D01*
X147502611Y-71148104D02*
X147550230Y-71100484D01*
X147550230Y-71100484D02*
X147645468Y-70957627D01*
X147645468Y-70957627D02*
X147693087Y-70767151D01*
X147693087Y-70767151D02*
X147693087Y-70386199D01*
X147693087Y-70386199D02*
X147645468Y-70290961D01*
X147645468Y-70290961D02*
X147597849Y-70243342D01*
X147597849Y-70243342D02*
X147502611Y-70195723D01*
X147502611Y-70195723D02*
X147312135Y-70195723D01*
X147312135Y-70195723D02*
X147216897Y-70243342D01*
X147216897Y-70243342D02*
X147169278Y-70290961D01*
X147169278Y-70290961D02*
X147121659Y-70386199D01*
X147121659Y-70386199D02*
X147121659Y-70624294D01*
X147121659Y-70624294D02*
X147169278Y-70719532D01*
X147169278Y-70719532D02*
X147216897Y-70767151D01*
X147216897Y-70767151D02*
X147312135Y-70814770D01*
X147312135Y-70814770D02*
X147502611Y-70814770D01*
X147502611Y-70814770D02*
X147597849Y-70767151D01*
X147597849Y-70767151D02*
X147645468Y-70719532D01*
X147645468Y-70719532D02*
X147693087Y-70624294D01*
X114532763Y-48047570D02*
X114580383Y-48095189D01*
X114580383Y-48095189D02*
X114628002Y-48238046D01*
X114628002Y-48238046D02*
X114628002Y-48333284D01*
X114628002Y-48333284D02*
X114580383Y-48476141D01*
X114580383Y-48476141D02*
X114485144Y-48571379D01*
X114485144Y-48571379D02*
X114389906Y-48618998D01*
X114389906Y-48618998D02*
X114199430Y-48666617D01*
X114199430Y-48666617D02*
X114056573Y-48666617D01*
X114056573Y-48666617D02*
X113866097Y-48618998D01*
X113866097Y-48618998D02*
X113770859Y-48571379D01*
X113770859Y-48571379D02*
X113675621Y-48476141D01*
X113675621Y-48476141D02*
X113628002Y-48333284D01*
X113628002Y-48333284D02*
X113628002Y-48238046D01*
X113628002Y-48238046D02*
X113675621Y-48095189D01*
X113675621Y-48095189D02*
X113723240Y-48047570D01*
X113628002Y-47142808D02*
X113628002Y-47618998D01*
X113628002Y-47618998D02*
X114104192Y-47666617D01*
X114104192Y-47666617D02*
X114056573Y-47618998D01*
X114056573Y-47618998D02*
X114008954Y-47523760D01*
X114008954Y-47523760D02*
X114008954Y-47285665D01*
X114008954Y-47285665D02*
X114056573Y-47190427D01*
X114056573Y-47190427D02*
X114104192Y-47142808D01*
X114104192Y-47142808D02*
X114199430Y-47095189D01*
X114199430Y-47095189D02*
X114437525Y-47095189D01*
X114437525Y-47095189D02*
X114532763Y-47142808D01*
X114532763Y-47142808D02*
X114580383Y-47190427D01*
X114580383Y-47190427D02*
X114628002Y-47285665D01*
X114628002Y-47285665D02*
X114628002Y-47523760D01*
X114628002Y-47523760D02*
X114580383Y-47618998D01*
X114580383Y-47618998D02*
X114532763Y-47666617D01*
X103188003Y-68335761D02*
X102711812Y-68669094D01*
X103188003Y-68907189D02*
X102188003Y-68907189D01*
X102188003Y-68907189D02*
X102188003Y-68526237D01*
X102188003Y-68526237D02*
X102235622Y-68430999D01*
X102235622Y-68430999D02*
X102283241Y-68383380D01*
X102283241Y-68383380D02*
X102378479Y-68335761D01*
X102378479Y-68335761D02*
X102521336Y-68335761D01*
X102521336Y-68335761D02*
X102616574Y-68383380D01*
X102616574Y-68383380D02*
X102664193Y-68430999D01*
X102664193Y-68430999D02*
X102711812Y-68526237D01*
X102711812Y-68526237D02*
X102711812Y-68907189D01*
X102283241Y-67954808D02*
X102235622Y-67907189D01*
X102235622Y-67907189D02*
X102188003Y-67811951D01*
X102188003Y-67811951D02*
X102188003Y-67573856D01*
X102188003Y-67573856D02*
X102235622Y-67478618D01*
X102235622Y-67478618D02*
X102283241Y-67430999D01*
X102283241Y-67430999D02*
X102378479Y-67383380D01*
X102378479Y-67383380D02*
X102473717Y-67383380D01*
X102473717Y-67383380D02*
X102616574Y-67430999D01*
X102616574Y-67430999D02*
X103188003Y-68002427D01*
X103188003Y-68002427D02*
X103188003Y-67383380D01*
X103188003Y-66430999D02*
X103188003Y-67002427D01*
X103188003Y-66716713D02*
X102188003Y-66716713D01*
X102188003Y-66716713D02*
X102330860Y-66811951D01*
X102330860Y-66811951D02*
X102426098Y-66907189D01*
X102426098Y-66907189D02*
X102473717Y-67002427D01*
X138390516Y-58076490D02*
X138057183Y-57600299D01*
X137819088Y-58076490D02*
X137819088Y-57076490D01*
X137819088Y-57076490D02*
X138200040Y-57076490D01*
X138200040Y-57076490D02*
X138295278Y-57124109D01*
X138295278Y-57124109D02*
X138342897Y-57171728D01*
X138342897Y-57171728D02*
X138390516Y-57266966D01*
X138390516Y-57266966D02*
X138390516Y-57409823D01*
X138390516Y-57409823D02*
X138342897Y-57505061D01*
X138342897Y-57505061D02*
X138295278Y-57552680D01*
X138295278Y-57552680D02*
X138200040Y-57600299D01*
X138200040Y-57600299D02*
X137819088Y-57600299D01*
X138961945Y-57505061D02*
X138866707Y-57457442D01*
X138866707Y-57457442D02*
X138819088Y-57409823D01*
X138819088Y-57409823D02*
X138771469Y-57314585D01*
X138771469Y-57314585D02*
X138771469Y-57266966D01*
X138771469Y-57266966D02*
X138819088Y-57171728D01*
X138819088Y-57171728D02*
X138866707Y-57124109D01*
X138866707Y-57124109D02*
X138961945Y-57076490D01*
X138961945Y-57076490D02*
X139152421Y-57076490D01*
X139152421Y-57076490D02*
X139247659Y-57124109D01*
X139247659Y-57124109D02*
X139295278Y-57171728D01*
X139295278Y-57171728D02*
X139342897Y-57266966D01*
X139342897Y-57266966D02*
X139342897Y-57314585D01*
X139342897Y-57314585D02*
X139295278Y-57409823D01*
X139295278Y-57409823D02*
X139247659Y-57457442D01*
X139247659Y-57457442D02*
X139152421Y-57505061D01*
X139152421Y-57505061D02*
X138961945Y-57505061D01*
X138961945Y-57505061D02*
X138866707Y-57552680D01*
X138866707Y-57552680D02*
X138819088Y-57600299D01*
X138819088Y-57600299D02*
X138771469Y-57695537D01*
X138771469Y-57695537D02*
X138771469Y-57886013D01*
X138771469Y-57886013D02*
X138819088Y-57981251D01*
X138819088Y-57981251D02*
X138866707Y-58028871D01*
X138866707Y-58028871D02*
X138961945Y-58076490D01*
X138961945Y-58076490D02*
X139152421Y-58076490D01*
X139152421Y-58076490D02*
X139247659Y-58028871D01*
X139247659Y-58028871D02*
X139295278Y-57981251D01*
X139295278Y-57981251D02*
X139342897Y-57886013D01*
X139342897Y-57886013D02*
X139342897Y-57695537D01*
X139342897Y-57695537D02*
X139295278Y-57600299D01*
X139295278Y-57600299D02*
X139247659Y-57552680D01*
X139247659Y-57552680D02*
X139152421Y-57505061D01*
X151874325Y-53415723D02*
X151540992Y-52939532D01*
X151302897Y-53415723D02*
X151302897Y-52415723D01*
X151302897Y-52415723D02*
X151683849Y-52415723D01*
X151683849Y-52415723D02*
X151779087Y-52463342D01*
X151779087Y-52463342D02*
X151826706Y-52510961D01*
X151826706Y-52510961D02*
X151874325Y-52606199D01*
X151874325Y-52606199D02*
X151874325Y-52749056D01*
X151874325Y-52749056D02*
X151826706Y-52844294D01*
X151826706Y-52844294D02*
X151779087Y-52891913D01*
X151779087Y-52891913D02*
X151683849Y-52939532D01*
X151683849Y-52939532D02*
X151302897Y-52939532D01*
X152826706Y-53415723D02*
X152255278Y-53415723D01*
X152540992Y-53415723D02*
X152540992Y-52415723D01*
X152540992Y-52415723D02*
X152445754Y-52558580D01*
X152445754Y-52558580D02*
X152350516Y-52653818D01*
X152350516Y-52653818D02*
X152255278Y-52701437D01*
X153445754Y-52415723D02*
X153540992Y-52415723D01*
X153540992Y-52415723D02*
X153636230Y-52463342D01*
X153636230Y-52463342D02*
X153683849Y-52510961D01*
X153683849Y-52510961D02*
X153731468Y-52606199D01*
X153731468Y-52606199D02*
X153779087Y-52796675D01*
X153779087Y-52796675D02*
X153779087Y-53034770D01*
X153779087Y-53034770D02*
X153731468Y-53225246D01*
X153731468Y-53225246D02*
X153683849Y-53320484D01*
X153683849Y-53320484D02*
X153636230Y-53368104D01*
X153636230Y-53368104D02*
X153540992Y-53415723D01*
X153540992Y-53415723D02*
X153445754Y-53415723D01*
X153445754Y-53415723D02*
X153350516Y-53368104D01*
X153350516Y-53368104D02*
X153302897Y-53320484D01*
X153302897Y-53320484D02*
X153255278Y-53225246D01*
X153255278Y-53225246D02*
X153207659Y-53034770D01*
X153207659Y-53034770D02*
X153207659Y-52796675D01*
X153207659Y-52796675D02*
X153255278Y-52606199D01*
X153255278Y-52606199D02*
X153302897Y-52510961D01*
X153302897Y-52510961D02*
X153350516Y-52463342D01*
X153350516Y-52463342D02*
X153445754Y-52415723D01*
X112580192Y-48285665D02*
X112580192Y-48618998D01*
X113104002Y-48618998D02*
X112104002Y-48618998D01*
X112104002Y-48618998D02*
X112104002Y-48142808D01*
X112580192Y-47428522D02*
X112627811Y-47285665D01*
X112627811Y-47285665D02*
X112675430Y-47238046D01*
X112675430Y-47238046D02*
X112770668Y-47190427D01*
X112770668Y-47190427D02*
X112913525Y-47190427D01*
X112913525Y-47190427D02*
X113008763Y-47238046D01*
X113008763Y-47238046D02*
X113056383Y-47285665D01*
X113056383Y-47285665D02*
X113104002Y-47380903D01*
X113104002Y-47380903D02*
X113104002Y-47761855D01*
X113104002Y-47761855D02*
X112104002Y-47761855D01*
X112104002Y-47761855D02*
X112104002Y-47428522D01*
X112104002Y-47428522D02*
X112151621Y-47333284D01*
X112151621Y-47333284D02*
X112199240Y-47285665D01*
X112199240Y-47285665D02*
X112294478Y-47238046D01*
X112294478Y-47238046D02*
X112389716Y-47238046D01*
X112389716Y-47238046D02*
X112484954Y-47285665D01*
X112484954Y-47285665D02*
X112532573Y-47333284D01*
X112532573Y-47333284D02*
X112580192Y-47428522D01*
X112580192Y-47428522D02*
X112580192Y-47761855D01*
X113104002Y-46238046D02*
X113104002Y-46809474D01*
X113104002Y-46523760D02*
X112104002Y-46523760D01*
X112104002Y-46523760D02*
X112246859Y-46618998D01*
X112246859Y-46618998D02*
X112342097Y-46714236D01*
X112342097Y-46714236D02*
X112389716Y-46809474D01*
X118946002Y-70875761D02*
X118469811Y-71209094D01*
X118946002Y-71447189D02*
X117946002Y-71447189D01*
X117946002Y-71447189D02*
X117946002Y-71066237D01*
X117946002Y-71066237D02*
X117993621Y-70970999D01*
X117993621Y-70970999D02*
X118041240Y-70923380D01*
X118041240Y-70923380D02*
X118136478Y-70875761D01*
X118136478Y-70875761D02*
X118279335Y-70875761D01*
X118279335Y-70875761D02*
X118374573Y-70923380D01*
X118374573Y-70923380D02*
X118422192Y-70970999D01*
X118422192Y-70970999D02*
X118469811Y-71066237D01*
X118469811Y-71066237D02*
X118469811Y-71447189D01*
X118041240Y-70494808D02*
X117993621Y-70447189D01*
X117993621Y-70447189D02*
X117946002Y-70351951D01*
X117946002Y-70351951D02*
X117946002Y-70113856D01*
X117946002Y-70113856D02*
X117993621Y-70018618D01*
X117993621Y-70018618D02*
X118041240Y-69970999D01*
X118041240Y-69970999D02*
X118136478Y-69923380D01*
X118136478Y-69923380D02*
X118231716Y-69923380D01*
X118231716Y-69923380D02*
X118374573Y-69970999D01*
X118374573Y-69970999D02*
X118946002Y-70542427D01*
X118946002Y-70542427D02*
X118946002Y-69923380D01*
X117946002Y-69304332D02*
X117946002Y-69209094D01*
X117946002Y-69209094D02*
X117993621Y-69113856D01*
X117993621Y-69113856D02*
X118041240Y-69066237D01*
X118041240Y-69066237D02*
X118136478Y-69018618D01*
X118136478Y-69018618D02*
X118326954Y-68970999D01*
X118326954Y-68970999D02*
X118565049Y-68970999D01*
X118565049Y-68970999D02*
X118755525Y-69018618D01*
X118755525Y-69018618D02*
X118850763Y-69066237D01*
X118850763Y-69066237D02*
X118898383Y-69113856D01*
X118898383Y-69113856D02*
X118946002Y-69209094D01*
X118946002Y-69209094D02*
X118946002Y-69304332D01*
X118946002Y-69304332D02*
X118898383Y-69399570D01*
X118898383Y-69399570D02*
X118850763Y-69447189D01*
X118850763Y-69447189D02*
X118755525Y-69494808D01*
X118755525Y-69494808D02*
X118565049Y-69542427D01*
X118565049Y-69542427D02*
X118326954Y-69542427D01*
X118326954Y-69542427D02*
X118136478Y-69494808D01*
X118136478Y-69494808D02*
X118041240Y-69447189D01*
X118041240Y-69447189D02*
X117993621Y-69399570D01*
X117993621Y-69399570D02*
X117946002Y-69304332D01*
X97514763Y-38871761D02*
X97562383Y-38919380D01*
X97562383Y-38919380D02*
X97610002Y-39062237D01*
X97610002Y-39062237D02*
X97610002Y-39157475D01*
X97610002Y-39157475D02*
X97562383Y-39300332D01*
X97562383Y-39300332D02*
X97467144Y-39395570D01*
X97467144Y-39395570D02*
X97371906Y-39443189D01*
X97371906Y-39443189D02*
X97181430Y-39490808D01*
X97181430Y-39490808D02*
X97038573Y-39490808D01*
X97038573Y-39490808D02*
X96848097Y-39443189D01*
X96848097Y-39443189D02*
X96752859Y-39395570D01*
X96752859Y-39395570D02*
X96657621Y-39300332D01*
X96657621Y-39300332D02*
X96610002Y-39157475D01*
X96610002Y-39157475D02*
X96610002Y-39062237D01*
X96610002Y-39062237D02*
X96657621Y-38919380D01*
X96657621Y-38919380D02*
X96705240Y-38871761D01*
X96705240Y-38490808D02*
X96657621Y-38443189D01*
X96657621Y-38443189D02*
X96610002Y-38347951D01*
X96610002Y-38347951D02*
X96610002Y-38109856D01*
X96610002Y-38109856D02*
X96657621Y-38014618D01*
X96657621Y-38014618D02*
X96705240Y-37966999D01*
X96705240Y-37966999D02*
X96800478Y-37919380D01*
X96800478Y-37919380D02*
X96895716Y-37919380D01*
X96895716Y-37919380D02*
X97038573Y-37966999D01*
X97038573Y-37966999D02*
X97610002Y-38538427D01*
X97610002Y-38538427D02*
X97610002Y-37919380D01*
X96610002Y-37586046D02*
X96610002Y-36966999D01*
X96610002Y-36966999D02*
X96990954Y-37300332D01*
X96990954Y-37300332D02*
X96990954Y-37157475D01*
X96990954Y-37157475D02*
X97038573Y-37062237D01*
X97038573Y-37062237D02*
X97086192Y-37014618D01*
X97086192Y-37014618D02*
X97181430Y-36966999D01*
X97181430Y-36966999D02*
X97419525Y-36966999D01*
X97419525Y-36966999D02*
X97514763Y-37014618D01*
X97514763Y-37014618D02*
X97562383Y-37062237D01*
X97562383Y-37062237D02*
X97610002Y-37157475D01*
X97610002Y-37157475D02*
X97610002Y-37443189D01*
X97610002Y-37443189D02*
X97562383Y-37538427D01*
X97562383Y-37538427D02*
X97514763Y-37586046D01*
X91888089Y-70687723D02*
X91888089Y-69687723D01*
X91888089Y-69687723D02*
X92126184Y-69687723D01*
X92126184Y-69687723D02*
X92269041Y-69735342D01*
X92269041Y-69735342D02*
X92364279Y-69830580D01*
X92364279Y-69830580D02*
X92411898Y-69925818D01*
X92411898Y-69925818D02*
X92459517Y-70116294D01*
X92459517Y-70116294D02*
X92459517Y-70259151D01*
X92459517Y-70259151D02*
X92411898Y-70449627D01*
X92411898Y-70449627D02*
X92364279Y-70544865D01*
X92364279Y-70544865D02*
X92269041Y-70640104D01*
X92269041Y-70640104D02*
X92126184Y-70687723D01*
X92126184Y-70687723D02*
X91888089Y-70687723D01*
X92792851Y-69687723D02*
X93411898Y-69687723D01*
X93411898Y-69687723D02*
X93078565Y-70068675D01*
X93078565Y-70068675D02*
X93221422Y-70068675D01*
X93221422Y-70068675D02*
X93316660Y-70116294D01*
X93316660Y-70116294D02*
X93364279Y-70163913D01*
X93364279Y-70163913D02*
X93411898Y-70259151D01*
X93411898Y-70259151D02*
X93411898Y-70497246D01*
X93411898Y-70497246D02*
X93364279Y-70592484D01*
X93364279Y-70592484D02*
X93316660Y-70640104D01*
X93316660Y-70640104D02*
X93221422Y-70687723D01*
X93221422Y-70687723D02*
X92935708Y-70687723D01*
X92935708Y-70687723D02*
X92840470Y-70640104D01*
X92840470Y-70640104D02*
X92792851Y-70592484D01*
X158564002Y-75724497D02*
X157564002Y-75724497D01*
X157564002Y-75724497D02*
X157564002Y-75486402D01*
X157564002Y-75486402D02*
X157611621Y-75343545D01*
X157611621Y-75343545D02*
X157706859Y-75248307D01*
X157706859Y-75248307D02*
X157802097Y-75200688D01*
X157802097Y-75200688D02*
X157992573Y-75153069D01*
X157992573Y-75153069D02*
X158135430Y-75153069D01*
X158135430Y-75153069D02*
X158325906Y-75200688D01*
X158325906Y-75200688D02*
X158421144Y-75248307D01*
X158421144Y-75248307D02*
X158516383Y-75343545D01*
X158516383Y-75343545D02*
X158564002Y-75486402D01*
X158564002Y-75486402D02*
X158564002Y-75724497D01*
X157564002Y-74248307D02*
X157564002Y-74724497D01*
X157564002Y-74724497D02*
X158040192Y-74772116D01*
X158040192Y-74772116D02*
X157992573Y-74724497D01*
X157992573Y-74724497D02*
X157944954Y-74629259D01*
X157944954Y-74629259D02*
X157944954Y-74391164D01*
X157944954Y-74391164D02*
X157992573Y-74295926D01*
X157992573Y-74295926D02*
X158040192Y-74248307D01*
X158040192Y-74248307D02*
X158135430Y-74200688D01*
X158135430Y-74200688D02*
X158373525Y-74200688D01*
X158373525Y-74200688D02*
X158468763Y-74248307D01*
X158468763Y-74248307D02*
X158516383Y-74295926D01*
X158516383Y-74295926D02*
X158564002Y-74391164D01*
X158564002Y-74391164D02*
X158564002Y-74629259D01*
X158564002Y-74629259D02*
X158516383Y-74724497D01*
X158516383Y-74724497D02*
X158468763Y-74772116D01*
X149542502Y-75741998D02*
X148542502Y-75741998D01*
X148542502Y-75741998D02*
X148542502Y-75503903D01*
X148542502Y-75503903D02*
X148590121Y-75361046D01*
X148590121Y-75361046D02*
X148685359Y-75265808D01*
X148685359Y-75265808D02*
X148780597Y-75218189D01*
X148780597Y-75218189D02*
X148971073Y-75170570D01*
X148971073Y-75170570D02*
X149113930Y-75170570D01*
X149113930Y-75170570D02*
X149304406Y-75218189D01*
X149304406Y-75218189D02*
X149399644Y-75265808D01*
X149399644Y-75265808D02*
X149494883Y-75361046D01*
X149494883Y-75361046D02*
X149542502Y-75503903D01*
X149542502Y-75503903D02*
X149542502Y-75741998D01*
X148542502Y-74837236D02*
X148542502Y-74170570D01*
X148542502Y-74170570D02*
X149542502Y-74599141D01*
X107315278Y-74513723D02*
X107315278Y-75323246D01*
X107315278Y-75323246D02*
X107362897Y-75418484D01*
X107362897Y-75418484D02*
X107410516Y-75466104D01*
X107410516Y-75466104D02*
X107505754Y-75513723D01*
X107505754Y-75513723D02*
X107696230Y-75513723D01*
X107696230Y-75513723D02*
X107791468Y-75466104D01*
X107791468Y-75466104D02*
X107839087Y-75418484D01*
X107839087Y-75418484D02*
X107886706Y-75323246D01*
X107886706Y-75323246D02*
X107886706Y-74513723D01*
X108791468Y-74847056D02*
X108791468Y-75513723D01*
X108553373Y-74466104D02*
X108315278Y-75180389D01*
X108315278Y-75180389D02*
X108934325Y-75180389D01*
X127068726Y-71579658D02*
X127169741Y-71007239D01*
X126664665Y-71175597D02*
X127371772Y-70468491D01*
X127371772Y-70468491D02*
X127641146Y-70737865D01*
X127641146Y-70737865D02*
X127674818Y-70838880D01*
X127674818Y-70838880D02*
X127674818Y-70906223D01*
X127674818Y-70906223D02*
X127641146Y-71007239D01*
X127641146Y-71007239D02*
X127540131Y-71108254D01*
X127540131Y-71108254D02*
X127439115Y-71141926D01*
X127439115Y-71141926D02*
X127371772Y-71141926D01*
X127371772Y-71141926D02*
X127270757Y-71108254D01*
X127270757Y-71108254D02*
X127001383Y-70838880D01*
X128011535Y-71108254D02*
X128482940Y-71579658D01*
X128482940Y-71579658D02*
X127472787Y-71983719D01*
X121910004Y-71447189D02*
X120910004Y-71447189D01*
X120910004Y-71447189D02*
X120910004Y-71209094D01*
X120910004Y-71209094D02*
X120957623Y-71066237D01*
X120957623Y-71066237D02*
X121052861Y-70970999D01*
X121052861Y-70970999D02*
X121148099Y-70923380D01*
X121148099Y-70923380D02*
X121338575Y-70875761D01*
X121338575Y-70875761D02*
X121481432Y-70875761D01*
X121481432Y-70875761D02*
X121671908Y-70923380D01*
X121671908Y-70923380D02*
X121767146Y-70970999D01*
X121767146Y-70970999D02*
X121862385Y-71066237D01*
X121862385Y-71066237D02*
X121910004Y-71209094D01*
X121910004Y-71209094D02*
X121910004Y-71447189D01*
X121910004Y-69923380D02*
X121910004Y-70494808D01*
X121910004Y-70209094D02*
X120910004Y-70209094D01*
X120910004Y-70209094D02*
X121052861Y-70304332D01*
X121052861Y-70304332D02*
X121148099Y-70399570D01*
X121148099Y-70399570D02*
X121195718Y-70494808D01*
X121910004Y-68970999D02*
X121910004Y-69542427D01*
X121910004Y-69256713D02*
X120910004Y-69256713D01*
X120910004Y-69256713D02*
X121052861Y-69351951D01*
X121052861Y-69351951D02*
X121148099Y-69447189D01*
X121148099Y-69447189D02*
X121195718Y-69542427D01*
X117580763Y-48047570D02*
X117628383Y-48095189D01*
X117628383Y-48095189D02*
X117676002Y-48238046D01*
X117676002Y-48238046D02*
X117676002Y-48333284D01*
X117676002Y-48333284D02*
X117628383Y-48476141D01*
X117628383Y-48476141D02*
X117533144Y-48571379D01*
X117533144Y-48571379D02*
X117437906Y-48618998D01*
X117437906Y-48618998D02*
X117247430Y-48666617D01*
X117247430Y-48666617D02*
X117104573Y-48666617D01*
X117104573Y-48666617D02*
X116914097Y-48618998D01*
X116914097Y-48618998D02*
X116818859Y-48571379D01*
X116818859Y-48571379D02*
X116723621Y-48476141D01*
X116723621Y-48476141D02*
X116676002Y-48333284D01*
X116676002Y-48333284D02*
X116676002Y-48238046D01*
X116676002Y-48238046D02*
X116723621Y-48095189D01*
X116723621Y-48095189D02*
X116771240Y-48047570D01*
X117104573Y-47476141D02*
X117056954Y-47571379D01*
X117056954Y-47571379D02*
X117009335Y-47618998D01*
X117009335Y-47618998D02*
X116914097Y-47666617D01*
X116914097Y-47666617D02*
X116866478Y-47666617D01*
X116866478Y-47666617D02*
X116771240Y-47618998D01*
X116771240Y-47618998D02*
X116723621Y-47571379D01*
X116723621Y-47571379D02*
X116676002Y-47476141D01*
X116676002Y-47476141D02*
X116676002Y-47285665D01*
X116676002Y-47285665D02*
X116723621Y-47190427D01*
X116723621Y-47190427D02*
X116771240Y-47142808D01*
X116771240Y-47142808D02*
X116866478Y-47095189D01*
X116866478Y-47095189D02*
X116914097Y-47095189D01*
X116914097Y-47095189D02*
X117009335Y-47142808D01*
X117009335Y-47142808D02*
X117056954Y-47190427D01*
X117056954Y-47190427D02*
X117104573Y-47285665D01*
X117104573Y-47285665D02*
X117104573Y-47476141D01*
X117104573Y-47476141D02*
X117152192Y-47571379D01*
X117152192Y-47571379D02*
X117199811Y-47618998D01*
X117199811Y-47618998D02*
X117295049Y-47666617D01*
X117295049Y-47666617D02*
X117485525Y-47666617D01*
X117485525Y-47666617D02*
X117580763Y-47618998D01*
X117580763Y-47618998D02*
X117628383Y-47571379D01*
X117628383Y-47571379D02*
X117676002Y-47476141D01*
X117676002Y-47476141D02*
X117676002Y-47285665D01*
X117676002Y-47285665D02*
X117628383Y-47190427D01*
X117628383Y-47190427D02*
X117580763Y-47142808D01*
X117580763Y-47142808D02*
X117485525Y-47095189D01*
X117485525Y-47095189D02*
X117295049Y-47095189D01*
X117295049Y-47095189D02*
X117199811Y-47142808D01*
X117199811Y-47142808D02*
X117152192Y-47190427D01*
X117152192Y-47190427D02*
X117104573Y-47285665D01*
X123007828Y-65618367D02*
X122940484Y-65618367D01*
X122940484Y-65618367D02*
X122805797Y-65551023D01*
X122805797Y-65551023D02*
X122738454Y-65483680D01*
X122738454Y-65483680D02*
X122671110Y-65348993D01*
X122671110Y-65348993D02*
X122671110Y-65214306D01*
X122671110Y-65214306D02*
X122704782Y-65113291D01*
X122704782Y-65113291D02*
X122805797Y-64944932D01*
X122805797Y-64944932D02*
X122906812Y-64843917D01*
X122906812Y-64843917D02*
X123075171Y-64742901D01*
X123075171Y-64742901D02*
X123176186Y-64709230D01*
X123176186Y-64709230D02*
X123310873Y-64709230D01*
X123310873Y-64709230D02*
X123445560Y-64776573D01*
X123445560Y-64776573D02*
X123512904Y-64843917D01*
X123512904Y-64843917D02*
X123580247Y-64978604D01*
X123580247Y-64978604D02*
X123580247Y-65045947D01*
X123613919Y-66359145D02*
X123209858Y-65955084D01*
X123411889Y-66157115D02*
X124118995Y-65450008D01*
X124118995Y-65450008D02*
X123950637Y-65483680D01*
X123950637Y-65483680D02*
X123815950Y-65483680D01*
X123815950Y-65483680D02*
X123714934Y-65450008D01*
X124556728Y-65887741D02*
X125028133Y-66359146D01*
X125028133Y-66359146D02*
X124017980Y-66763207D01*
X149712241Y-38705142D02*
X149664622Y-38800380D01*
X149664622Y-38800380D02*
X149569384Y-38895618D01*
X149569384Y-38895618D02*
X149426526Y-39038475D01*
X149426526Y-39038475D02*
X149378907Y-39133713D01*
X149378907Y-39133713D02*
X149378907Y-39228951D01*
X149617003Y-39181332D02*
X149569384Y-39276570D01*
X149569384Y-39276570D02*
X149474145Y-39371808D01*
X149474145Y-39371808D02*
X149283669Y-39419427D01*
X149283669Y-39419427D02*
X148950336Y-39419427D01*
X148950336Y-39419427D02*
X148759860Y-39371808D01*
X148759860Y-39371808D02*
X148664622Y-39276570D01*
X148664622Y-39276570D02*
X148617003Y-39181332D01*
X148617003Y-39181332D02*
X148617003Y-38990856D01*
X148617003Y-38990856D02*
X148664622Y-38895618D01*
X148664622Y-38895618D02*
X148759860Y-38800380D01*
X148759860Y-38800380D02*
X148950336Y-38752761D01*
X148950336Y-38752761D02*
X149283669Y-38752761D01*
X149283669Y-38752761D02*
X149474145Y-38800380D01*
X149474145Y-38800380D02*
X149569384Y-38895618D01*
X149569384Y-38895618D02*
X149617003Y-38990856D01*
X149617003Y-38990856D02*
X149617003Y-39181332D01*
X148617003Y-38419427D02*
X148617003Y-37800380D01*
X148617003Y-37800380D02*
X148997955Y-38133713D01*
X148997955Y-38133713D02*
X148997955Y-37990856D01*
X148997955Y-37990856D02*
X149045574Y-37895618D01*
X149045574Y-37895618D02*
X149093193Y-37847999D01*
X149093193Y-37847999D02*
X149188431Y-37800380D01*
X149188431Y-37800380D02*
X149426526Y-37800380D01*
X149426526Y-37800380D02*
X149521764Y-37847999D01*
X149521764Y-37847999D02*
X149569384Y-37895618D01*
X149569384Y-37895618D02*
X149617003Y-37990856D01*
X149617003Y-37990856D02*
X149617003Y-38276570D01*
X149617003Y-38276570D02*
X149569384Y-38371808D01*
X149569384Y-38371808D02*
X149521764Y-38419427D01*
X141071323Y-53320484D02*
X141023704Y-53368104D01*
X141023704Y-53368104D02*
X140880847Y-53415723D01*
X140880847Y-53415723D02*
X140785609Y-53415723D01*
X140785609Y-53415723D02*
X140642752Y-53368104D01*
X140642752Y-53368104D02*
X140547514Y-53272865D01*
X140547514Y-53272865D02*
X140499895Y-53177627D01*
X140499895Y-53177627D02*
X140452276Y-52987151D01*
X140452276Y-52987151D02*
X140452276Y-52844294D01*
X140452276Y-52844294D02*
X140499895Y-52653818D01*
X140499895Y-52653818D02*
X140547514Y-52558580D01*
X140547514Y-52558580D02*
X140642752Y-52463342D01*
X140642752Y-52463342D02*
X140785609Y-52415723D01*
X140785609Y-52415723D02*
X140880847Y-52415723D01*
X140880847Y-52415723D02*
X141023704Y-52463342D01*
X141023704Y-52463342D02*
X141071323Y-52510961D01*
X141404657Y-52415723D02*
X142023704Y-52415723D01*
X142023704Y-52415723D02*
X141690371Y-52796675D01*
X141690371Y-52796675D02*
X141833228Y-52796675D01*
X141833228Y-52796675D02*
X141928466Y-52844294D01*
X141928466Y-52844294D02*
X141976085Y-52891913D01*
X141976085Y-52891913D02*
X142023704Y-52987151D01*
X142023704Y-52987151D02*
X142023704Y-53225246D01*
X142023704Y-53225246D02*
X141976085Y-53320484D01*
X141976085Y-53320484D02*
X141928466Y-53368104D01*
X141928466Y-53368104D02*
X141833228Y-53415723D01*
X141833228Y-53415723D02*
X141547514Y-53415723D01*
X141547514Y-53415723D02*
X141452276Y-53368104D01*
X141452276Y-53368104D02*
X141404657Y-53320484D01*
X142357038Y-52415723D02*
X142976085Y-52415723D01*
X142976085Y-52415723D02*
X142642752Y-52796675D01*
X142642752Y-52796675D02*
X142785609Y-52796675D01*
X142785609Y-52796675D02*
X142880847Y-52844294D01*
X142880847Y-52844294D02*
X142928466Y-52891913D01*
X142928466Y-52891913D02*
X142976085Y-52987151D01*
X142976085Y-52987151D02*
X142976085Y-53225246D01*
X142976085Y-53225246D02*
X142928466Y-53320484D01*
X142928466Y-53320484D02*
X142880847Y-53368104D01*
X142880847Y-53368104D02*
X142785609Y-53415723D01*
X142785609Y-53415723D02*
X142499895Y-53415723D01*
X142499895Y-53415723D02*
X142404657Y-53368104D01*
X142404657Y-53368104D02*
X142357038Y-53320484D01*
X101537003Y-68335761D02*
X101060812Y-68669094D01*
X101537003Y-68907189D02*
X100537003Y-68907189D01*
X100537003Y-68907189D02*
X100537003Y-68526237D01*
X100537003Y-68526237D02*
X100584622Y-68430999D01*
X100584622Y-68430999D02*
X100632241Y-68383380D01*
X100632241Y-68383380D02*
X100727479Y-68335761D01*
X100727479Y-68335761D02*
X100870336Y-68335761D01*
X100870336Y-68335761D02*
X100965574Y-68383380D01*
X100965574Y-68383380D02*
X101013193Y-68430999D01*
X101013193Y-68430999D02*
X101060812Y-68526237D01*
X101060812Y-68526237D02*
X101060812Y-68907189D01*
X101537003Y-67383380D02*
X101537003Y-67954808D01*
X101537003Y-67669094D02*
X100537003Y-67669094D01*
X100537003Y-67669094D02*
X100679860Y-67764332D01*
X100679860Y-67764332D02*
X100775098Y-67859570D01*
X100775098Y-67859570D02*
X100822717Y-67954808D01*
X100965574Y-66811951D02*
X100917955Y-66907189D01*
X100917955Y-66907189D02*
X100870336Y-66954808D01*
X100870336Y-66954808D02*
X100775098Y-67002427D01*
X100775098Y-67002427D02*
X100727479Y-67002427D01*
X100727479Y-67002427D02*
X100632241Y-66954808D01*
X100632241Y-66954808D02*
X100584622Y-66907189D01*
X100584622Y-66907189D02*
X100537003Y-66811951D01*
X100537003Y-66811951D02*
X100537003Y-66621475D01*
X100537003Y-66621475D02*
X100584622Y-66526237D01*
X100584622Y-66526237D02*
X100632241Y-66478618D01*
X100632241Y-66478618D02*
X100727479Y-66430999D01*
X100727479Y-66430999D02*
X100775098Y-66430999D01*
X100775098Y-66430999D02*
X100870336Y-66478618D01*
X100870336Y-66478618D02*
X100917955Y-66526237D01*
X100917955Y-66526237D02*
X100965574Y-66621475D01*
X100965574Y-66621475D02*
X100965574Y-66811951D01*
X100965574Y-66811951D02*
X101013193Y-66907189D01*
X101013193Y-66907189D02*
X101060812Y-66954808D01*
X101060812Y-66954808D02*
X101156050Y-67002427D01*
X101156050Y-67002427D02*
X101346526Y-67002427D01*
X101346526Y-67002427D02*
X101441764Y-66954808D01*
X101441764Y-66954808D02*
X101489384Y-66907189D01*
X101489384Y-66907189D02*
X101537003Y-66811951D01*
X101537003Y-66811951D02*
X101537003Y-66621475D01*
X101537003Y-66621475D02*
X101489384Y-66526237D01*
X101489384Y-66526237D02*
X101441764Y-66478618D01*
X101441764Y-66478618D02*
X101346526Y-66430999D01*
X101346526Y-66430999D02*
X101156050Y-66430999D01*
X101156050Y-66430999D02*
X101060812Y-66478618D01*
X101060812Y-66478618D02*
X101013193Y-66526237D01*
X101013193Y-66526237D02*
X100965574Y-66621475D01*
X159599517Y-70084486D02*
X159551898Y-70132106D01*
X159551898Y-70132106D02*
X159409041Y-70179725D01*
X159409041Y-70179725D02*
X159313803Y-70179725D01*
X159313803Y-70179725D02*
X159170946Y-70132106D01*
X159170946Y-70132106D02*
X159075708Y-70036867D01*
X159075708Y-70036867D02*
X159028089Y-69941629D01*
X159028089Y-69941629D02*
X158980470Y-69751153D01*
X158980470Y-69751153D02*
X158980470Y-69608296D01*
X158980470Y-69608296D02*
X159028089Y-69417820D01*
X159028089Y-69417820D02*
X159075708Y-69322582D01*
X159075708Y-69322582D02*
X159170946Y-69227344D01*
X159170946Y-69227344D02*
X159313803Y-69179725D01*
X159313803Y-69179725D02*
X159409041Y-69179725D01*
X159409041Y-69179725D02*
X159551898Y-69227344D01*
X159551898Y-69227344D02*
X159599517Y-69274963D01*
X160075708Y-70179725D02*
X160266184Y-70179725D01*
X160266184Y-70179725D02*
X160361422Y-70132106D01*
X160361422Y-70132106D02*
X160409041Y-70084486D01*
X160409041Y-70084486D02*
X160504279Y-69941629D01*
X160504279Y-69941629D02*
X160551898Y-69751153D01*
X160551898Y-69751153D02*
X160551898Y-69370201D01*
X160551898Y-69370201D02*
X160504279Y-69274963D01*
X160504279Y-69274963D02*
X160456660Y-69227344D01*
X160456660Y-69227344D02*
X160361422Y-69179725D01*
X160361422Y-69179725D02*
X160170946Y-69179725D01*
X160170946Y-69179725D02*
X160075708Y-69227344D01*
X160075708Y-69227344D02*
X160028089Y-69274963D01*
X160028089Y-69274963D02*
X159980470Y-69370201D01*
X159980470Y-69370201D02*
X159980470Y-69608296D01*
X159980470Y-69608296D02*
X160028089Y-69703534D01*
X160028089Y-69703534D02*
X160075708Y-69751153D01*
X160075708Y-69751153D02*
X160170946Y-69798772D01*
X160170946Y-69798772D02*
X160361422Y-69798772D01*
X160361422Y-69798772D02*
X160456660Y-69751153D01*
X160456660Y-69751153D02*
X160504279Y-69703534D01*
X160504279Y-69703534D02*
X160551898Y-69608296D01*
D11*
%TO.C,C12*%
X114067184Y-65260741D02*
X114067184Y-65045069D01*
X114787184Y-65260741D02*
X114787184Y-65045069D01*
%TO.C,R4*%
X95139543Y-67185904D02*
X95446825Y-67185904D01*
X95139543Y-67945904D02*
X95446825Y-67945904D01*
%TO.C,C1*%
X109876183Y-64509068D02*
X109876183Y-64724740D01*
X110596183Y-64509068D02*
X110596183Y-64724740D01*
%TO.C,R15*%
X98648448Y-51852674D02*
X98431167Y-51635393D01*
X99185849Y-51315273D02*
X98968568Y-51097992D01*
%TO.C,Y1*%
X115181186Y-66396908D02*
X115181184Y-63611904D01*
X115381185Y-66396902D02*
X115181186Y-66396908D01*
X118851182Y-63611906D02*
X118851184Y-66211904D01*
%TO.C,R13*%
X100227219Y-49839340D02*
X100444500Y-50056621D01*
X100764620Y-49301939D02*
X100981901Y-49519220D01*
%TO.C,R1*%
X92373184Y-44808263D02*
X92373184Y-45115545D01*
X93133184Y-44808263D02*
X93133184Y-45115545D01*
D12*
%TO.C,U2*%
X124777211Y-63494924D02*
X124989348Y-63707061D01*
X124989350Y-63282795D02*
X124777211Y-63494924D01*
X129833028Y-68550739D02*
X130045157Y-68762878D01*
X130045165Y-58226978D02*
X129833028Y-58439115D01*
X130045165Y-58226978D02*
X130257294Y-58439117D01*
X130257294Y-68550741D02*
X130045157Y-68762878D01*
X134906519Y-63088340D02*
X135313111Y-63494932D01*
X135313111Y-63494932D02*
X134906522Y-63901516D01*
D11*
%TO.C,Q5*%
X119860183Y-35596058D02*
X119860183Y-41276058D01*
X125230183Y-35596058D02*
X125230183Y-41716058D01*
X120124914Y-41787680D02*
X119794913Y-42027680D01*
X119794912Y-41547677D01*
X120124914Y-41787680D01*
G36*
X120124914Y-41787680D02*
G01*
X119794913Y-42027680D01*
X119794912Y-41547677D01*
X120124914Y-41787680D01*
G37*
%TO.C,D12*%
X103283185Y-74037904D02*
X103283185Y-75337904D01*
X105083187Y-74037904D02*
X105083187Y-75337904D01*
D10*
X103748186Y-75937904D02*
G75*
G02*
X103598186Y-75937904I-75000J0D01*
G01*
X103598186Y-75937904D02*
G75*
G02*
X103748186Y-75937904I75000J0D01*
G01*
D11*
%TO.C,C25*%
X143734685Y-74940741D02*
X143734685Y-74725069D01*
X144454685Y-74940741D02*
X144454685Y-74725069D01*
%TO.C,L1*%
X148431214Y-67783905D02*
G75*
G02*
X155841154Y-67783905I3704970J-1560001D01*
G01*
X155841154Y-70903905D02*
G75*
G02*
X148431214Y-70903905I-3704970J1560001D01*
G01*
%TO.C,J8*%
X114520788Y-72712906D02*
X115280787Y-72712904D01*
X114520789Y-74042910D02*
X114520788Y-72712906D01*
X115915784Y-72712905D02*
X117245788Y-72712906D01*
X115915788Y-73282902D02*
X115915784Y-72712905D01*
X115915788Y-75372903D02*
X115915790Y-74802904D01*
X115915788Y-75372903D02*
X117245787Y-75372903D01*
X117245781Y-73735378D02*
X117245788Y-72712906D01*
X117245787Y-75372903D02*
X117245787Y-74350435D01*
%TO.C,C7*%
X107844184Y-48778740D02*
X107844184Y-48563068D01*
X108564184Y-48778740D02*
X108564184Y-48563068D01*
%TO.C,R9*%
X141143620Y-58918671D02*
X141597748Y-58918671D01*
X141143620Y-60388671D02*
X141597748Y-60388671D01*
%TO.C,C20*%
X142490348Y-68856904D02*
X142706020Y-68856904D01*
X142490348Y-69576904D02*
X142706020Y-69576904D01*
%TO.C,C10*%
X160382020Y-59458904D02*
X160166348Y-59458904D01*
X160382020Y-60178904D02*
X160166348Y-60178904D01*
%TO.C,C14*%
X134314877Y-59387714D02*
X134162374Y-59235211D01*
X134823994Y-58878597D02*
X134671491Y-58726094D01*
%TO.C,C27*%
X105431184Y-71827740D02*
X105431184Y-71612068D01*
X106151184Y-71827740D02*
X106151184Y-71612068D01*
%TO.C,C6*%
X103249184Y-48555488D02*
X103249184Y-48274326D01*
X104269184Y-48555488D02*
X104269184Y-48274326D01*
%TO.C,C4*%
X108596184Y-64509068D02*
X108596184Y-64724740D01*
X109316184Y-64509068D02*
X109316184Y-64724740D01*
%TO.C,R11*%
X145092184Y-45348996D02*
X145092181Y-49703119D01*
X148512187Y-45348997D02*
X148512184Y-49703120D01*
%TO.C,D6*%
X152921184Y-74307903D02*
X152921184Y-76122905D01*
X152921184Y-76122905D02*
X154141183Y-76122903D01*
X154141183Y-76122903D02*
X154141185Y-74307899D01*
%TO.C,R16*%
X97533140Y-52533419D02*
X97750421Y-52750700D01*
X98070541Y-51996018D02*
X98287822Y-52213299D01*
%TO.C,C35*%
X162322183Y-43131059D02*
X162322177Y-51196057D01*
X166842183Y-43131059D02*
X162322183Y-43131059D01*
X166842185Y-51196056D02*
X166842183Y-43131059D01*
%TO.C,C21*%
X145965451Y-64473137D02*
X154030451Y-64473137D01*
X154030451Y-59953137D02*
X145965451Y-59953137D01*
X154030451Y-64473137D02*
X154030451Y-59953137D01*
%TO.C,Q6*%
X127480183Y-41742907D02*
X127480183Y-35622907D01*
X132850183Y-41742907D02*
X132850183Y-36062907D01*
X132915457Y-35791286D02*
X132585454Y-35551284D01*
X132915453Y-35311285D01*
X132915457Y-35791286D01*
G36*
X132915457Y-35791286D02*
G01*
X132585454Y-35551284D01*
X132915453Y-35311285D01*
X132915457Y-35791286D01*
G37*
%TO.C,C16*%
X135176153Y-61689534D02*
X135374964Y-61888345D01*
X135897402Y-60968285D02*
X136096213Y-61167096D01*
%TO.C,C11*%
X119274184Y-64509068D02*
X119274184Y-64724740D01*
X119994184Y-64509068D02*
X119994184Y-64724740D01*
%TO.C,C3*%
X110286374Y-51173186D02*
X110438877Y-51020683D01*
X110795491Y-51682303D02*
X110947994Y-51529800D01*
%TO.C,R5*%
X95139543Y-70995904D02*
X95446825Y-70995904D01*
X95139543Y-71755904D02*
X95446825Y-71755904D01*
D13*
%TO.C,D2*%
X93536185Y-67565904D02*
G75*
G02*
X93436183Y-67565904I-50001J0D01*
G01*
X93436183Y-67565904D02*
G75*
G02*
X93536185Y-67565904I50001J0D01*
G01*
D11*
%TO.C,J1*%
X99835184Y-26312903D02*
X99835185Y-40622904D01*
X99835184Y-26312903D02*
X115555184Y-26312904D01*
X106405184Y-44732904D02*
X110145184Y-44732904D01*
X115555184Y-26312904D02*
X115555184Y-40622904D01*
X101828378Y-44145862D02*
G75*
G02*
X99835185Y-40622904I2116802J3522955D01*
G01*
X115555184Y-40622904D02*
G75*
G02*
X112646832Y-44553317I-4110000J0D01*
G01*
%TO.C,D8*%
X140614185Y-74172903D02*
X140614185Y-75987905D01*
X140614185Y-75987905D02*
X141834184Y-75987904D01*
X141834184Y-75987904D02*
X141834184Y-74172904D01*
%TO.C,C30*%
X123763184Y-43131059D02*
X123763178Y-51196057D01*
X128283184Y-43131059D02*
X123763184Y-43131059D01*
X128283186Y-51196056D02*
X128283184Y-43131059D01*
%TO.C,R12*%
X118803184Y-45322843D02*
X118803182Y-49676967D01*
X122223186Y-45322843D02*
X122223184Y-49676967D01*
%TO.C,C2*%
X102935877Y-55805094D02*
X102783374Y-55957597D01*
X103444994Y-56314211D02*
X103292491Y-56466714D01*
%TO.C,D4*%
X162465183Y-74336403D02*
X162465183Y-75636403D01*
X164265185Y-74336403D02*
X164265185Y-75636403D01*
D10*
X162930184Y-76236403D02*
G75*
G02*
X162780184Y-76236403I-75000J0D01*
G01*
X162780184Y-76236403D02*
G75*
G02*
X162930184Y-76236403I75000J0D01*
G01*
D13*
%TO.C,D1*%
X93536185Y-63755902D02*
G75*
G02*
X93436183Y-63755902I-50001J0D01*
G01*
X93436183Y-63755902D02*
G75*
G02*
X93536185Y-63755902I50001J0D01*
G01*
D11*
%TO.C,R6*%
X124871528Y-71282651D02*
X124654247Y-71065370D01*
X125408929Y-70745250D02*
X125191648Y-70527969D01*
%TO.C,C24*%
X156104183Y-75067740D02*
X156104183Y-74852068D01*
X156824183Y-75067740D02*
X156824183Y-74852068D01*
%TO.C,R3*%
X95139542Y-63375904D02*
X95446824Y-63375904D01*
X95139542Y-64135904D02*
X95446824Y-64135904D01*
%TO.C,C34*%
X157193182Y-43131060D02*
X157193179Y-51196058D01*
X161713182Y-43131060D02*
X157193182Y-43131060D01*
X161713183Y-51196056D02*
X161713182Y-43131060D01*
%TO.C,C13*%
X128387466Y-69166714D02*
X128234963Y-69014211D01*
X128896583Y-68657597D02*
X128744080Y-68505094D01*
%TO.C,C19*%
X141635431Y-64907905D02*
X143057935Y-64907905D01*
X141635431Y-67627905D02*
X143057935Y-67627905D01*
%TO.C,R22*%
X104004184Y-64808264D02*
X104004184Y-65115546D01*
X104764184Y-64808264D02*
X104764184Y-65115546D01*
%TO.C,J7*%
X110499183Y-76736904D02*
X110499183Y-84556904D01*
X110499183Y-78336904D02*
X111419183Y-78336904D01*
X110499183Y-84556904D02*
X116619183Y-84556905D01*
X111259183Y-80696904D02*
X111259183Y-82296904D01*
X111259183Y-82296904D02*
X112259183Y-82296904D01*
X111419183Y-76736904D02*
X110499183Y-76736904D01*
X111419183Y-78336904D02*
X111419183Y-76736904D01*
X111699183Y-78336904D02*
X111419183Y-78336904D01*
X111699183Y-78336904D02*
X111699183Y-77121904D01*
X111759183Y-82296904D02*
X111759183Y-84556905D01*
X112259183Y-80696904D02*
X111259183Y-80696904D01*
X112259183Y-82296904D02*
X112259183Y-80696904D01*
X112259183Y-82296904D02*
X112259183Y-84556904D01*
X113059183Y-80196904D02*
X114059183Y-80196904D01*
X113059183Y-84556905D02*
X113059183Y-80196904D01*
X114059183Y-80196904D02*
X114059183Y-84556904D01*
X114859183Y-82296904D02*
X114859184Y-80696904D01*
X114859184Y-80696904D02*
X115859182Y-80696904D01*
X115699183Y-76736904D02*
X115699183Y-78336904D01*
X115699183Y-78336904D02*
X115419182Y-78336904D01*
X115859182Y-80696904D02*
X115859183Y-82296904D01*
X115859183Y-82296904D02*
X114859183Y-82296904D01*
X116619183Y-76736905D02*
X115699183Y-76736904D01*
X116619183Y-78336903D02*
X115699183Y-78336904D01*
X116619183Y-84556905D02*
X116619183Y-76736905D01*
%TO.C,C15*%
X135203877Y-58498714D02*
X135051374Y-58346211D01*
X135712994Y-57989597D02*
X135560491Y-57837094D01*
%TO.C,C28*%
X112797183Y-74923068D02*
X112797183Y-75138740D01*
X113517183Y-74923068D02*
X113517183Y-75138740D01*
%TO.C,C29*%
X97567182Y-74785740D02*
X97567182Y-74570068D01*
X98287182Y-74785740D02*
X98287182Y-74570068D01*
%TO.C,D10*%
X129565184Y-74172903D02*
X129565184Y-75987905D01*
X129565184Y-75987905D02*
X130785183Y-75987904D01*
X130785183Y-75987904D02*
X130785183Y-74172904D01*
%TO.C,C31*%
X128843185Y-43131059D02*
X128843182Y-51196057D01*
X133363185Y-43131059D02*
X128843185Y-43131059D01*
X133363186Y-51196055D02*
X133363185Y-43131059D01*
%TO.C,R17*%
X99051183Y-64808264D02*
X99051183Y-65115546D01*
X99811183Y-64808264D02*
X99811183Y-65115546D01*
%TO.C,J6*%
X118499183Y-76736904D02*
X118499183Y-84556904D01*
X118499183Y-78336904D02*
X119419183Y-78336904D01*
X118499183Y-84556904D02*
X124619183Y-84556905D01*
X119259183Y-80696904D02*
X119259183Y-82296904D01*
X119259183Y-82296904D02*
X120259183Y-82296904D01*
X119419183Y-76736904D02*
X118499183Y-76736904D01*
X119419183Y-78336904D02*
X119419183Y-76736904D01*
X119699183Y-78336904D02*
X119419183Y-78336904D01*
X119699183Y-78336904D02*
X119699183Y-77121904D01*
X119759183Y-82296904D02*
X119759183Y-84556905D01*
X120259183Y-80696904D02*
X119259183Y-80696904D01*
X120259183Y-82296904D02*
X120259183Y-80696904D01*
X120259183Y-82296904D02*
X120259183Y-84556904D01*
X121059183Y-80196904D02*
X122059183Y-80196904D01*
X121059183Y-84556905D02*
X121059183Y-80196904D01*
X122059183Y-80196904D02*
X122059183Y-84556904D01*
X122859183Y-82296904D02*
X122859184Y-80696904D01*
X122859184Y-80696904D02*
X123859182Y-80696904D01*
X123699183Y-76736904D02*
X123699183Y-78336904D01*
X123699183Y-78336904D02*
X123419182Y-78336904D01*
X123859182Y-80696904D02*
X123859183Y-82296904D01*
X123859183Y-82296904D02*
X122859183Y-82296904D01*
X124619183Y-76736905D02*
X123699183Y-76736904D01*
X124619183Y-78336903D02*
X123699183Y-78336904D01*
X124619183Y-84556905D02*
X124619183Y-76736905D01*
%TO.C,D13*%
X99085184Y-74096902D02*
X99085184Y-75911904D01*
X99085184Y-75911904D02*
X100305183Y-75911903D01*
X100305183Y-75911903D02*
X100305183Y-74096903D01*
%TO.C,Q1*%
X152118184Y-35570901D02*
X152118184Y-41250901D01*
X157488184Y-35570901D02*
X157488184Y-41690901D01*
X152382915Y-41762523D02*
X152052914Y-42002523D01*
X152052913Y-41522520D01*
X152382915Y-41762523D01*
G36*
X152382915Y-41762523D02*
G01*
X152052914Y-42002523D01*
X152052913Y-41522520D01*
X152382915Y-41762523D01*
G37*
%TO.C,U3*%
X159800684Y-60726903D02*
X163560684Y-60726904D01*
X159800684Y-67546905D02*
X163560684Y-67546904D01*
X163560684Y-60726904D02*
X163560684Y-61986903D01*
X163560684Y-67546904D02*
X163560684Y-66286905D01*
X158520684Y-60826904D02*
X158280684Y-60496904D01*
X158760684Y-60496904D01*
X158520684Y-60826904D01*
G36*
X158520684Y-60826904D02*
G01*
X158280684Y-60496904D01*
X158760684Y-60496904D01*
X158520684Y-60826904D01*
G37*
%TO.C,D9*%
X132823182Y-74340405D02*
X132823182Y-75640405D01*
X134623184Y-74340405D02*
X134623184Y-75640405D01*
D10*
X133288183Y-76240405D02*
G75*
G02*
X133138183Y-76240405I-75000J0D01*
G01*
X133138183Y-76240405D02*
G75*
G02*
X133288183Y-76240405I75000J0D01*
G01*
D11*
%TO.C,C22*%
X145946184Y-59411904D02*
X154011184Y-59411904D01*
X154011184Y-54891904D02*
X145946184Y-54891904D01*
X154011184Y-59411904D02*
X154011184Y-54891904D01*
%TO.C,C26*%
X127656183Y-74940741D02*
X127656183Y-74725069D01*
X128376183Y-74940741D02*
X128376183Y-74725069D01*
%TO.C,R14*%
X99546474Y-50954649D02*
X99329193Y-50737368D01*
X100083875Y-50417248D02*
X99866594Y-50199967D01*
%TO.C,R2*%
X92373184Y-47221263D02*
X92373184Y-47528545D01*
X93133184Y-47221263D02*
X93133184Y-47528545D01*
%TO.C,J2*%
X94023184Y-39978904D02*
X94023184Y-40613904D01*
X94023184Y-40613904D02*
X93388184Y-40613904D01*
%TO.C,C32*%
X134382184Y-43131060D02*
X134382181Y-51196058D01*
X138902184Y-43131060D02*
X134382184Y-43131060D01*
X138902185Y-51196056D02*
X138902184Y-43131060D01*
%TO.C,Q2*%
X159738187Y-41812904D02*
X159738187Y-35692904D01*
X165108187Y-41812904D02*
X165108187Y-36132904D01*
X165173457Y-35861283D02*
X164843458Y-35621281D01*
X165173457Y-35381282D01*
X165173457Y-35861283D01*
G36*
X165173457Y-35861283D02*
G01*
X164843458Y-35621281D01*
X165173457Y-35381282D01*
X165173457Y-35861283D01*
G37*
%TO.C,J5*%
X126499183Y-76736904D02*
X126499183Y-84556904D01*
X126499183Y-78336904D02*
X127419183Y-78336904D01*
X126499183Y-84556904D02*
X136619183Y-84556904D01*
X127259183Y-80696904D02*
X127259183Y-82296904D01*
X127259183Y-82296904D02*
X128259183Y-82296904D01*
X127419183Y-76736904D02*
X126499183Y-76736904D01*
X127419183Y-78336904D02*
X127419183Y-76736904D01*
X127699183Y-78336904D02*
X127419183Y-78336904D01*
X127699183Y-78336904D02*
X127699183Y-77121904D01*
X127759183Y-82296904D02*
X127759183Y-84556905D01*
X128259183Y-80696904D02*
X127259183Y-80696904D01*
X128259183Y-82296904D02*
X128259183Y-80696904D01*
X128259183Y-82296904D02*
X128259183Y-84556904D01*
X129059183Y-80196904D02*
X134059183Y-80196904D01*
X129059183Y-84556905D02*
X129059183Y-80196904D01*
X134059183Y-80196904D02*
X134059183Y-84556904D01*
X134859183Y-80696904D02*
X135859183Y-80696903D01*
X134859183Y-82296904D02*
X134859183Y-80696904D01*
X135699182Y-78336904D02*
X135419183Y-78336903D01*
X135699183Y-76736905D02*
X135699182Y-78336904D01*
X135859183Y-80696903D02*
X135859183Y-82296904D01*
X135859183Y-82296904D02*
X134859183Y-82296904D01*
X136619183Y-76736904D02*
X135699183Y-76736905D01*
X136619183Y-78336904D02*
X135699182Y-78336904D01*
X136619183Y-84556904D02*
X136619183Y-76736904D01*
%TO.C,C18*%
X141635431Y-61097905D02*
X143057935Y-61097905D01*
X141635431Y-63817905D02*
X143057935Y-63817905D01*
%TO.C,Q4*%
X135100183Y-41716057D02*
X135100183Y-35596057D01*
X140470183Y-41716057D02*
X140470183Y-36036057D01*
X140535454Y-35764435D02*
X140205454Y-35524434D01*
X140535453Y-35284435D01*
X140535454Y-35764435D01*
G36*
X140535454Y-35764435D02*
G01*
X140205454Y-35524434D01*
X140535453Y-35284435D01*
X140535454Y-35764435D01*
G37*
%TO.C,R19*%
X114174184Y-70042263D02*
X114174184Y-70349545D01*
X114934184Y-70042263D02*
X114934184Y-70349545D01*
%TO.C,D19*%
X145410683Y-69771904D02*
X145410683Y-65761904D01*
X145410683Y-69771904D02*
X147410683Y-69771904D01*
X147410683Y-69771904D02*
X147410683Y-65761904D01*
%TO.C,J10*%
X95999183Y-76736904D02*
X95999183Y-84556904D01*
X95999183Y-78336904D02*
X96919183Y-78336904D01*
X95999183Y-84556904D02*
X108119183Y-84556904D01*
X96759183Y-80696904D02*
X96759183Y-82296904D01*
X96759183Y-82296904D02*
X97759183Y-82296904D01*
X96919183Y-76736904D02*
X95999183Y-76736904D01*
X96919183Y-78336904D02*
X96919183Y-76736904D01*
X97199183Y-78336904D02*
X96919183Y-78336904D01*
X97199183Y-78336904D02*
X97199183Y-77121904D01*
X97259183Y-82296904D02*
X97259183Y-84556905D01*
X97759183Y-80696904D02*
X96759183Y-80696904D01*
X97759183Y-82296904D02*
X97759183Y-80696904D01*
X97759183Y-82296904D02*
X97759183Y-84556904D01*
X98559183Y-80196904D02*
X105559182Y-80196904D01*
X98559183Y-84556905D02*
X98559183Y-80196904D01*
X105559182Y-80196904D02*
X105559183Y-84556904D01*
X106359183Y-80696904D02*
X107359183Y-80696904D01*
X106359183Y-82296904D02*
X106359183Y-80696904D01*
X107199183Y-76736904D02*
X107199183Y-78336904D01*
X107199183Y-78336904D02*
X106919183Y-78336904D01*
X107359183Y-80696904D02*
X107359183Y-82296904D01*
X107359183Y-82296904D02*
X106359183Y-82296904D01*
X108119183Y-76736904D02*
X107199183Y-76736904D01*
X108119183Y-78336904D02*
X107199183Y-78336904D01*
X108119183Y-84556904D02*
X108119183Y-76736904D01*
%TO.C,C5*%
X106574184Y-48778741D02*
X106574184Y-48563069D01*
X107294184Y-48778741D02*
X107294184Y-48563069D01*
%TO.C,R21*%
X102353184Y-64808264D02*
X102353184Y-65115546D01*
X103113184Y-64808264D02*
X103113184Y-65115546D01*
%TO.C,R8*%
X141524325Y-57241671D02*
X141217043Y-57241671D01*
X141524325Y-58001671D02*
X141217043Y-58001671D01*
%TO.C,R10*%
X150807183Y-45297442D02*
X150807181Y-49651566D01*
X154227185Y-45297442D02*
X154227183Y-49651566D01*
%TO.C,FB1*%
X104900184Y-48252127D02*
X104900184Y-48577687D01*
X105920184Y-48252127D02*
X105920184Y-48577687D01*
%TO.C,R20*%
X118111183Y-73129262D02*
X118111183Y-73436544D01*
X118871183Y-73129262D02*
X118871183Y-73436544D01*
%TO.C,U1*%
X103738757Y-57532906D02*
X104074632Y-57197030D01*
X104074633Y-57868779D02*
X103738757Y-57532906D01*
X108508192Y-62302342D02*
X108631936Y-62426085D01*
X108844068Y-52427595D02*
X108508195Y-52763471D01*
X109179941Y-62302341D02*
X109013775Y-62468513D01*
X109179944Y-52763470D02*
X108844068Y-52427595D01*
X113613503Y-57197033D02*
X113949379Y-57532906D01*
X113949379Y-57532906D02*
X113613504Y-57868782D01*
X108780428Y-63041268D02*
X108441017Y-62701857D01*
X108844068Y-62638217D01*
X108780428Y-63041268D01*
G36*
X108780428Y-63041268D02*
G01*
X108441017Y-62701857D01*
X108844068Y-62638217D01*
X108780428Y-63041268D01*
G37*
%TO.C,J4*%
X138499183Y-76736904D02*
X138499183Y-84556904D01*
X138499183Y-78336904D02*
X139419183Y-78336904D01*
X138499183Y-84556904D02*
X148619183Y-84556904D01*
X139259183Y-80696904D02*
X139259183Y-82296904D01*
X139259183Y-82296904D02*
X140259183Y-82296904D01*
X139419183Y-76736904D02*
X138499183Y-76736904D01*
X139419183Y-78336904D02*
X139419183Y-76736904D01*
X139699183Y-78336904D02*
X139419183Y-78336904D01*
X139699183Y-78336904D02*
X139699183Y-77121904D01*
X139759183Y-82296904D02*
X139759183Y-84556905D01*
X140259183Y-80696904D02*
X139259183Y-80696904D01*
X140259183Y-82296904D02*
X140259183Y-80696904D01*
X140259183Y-82296904D02*
X140259183Y-84556904D01*
X141059183Y-80196904D02*
X146059183Y-80196904D01*
X141059183Y-84556905D02*
X141059183Y-80196904D01*
X146059183Y-80196904D02*
X146059183Y-84556904D01*
X146859183Y-80696904D02*
X147859183Y-80696903D01*
X146859183Y-82296904D02*
X146859183Y-80696904D01*
X147699182Y-78336904D02*
X147419183Y-78336903D01*
X147699183Y-76736905D02*
X147699182Y-78336904D01*
X147859183Y-80696903D02*
X147859183Y-82296904D01*
X147859183Y-82296904D02*
X146859183Y-82296904D01*
X148619183Y-76736904D02*
X147699183Y-76736905D01*
X148619183Y-78336904D02*
X147699182Y-78336904D01*
X148619183Y-84556904D02*
X148619183Y-76736904D01*
%TO.C,C23*%
X95314184Y-38336740D02*
X95314184Y-38121068D01*
X96034184Y-38336740D02*
X96034184Y-38121068D01*
D13*
%TO.C,D3*%
X93536185Y-71375903D02*
G75*
G02*
X93436183Y-71375903I-50001J0D01*
G01*
X93436183Y-71375903D02*
G75*
G02*
X93536185Y-71375903I50001J0D01*
G01*
D11*
%TO.C,D5*%
X158909183Y-74336403D02*
X158909183Y-75636403D01*
X160709185Y-74336403D02*
X160709185Y-75636403D01*
D10*
X159374184Y-76236403D02*
G75*
G02*
X159224184Y-76236403I-75000J0D01*
G01*
X159224184Y-76236403D02*
G75*
G02*
X159374184Y-76236403I75000J0D01*
G01*
D11*
%TO.C,D7*%
X146284682Y-74353904D02*
X146284682Y-75653904D01*
X148084684Y-74353904D02*
X148084684Y-75653904D01*
D10*
X146749683Y-76253904D02*
G75*
G02*
X146599683Y-76253904I-75000J0D01*
G01*
X146599683Y-76253904D02*
G75*
G02*
X146749683Y-76253904I75000J0D01*
G01*
D11*
%TO.C,U4*%
X110164183Y-69032905D02*
X108214183Y-69032904D01*
X110164183Y-69032905D02*
X112114183Y-69032904D01*
X110164183Y-74152903D02*
X108214183Y-74152904D01*
X110164183Y-74152903D02*
X112114183Y-74152904D01*
X107464183Y-69127904D02*
X107224184Y-68797904D01*
X107704183Y-68797904D01*
X107464183Y-69127904D01*
G36*
X107464183Y-69127904D02*
G01*
X107224184Y-68797904D01*
X107704183Y-68797904D01*
X107464183Y-69127904D01*
G37*
%TO.C,J3*%
X151999184Y-76736904D02*
X151999184Y-84556904D01*
X151999184Y-78336904D02*
X152919184Y-78336904D01*
X151999184Y-84556904D02*
X166119184Y-84556904D01*
X152759184Y-80696904D02*
X152759184Y-82296904D01*
X152759184Y-82296904D02*
X153759184Y-82296904D01*
X152919184Y-76736904D02*
X151999184Y-76736904D01*
X152919184Y-78336904D02*
X152919184Y-76736904D01*
X153199184Y-78336904D02*
X152919184Y-78336904D01*
X153199184Y-78336904D02*
X153199184Y-77121904D01*
X153259184Y-82296904D02*
X153259184Y-84556905D01*
X153759184Y-80696904D02*
X152759184Y-80696904D01*
X153759184Y-82296904D02*
X153759184Y-80696904D01*
X153759184Y-82296904D02*
X153759184Y-84556904D01*
X154559184Y-80196904D02*
X163559184Y-80196904D01*
X154559184Y-84556905D02*
X154559184Y-80196904D01*
X163559184Y-80196904D02*
X163559184Y-84556905D01*
X164359184Y-80696904D02*
X165359185Y-80696904D01*
X164359184Y-82296904D02*
X164359184Y-80696904D01*
X165199184Y-76736905D02*
X165199184Y-78336903D01*
X165199184Y-78336903D02*
X164919185Y-78336904D01*
X165359184Y-82296904D02*
X164359184Y-82296904D01*
X165359185Y-80696904D02*
X165359184Y-82296904D01*
X166119184Y-76736904D02*
X165199184Y-76736905D01*
X166119184Y-78336904D02*
X165199184Y-78336903D01*
X166119184Y-84556904D02*
X166119184Y-76736904D01*
%TO.C,R7*%
X125794532Y-70359646D02*
X125577251Y-70142365D01*
X126331933Y-69822245D02*
X126114652Y-69604964D01*
%TO.C,D11*%
X119895184Y-74092904D02*
X119895184Y-73442906D01*
X119895184Y-74092904D02*
X119895187Y-74742903D01*
X123015186Y-74092904D02*
X123015183Y-73442905D01*
X123015186Y-74092904D02*
X123015186Y-74742902D01*
X119945181Y-75255402D02*
X119615185Y-75495404D01*
X119615182Y-75015403D01*
X119945181Y-75255402D01*
G36*
X119945181Y-75255402D02*
G01*
X119615185Y-75495404D01*
X119615182Y-75015403D01*
X119945181Y-75255402D01*
G37*
%TO.C,C8*%
X108987184Y-48804742D02*
X108987184Y-48589070D01*
X109707184Y-48804742D02*
X109707184Y-48589070D01*
%TO.C,C17*%
X124601532Y-65380781D02*
X124754035Y-65533284D01*
X125110649Y-64871664D02*
X125263152Y-65024167D01*
%TO.C,Q3*%
X142720183Y-35596058D02*
X142720183Y-41276058D01*
X148090183Y-35596058D02*
X148090183Y-41716058D01*
X142984914Y-41787680D02*
X142654913Y-42027680D01*
X142654907Y-41547681D01*
X142984914Y-41787680D01*
G36*
X142984914Y-41787680D02*
G01*
X142654913Y-42027680D01*
X142654907Y-41547681D01*
X142984914Y-41787680D01*
G37*
%TO.C,C33*%
X139462184Y-43131059D02*
X139462181Y-51196057D01*
X143982184Y-43131059D02*
X139462184Y-43131059D01*
X143982185Y-51196055D02*
X143982184Y-43131059D01*
%TO.C,R18*%
X100702184Y-64808263D02*
X100702184Y-65115545D01*
X101462184Y-64808263D02*
X101462184Y-65115545D01*
%TO.C,C9*%
X159658348Y-68094905D02*
X159874020Y-68094905D01*
X159658348Y-68814905D02*
X159874020Y-68814905D01*
%TD*%
M02*
