M48
; DRILL file {KiCad 9.0.2} date 2025-08-28T15:13:06+0900
; FORMAT={-:-/ absolute / metric / decimal}
; #@! TF.CreationDate,2025-08-28T15:13:06+09:00
; #@! TF.GenerationSoftware,Kicad,Pcbnew,9.0.2
; #@! TF.FileFunction,Plated,1,4,PTH
FMAT,2
METRIC
; #@! TA.AperFunction,Plated,PTH,ViaDrill
T1C0.178
; #@! TA.AperFunction,Plated,PTH,ViaDrill
T2C0.200
; #@! TA.AperFunction,Plated,PTH,ViaDrill
T3C0.300
; #@! TA.AperFunction,Plated,PTH,ComponentDrill
T4C0.600
; #@! TA.AperFunction,Plated,PTH,ComponentDrill
T5C0.700
; #@! TA.AperFunction,Plated,PTH,ComponentDrill
T6C0.750
; #@! TA.AperFunction,Plated,PTH,ComponentDrill
T7C1.300
; #@! TA.AperFunction,Plated,PTH,ComponentDrill
T8C2.700
%
G90
G05
T1
X92.71Y-42.801
X95.631Y-42.293
X95.631Y-44.96
X96.901Y-44.96
X98.171Y-29.593
X98.171Y-32.133
X98.171Y-34.8
X98.171Y-40.007
X98.171Y-43.817
X98.171Y-44.96
X100.965Y-29.593
X100.965Y-32.133
X102.108Y-47.627
X111.125Y-46.357
X113.919Y-52.199
X114.046Y-46.357
X114.427Y-63.756
X115.189Y-56.263
X115.189Y-58.803
X115.697Y-46.357
X116.459Y-52.199
X116.459Y-53.85
X117.221Y-46.357
X117.729Y-49.913
X117.729Y-56.263
X117.729Y-58.803
X118.11Y-62.359
X135.636Y-56.898
X139.474Y-62.458
T2
X91.215Y-73.379
X91.24Y-68.02
X92.954Y-51.818
X93.589Y-52.453
X94.023Y-46.139
X94.224Y-51.818
X94.986Y-53.088
X95.621Y-53.723
X96.256Y-53.088
X98.288Y-55.882
X98.923Y-53.85
X100.266Y-61.914
X100.579Y-69.603
X101.209Y-56.517
X101.981Y-70.007
X101.981Y-58.821
X103.251Y-73.916
X103.505Y-70.995
X105.156Y-73.917
X105.4Y-66.55
X106.299Y-64.137
X107.823Y-64.137
X109.591Y-52.072
X109.601Y-51.056
X116.459Y-79.758
X116.491Y-78.107
X117.729Y-73.535
X117.846Y-75.44
X118.364Y-75.948
X118.491Y-78.107
X118.999Y-75.44
X118.999Y-79.758
X121.539Y-74.805
X121.539Y-75.821
X123.571Y-74.551
X123.571Y-75.45
X124.333Y-75.059
X125.185Y-67.68
X125.825Y-67.987
X125.947Y-67.158
X126.479Y-67.722
X126.892Y-68.408
X127.635Y-68.331
X127.93Y-67.647
X131.504Y-75.762
X131.547Y-68.216
X131.699Y-74.805
X131.943Y-69.598
X131.956Y-68.784
X132.207Y-75.313
X132.228Y-67.408
X132.905Y-68.001
X132.959Y-68.963
X132.969Y-74.805
X133.266Y-66.73
X133.333Y-59.661
X133.721Y-68.074
X133.848Y-67.185
X134.229Y-71.249
X134.493Y-74.805
X134.61Y-70.614
X134.864Y-69.598
X135.118Y-75.45
X135.509Y-74.805
X143.172Y-57.622
X144.971Y-75.757
X146.177Y-74.447
X148.209Y-73.916
X150.157Y-60.172
X157.765Y-75.453
X158.75Y-73.593
X159.301Y-74.986
X159.512Y-73.593
X160.309Y-74.994
X162.449Y-73.593
X162.857Y-74.932
X163.195Y-73.593
X163.873Y-74.932
T3
X88.633Y-80.0
X88.646Y-29.593
X89.34Y-78.294
X89.347Y-81.699
X89.353Y-27.887
X89.36Y-31.292
X91.046Y-77.6
X91.046Y-82.403
X91.059Y-27.193
X91.059Y-31.996
X92.743Y-78.303
X92.752Y-81.706
X92.756Y-27.896
X92.765Y-31.299
X93.459Y-80.0
X93.472Y-29.593
X95.377Y-40.007
X96.139Y-80.393
X96.139Y-82.933
X96.891Y-71.404
X98.669Y-56.957
X98.679Y-82.933
X99.304Y-55.501
X99.913Y-53.85
X101.056Y-55.654
X101.209Y-74.932
X101.219Y-73.789
X101.219Y-80.393
X101.219Y-82.933
X102.489Y-59.395
X102.619Y-55.249
X102.85Y-58.49
X102.86Y-71.63
X103.759Y-80.393
X103.759Y-82.933
X104.257Y-71.757
X105.029Y-60.073
X106.299Y-63.121
X106.299Y-80.393
X106.299Y-82.933
X106.553Y-57.533
X106.681Y-46.357
X107.315Y-56.771
X107.315Y-58.295
X107.701Y-51.559
X107.823Y-65.144
X108.077Y-56.009
X108.077Y-57.533
X108.077Y-59.057
X108.839Y-56.771
X108.839Y-58.295
X108.839Y-80.393
X108.839Y-82.933
X109.601Y-57.533
X109.601Y-56.009
X109.601Y-59.057
X110.109Y-75.694
X110.363Y-56.771
X110.363Y-58.295
X110.565Y-63.046
X110.871Y-73.535
X111.125Y-57.533
X111.379Y-80.393
X111.379Y-82.933
X112.258Y-61.089
X112.639Y-52.453
X113.326Y-53.544
X113.919Y-80.393
X113.919Y-82.933
X114.596Y-54.814
X116.386Y-56.771
X116.459Y-82.933
X116.967Y-72.011
X118.999Y-43.309
X118.999Y-43.817
X118.999Y-82.933
X119.253Y-50.142
X119.253Y-50.777
X119.507Y-43.309
X119.507Y-43.817
X119.888Y-50.142
X119.888Y-50.777
X120.015Y-43.309
X120.015Y-43.817
X120.513Y-50.142
X120.513Y-50.777
X120.523Y-37.086
X120.523Y-37.594
X120.523Y-38.102
X120.523Y-38.61
X120.523Y-39.118
X120.523Y-39.626
X120.523Y-43.309
X120.523Y-43.817
X121.031Y-37.086
X121.031Y-37.594
X121.031Y-38.102
X121.031Y-38.61
X121.031Y-39.118
X121.031Y-39.626
X121.031Y-43.309
X121.031Y-43.817
X121.158Y-50.777
X121.158Y-50.142
X121.412Y-58.549
X121.539Y-37.086
X121.539Y-37.594
X121.539Y-38.102
X121.539Y-38.61
X121.539Y-39.118
X121.539Y-39.626
X121.539Y-43.309
X121.539Y-43.817
X121.539Y-82.933
X121.793Y-50.142
X121.793Y-50.777
X122.041Y-62.347
X122.047Y-37.086
X122.047Y-37.594
X122.047Y-38.102
X122.047Y-38.61
X122.047Y-39.118
X122.047Y-39.626
X122.047Y-43.309
X122.047Y-43.817
X122.555Y-37.086
X122.555Y-37.594
X122.555Y-38.102
X122.555Y-38.61
X122.555Y-39.118
X122.555Y-39.626
X122.555Y-43.309
X122.555Y-43.817
X123.063Y-37.086
X123.063Y-37.594
X123.063Y-38.102
X123.063Y-38.61
X123.063Y-39.118
X123.063Y-39.626
X123.571Y-37.086
X123.571Y-37.594
X123.571Y-38.102
X123.571Y-38.61
X123.571Y-39.118
X123.571Y-39.626
X124.079Y-37.086
X124.079Y-37.594
X124.079Y-38.102
X124.079Y-38.61
X124.079Y-39.118
X124.079Y-39.626
X124.079Y-77.853
X124.079Y-80.393
X124.079Y-82.933
X124.587Y-37.086
X124.587Y-37.594
X124.587Y-38.102
X124.587Y-38.61
X124.587Y-39.118
X124.587Y-39.626
X125.095Y-51.31
X125.349Y-30.228
X125.349Y-75.821
X125.73Y-51.31
X125.907Y-28.881
X125.907Y-31.575
X126.365Y-51.31
X126.619Y-75.313
X126.619Y-77.853
X126.619Y-80.393
X126.619Y-82.933
X127.0Y-51.31
X127.254Y-28.323
X127.254Y-32.133
X127.625Y-51.31
X127.759Y-63.495
X128.143Y-37.721
X128.143Y-38.229
X128.143Y-38.737
X128.143Y-39.245
X128.143Y-39.753
X128.143Y-40.261
X128.27Y-51.31
X128.521Y-62.733
X128.521Y-64.257
X128.601Y-28.881
X128.601Y-31.575
X128.651Y-37.721
X128.651Y-38.229
X128.651Y-38.737
X128.651Y-39.245
X128.651Y-39.753
X128.651Y-40.261
X128.905Y-51.31
X129.159Y-30.228
X129.159Y-37.721
X129.159Y-38.229
X129.159Y-38.737
X129.159Y-39.245
X129.159Y-39.753
X129.159Y-40.261
X129.159Y-80.393
X129.159Y-82.933
X129.283Y-61.971
X129.283Y-63.495
X129.283Y-65.019
X129.54Y-51.31
X129.667Y-37.721
X129.667Y-38.229
X129.667Y-38.737
X129.667Y-39.245
X129.667Y-39.753
X129.667Y-40.261
X130.045Y-62.733
X130.045Y-64.257
X130.175Y-37.721
X130.175Y-38.229
X130.175Y-38.737
X130.175Y-39.245
X130.175Y-39.753
X130.175Y-40.261
X130.175Y-51.31
X130.683Y-37.721
X130.683Y-38.229
X130.683Y-38.737
X130.683Y-39.245
X130.683Y-39.753
X130.683Y-40.261
X130.8Y-51.31
X130.807Y-63.495
X130.807Y-61.971
X130.807Y-65.019
X131.191Y-37.721
X131.191Y-38.229
X131.191Y-38.737
X131.191Y-39.245
X131.191Y-39.753
X131.191Y-40.261
X131.445Y-51.31
X131.569Y-62.733
X131.569Y-64.257
X131.699Y-37.721
X131.699Y-38.229
X131.699Y-38.737
X131.699Y-39.245
X131.699Y-39.753
X131.699Y-40.261
X131.699Y-80.393
X131.699Y-82.933
X132.08Y-51.31
X132.207Y-37.721
X132.207Y-38.229
X132.207Y-38.737
X132.207Y-39.245
X132.207Y-39.753
X132.207Y-40.261
X132.331Y-63.495
X134.239Y-80.393
X134.239Y-82.933
X135.712Y-51.386
X135.763Y-37.721
X135.763Y-38.229
X135.763Y-38.737
X135.763Y-39.245
X135.763Y-39.753
X135.763Y-40.261
X136.271Y-37.721
X136.271Y-38.229
X136.271Y-38.737
X136.271Y-39.245
X136.271Y-39.753
X136.271Y-40.261
X136.347Y-51.386
X136.779Y-37.721
X136.779Y-38.229
X136.779Y-38.737
X136.779Y-39.245
X136.779Y-39.753
X136.779Y-40.261
X136.779Y-56.263
X136.779Y-57.533
X136.779Y-80.393
X136.779Y-82.933
X136.982Y-51.386
X137.287Y-37.721
X137.287Y-38.229
X137.287Y-38.737
X137.287Y-39.245
X137.287Y-39.753
X137.287Y-40.261
X137.617Y-51.386
X137.795Y-37.721
X137.795Y-38.229
X137.795Y-38.737
X137.795Y-39.245
X137.795Y-39.753
X137.795Y-40.261
X138.242Y-51.386
X138.303Y-37.721
X138.303Y-38.229
X138.303Y-38.737
X138.303Y-39.245
X138.303Y-39.753
X138.303Y-40.261
X138.811Y-37.721
X138.811Y-38.229
X138.811Y-38.737
X138.811Y-39.245
X138.811Y-39.753
X138.811Y-40.261
X138.887Y-51.386
X139.319Y-37.721
X139.319Y-38.229
X139.319Y-38.737
X139.319Y-39.245
X139.319Y-39.753
X139.319Y-40.261
X139.319Y-56.263
X139.319Y-70.233
X139.319Y-72.773
X139.319Y-80.393
X139.319Y-82.933
X139.522Y-51.386
X139.827Y-37.721
X139.827Y-38.229
X139.827Y-38.737
X139.827Y-39.245
X139.827Y-39.753
X139.827Y-40.261
X140.157Y-51.386
X140.579Y-30.228
X140.792Y-51.386
X141.137Y-28.881
X141.137Y-31.575
X141.417Y-51.386
X141.859Y-56.263
X141.859Y-70.233
X141.859Y-72.773
X141.859Y-80.393
X141.859Y-82.933
X142.062Y-51.386
X142.484Y-28.323
X142.484Y-32.133
X142.697Y-51.386
X143.383Y-37.086
X143.383Y-37.594
X143.383Y-38.102
X143.383Y-38.61
X143.383Y-39.118
X143.383Y-39.626
X143.383Y-59.692
X143.764Y-64.391
X143.831Y-28.881
X143.831Y-31.575
X143.891Y-37.086
X143.891Y-37.594
X143.891Y-38.102
X143.891Y-38.61
X143.891Y-39.118
X143.891Y-39.626
X144.389Y-30.228
X144.399Y-37.086
X144.399Y-37.594
X144.399Y-38.102
X144.399Y-38.61
X144.399Y-39.118
X144.399Y-39.626
X144.399Y-56.263
X144.399Y-70.233
X144.399Y-72.773
X144.399Y-80.393
X144.399Y-82.933
X144.907Y-37.086
X144.907Y-37.594
X144.907Y-38.102
X144.907Y-38.61
X144.907Y-39.118
X144.907Y-39.626
X144.907Y-62.486
X144.907Y-64.391
X144.907Y-66.296
X145.161Y-43.309
X145.161Y-43.817
X145.415Y-37.086
X145.415Y-37.594
X145.415Y-38.102
X145.415Y-38.61
X145.415Y-39.118
X145.415Y-39.626
X145.542Y-50.167
X145.542Y-50.802
X145.669Y-43.309
X145.669Y-43.817
X145.923Y-37.086
X145.923Y-37.594
X145.923Y-38.102
X145.923Y-38.61
X145.923Y-39.118
X145.923Y-39.626
X146.177Y-43.309
X146.177Y-43.817
X146.177Y-50.167
X146.177Y-50.802
X146.431Y-37.086
X146.431Y-37.594
X146.431Y-38.102
X146.431Y-38.61
X146.431Y-39.118
X146.431Y-39.626
X146.685Y-43.309
X146.685Y-43.817
X146.802Y-50.167
X146.802Y-50.802
X146.939Y-37.086
X146.939Y-37.594
X146.939Y-38.102
X146.939Y-38.61
X146.939Y-39.118
X146.939Y-39.626
X146.939Y-70.233
X146.939Y-72.773
X146.939Y-80.393
X146.939Y-82.933
X147.193Y-43.309
X147.193Y-43.817
X147.447Y-37.086
X147.447Y-37.594
X147.447Y-38.102
X147.447Y-38.61
X147.447Y-39.118
X147.447Y-39.626
X147.447Y-50.167
X147.447Y-50.802
X147.701Y-43.309
X147.701Y-43.817
X148.082Y-50.167
X148.082Y-50.802
X148.209Y-43.309
X148.209Y-43.817
X148.336Y-65.788
X148.717Y-43.309
X148.717Y-43.817
X149.479Y-79.123
X149.479Y-82.933
X150.485Y-79.885
X151.003Y-43.309
X151.003Y-43.817
X151.242Y-50.116
X151.242Y-50.751
X151.511Y-43.309
X151.511Y-43.817
X151.877Y-50.116
X151.877Y-50.751
X152.019Y-43.309
X152.019Y-43.817
X152.019Y-80.393
X152.019Y-82.933
X152.502Y-50.116
X152.502Y-50.751
X152.527Y-43.309
X152.527Y-43.817
X152.781Y-37.086
X152.781Y-37.594
X152.781Y-38.102
X152.781Y-38.61
X152.781Y-39.118
X152.781Y-39.626
X153.035Y-43.309
X153.035Y-43.817
X153.147Y-50.116
X153.147Y-50.751
X153.289Y-37.086
X153.289Y-37.594
X153.289Y-38.102
X153.289Y-38.61
X153.289Y-39.118
X153.289Y-39.626
X153.543Y-43.309
X153.543Y-43.817
X153.782Y-50.116
X153.782Y-50.751
X153.797Y-37.086
X153.797Y-37.594
X153.797Y-38.102
X153.797Y-38.61
X153.797Y-39.118
X153.797Y-39.626
X154.051Y-43.309
X154.051Y-43.817
X154.305Y-37.086
X154.305Y-37.594
X154.305Y-38.102
X154.305Y-38.61
X154.305Y-39.118
X154.305Y-39.626
X154.559Y-43.309
X154.559Y-43.817
X154.559Y-80.393
X154.559Y-82.933
X154.813Y-37.086
X154.813Y-37.594
X154.813Y-38.102
X154.813Y-38.61
X154.813Y-39.118
X154.813Y-39.626
X155.321Y-37.086
X155.321Y-37.594
X155.321Y-38.102
X155.321Y-38.61
X155.321Y-39.118
X155.321Y-39.626
X155.829Y-30.228
X155.829Y-37.086
X155.829Y-37.594
X155.829Y-38.102
X155.829Y-38.61
X155.829Y-39.118
X155.829Y-39.626
X156.337Y-37.086
X156.337Y-37.594
X156.337Y-38.102
X156.337Y-38.61
X156.337Y-39.118
X156.337Y-39.626
X156.387Y-28.881
X156.387Y-31.575
X156.845Y-37.086
X156.845Y-37.594
X156.845Y-38.102
X156.845Y-38.61
X156.845Y-39.118
X156.845Y-39.626
X157.099Y-54.993
X157.099Y-57.533
X157.099Y-72.773
X157.099Y-80.393
X157.099Y-82.933
X157.734Y-28.323
X157.734Y-32.133
X159.081Y-28.881
X159.081Y-31.575
X159.639Y-30.228
X159.639Y-54.993
X159.639Y-57.533
X159.639Y-72.773
X159.639Y-80.393
X159.639Y-82.933
X160.401Y-37.721
X160.401Y-38.229
X160.401Y-38.737
X160.401Y-39.245
X160.401Y-39.753
X160.401Y-40.261
X160.982Y-37.721
X160.982Y-38.229
X160.982Y-38.737
X160.982Y-39.245
X160.982Y-39.753
X160.982Y-40.261
X161.562Y-37.721
X161.562Y-38.229
X161.562Y-38.737
X161.562Y-39.245
X161.562Y-39.753
X161.562Y-40.261
X162.143Y-37.721
X162.143Y-38.229
X162.143Y-38.737
X162.143Y-39.245
X162.143Y-39.753
X162.143Y-40.261
X162.179Y-54.993
X162.179Y-57.533
X162.179Y-67.693
X162.179Y-70.233
X162.179Y-72.773
X162.179Y-80.393
X162.179Y-82.933
X162.723Y-37.721
X162.723Y-38.229
X162.723Y-38.737
X162.723Y-39.245
X162.723Y-39.753
X162.723Y-40.261
X163.304Y-37.721
X163.304Y-38.229
X163.304Y-38.737
X163.304Y-39.245
X163.304Y-39.753
X163.304Y-40.261
X163.885Y-37.721
X163.885Y-38.229
X163.885Y-38.737
X163.885Y-39.245
X163.885Y-39.753
X163.885Y-40.261
X164.465Y-37.721
X164.465Y-38.229
X164.465Y-38.737
X164.465Y-39.245
X164.465Y-39.753
X164.465Y-40.261
X164.719Y-54.993
X164.719Y-57.533
X164.719Y-67.693
X164.719Y-70.233
X164.719Y-72.773
X164.719Y-80.393
X164.719Y-82.933
X167.259Y-49.913
X167.259Y-52.453
X167.259Y-54.993
X167.259Y-57.533
X167.259Y-60.073
X167.259Y-67.693
X167.259Y-70.233
X167.259Y-72.773
X167.64Y-75.567
X167.894Y-34.673
X167.894Y-37.213
X167.894Y-39.753
X167.894Y-42.293
X167.894Y-44.833
X167.894Y-47.373
X168.633Y-80.0
X168.646Y-29.593
X169.34Y-78.294
X169.347Y-81.699
X169.353Y-27.887
X169.36Y-31.292
X169.799Y-34.673
X169.799Y-37.213
X169.799Y-39.753
X169.799Y-42.293
X169.799Y-44.833
X169.799Y-47.373
X169.799Y-49.913
X169.799Y-52.453
X169.799Y-54.993
X169.799Y-57.533
X169.799Y-60.073
X169.799Y-62.613
X171.046Y-77.6
X171.046Y-82.403
X171.059Y-27.193
X171.059Y-31.996
X172.339Y-34.673
X172.339Y-37.213
X172.339Y-39.753
X172.339Y-42.293
X172.339Y-44.833
X172.339Y-47.373
X172.339Y-49.913
X172.339Y-52.453
X172.339Y-54.993
X172.339Y-57.533
X172.339Y-60.073
X172.339Y-62.613
X172.339Y-65.153
X172.339Y-67.693
X172.339Y-70.233
X172.339Y-72.773
X172.743Y-78.303
X172.752Y-81.706
X172.756Y-27.896
X172.765Y-31.299
X173.459Y-80.0
X173.472Y-29.593
T5
X115.281Y-74.043
X116.551Y-74.043
T6
X98.059Y-78.197
X100.059Y-78.197
X102.059Y-78.197
X104.059Y-78.197
X106.059Y-78.197
X112.559Y-78.197
X114.559Y-78.197
X120.559Y-78.197
X122.559Y-78.197
X128.559Y-78.197
X130.559Y-78.197
X132.559Y-78.197
X134.559Y-78.197
X140.559Y-78.197
X142.559Y-78.197
X144.559Y-78.197
X146.559Y-78.197
X154.059Y-78.197
X156.059Y-78.197
X158.059Y-78.197
X160.059Y-78.197
X162.059Y-78.197
X164.059Y-78.197
T7
X149.636Y-69.344
X154.636Y-69.344
T8
X104.095Y-42.773
X111.295Y-42.773
T4
G00X100.945Y-36.223
M15
G01X100.945Y-37.323
M16
G05
G00X114.445Y-36.223
M15
G01X114.445Y-37.323
M16
G05
M30
